<svg width="136" height="33" viewBox="0 0 136 33" fill="none" xmlns="http://www.w3.org/2000/svg">
<path d="M46.86 10.2001H48.47V20.0001H47.21L42.59 13.3501V20.0001H40.98V10.2001H42.24L46.86 16.8501V10.2001Z" fill="white"/>
<path d="M51.5192 17.1441C51.6312 17.6761 51.8879 18.0867 52.2892 18.3761C52.6906 18.6561 53.1806 18.7961 53.7592 18.7961C54.5619 18.7961 55.1639 18.5067 55.5652 17.9281L56.8112 18.6561C56.1206 19.6734 55.0986 20.1821 53.7452 20.1821C52.6066 20.1821 51.6872 19.8367 50.9872 19.1461C50.2872 18.4461 49.9372 17.5641 49.9372 16.5001C49.9372 15.4547 50.2826 14.5821 50.9732 13.8821C51.6639 13.1727 52.5506 12.8181 53.6332 12.8181C54.6599 12.8181 55.4999 13.1774 56.1532 13.8961C56.8159 14.6147 57.1472 15.4874 57.1472 16.5141C57.1472 16.6727 57.1286 16.8827 57.0912 17.1441H51.5192ZM51.5052 15.9121H55.6212C55.5186 15.3427 55.2806 14.9134 54.9072 14.6241C54.5432 14.3347 54.1139 14.1901 53.6192 14.1901C53.0592 14.1901 52.5926 14.3441 52.2192 14.6521C51.8459 14.9601 51.6079 15.3801 51.5052 15.9121Z" fill="white"/>
<path d="M66.2682 13.0001H67.8642L65.6662 20.0001H64.1822L62.7262 15.2821L61.2562 20.0001H59.7722L57.5742 13.0001H59.1702L60.5282 17.8301L61.9982 13.0001H63.4402L64.8962 17.8301L66.2682 13.0001Z" fill="white"/>
<path d="M69.9119 14.9321C69.9119 15.1654 70.0379 15.3521 70.2899 15.4921C70.5512 15.6227 70.8639 15.7394 71.2279 15.8421C71.6012 15.9354 71.9745 16.0474 72.3479 16.1781C72.7212 16.3087 73.0339 16.5327 73.2859 16.8501C73.5472 17.1581 73.6779 17.5501 73.6779 18.0261C73.6779 18.6981 73.4165 19.2254 72.8939 19.6081C72.3805 19.9907 71.7319 20.1821 70.9479 20.1821C70.2572 20.1821 69.6645 20.0374 69.1699 19.7481C68.6752 19.4587 68.3159 19.0574 68.0919 18.5441L69.3939 17.7881C69.6365 18.4601 70.1545 18.7961 70.9479 18.7961C71.7412 18.7961 72.1379 18.5347 72.1379 18.0121C72.1379 17.7881 72.0072 17.6061 71.7459 17.4661C71.4939 17.3261 71.1812 17.2094 70.8079 17.1161C70.4439 17.0134 70.0752 16.8967 69.7019 16.7661C69.3285 16.6354 69.0112 16.4207 68.7499 16.1221C68.4979 15.8141 68.3719 15.4267 68.3719 14.9601C68.3719 14.3161 68.6145 13.7981 69.0999 13.4061C69.5945 13.0141 70.2059 12.8181 70.9339 12.8181C71.5125 12.8181 72.0259 12.9487 72.4739 13.2101C72.9312 13.4621 73.2812 13.8167 73.5239 14.2741L72.2499 14.9881C72.0072 14.4561 71.5685 14.1901 70.9339 14.1901C70.6445 14.1901 70.4019 14.2554 70.2059 14.3861C70.0099 14.5074 69.9119 14.6894 69.9119 14.9321Z" fill="white"/>
<path d="M126.31 11.6701C126.123 11.8567 125.899 11.9501 125.638 11.9501C125.377 11.9501 125.148 11.8567 124.952 11.6701C124.765 11.4741 124.672 11.2454 124.672 10.9841C124.672 10.7227 124.765 10.4987 124.952 10.3121C125.139 10.1161 125.367 10.0181 125.638 10.0181C125.909 10.0181 126.137 10.1161 126.324 10.3121C126.511 10.4987 126.604 10.7227 126.604 10.9841C126.604 11.2454 126.506 11.4741 126.31 11.6701ZM124.882 20.0001V13.0001H126.394V20.0001H124.882Z" fill="white"/>
<path d="M131.454 20.1821C130.427 20.1821 129.554 19.8274 128.836 19.1181C128.117 18.4087 127.758 17.5361 127.758 16.5001C127.758 15.4641 128.117 14.5914 128.836 13.8821C129.554 13.1727 130.427 12.8181 131.454 12.8181C132.49 12.8181 133.362 13.1727 134.072 13.8821C134.79 14.5914 135.15 15.4641 135.15 16.5001C135.15 17.5361 134.79 18.4087 134.072 19.1181C133.362 19.8274 132.49 20.1821 131.454 20.1821ZM129.9 18.0821C130.32 18.5021 130.838 18.7121 131.454 18.7121C132.07 18.7121 132.588 18.5021 133.008 18.0821C133.428 17.6621 133.638 17.1347 133.638 16.5001C133.638 15.8654 133.428 15.3381 133.008 14.9181C132.588 14.4981 132.07 14.2881 131.454 14.2881C130.838 14.2881 130.32 14.4981 129.9 14.9181C129.48 15.3381 129.27 15.8654 129.27 16.5001C129.27 17.1347 129.48 17.6621 129.9 18.0821Z" fill="white"/>
<path d="M82.698 20.1681C81.214 20.1681 79.9866 19.6781 79.016 18.6981C78.0453 17.7181 77.56 16.5187 77.56 15.1001C77.56 13.6814 78.0453 12.4821 79.016 11.5021C79.9866 10.5221 81.214 10.0321 82.698 10.0321C83.6033 10.0321 84.434 10.2514 85.19 10.6901C85.946 11.1194 86.5293 11.7027 86.94 12.4401L86.072 12.9441C85.764 12.3467 85.3066 11.8707 84.7 11.5161C84.0933 11.1614 83.426 10.9841 82.698 10.9841C81.4753 10.9841 80.4766 11.3807 79.702 12.1741C78.9273 12.9674 78.54 13.9427 78.54 15.1001C78.54 16.2574 78.9273 17.2327 79.702 18.0261C80.4766 18.8194 81.4753 19.2161 82.698 19.2161C83.426 19.2161 84.0933 19.0387 84.7 18.6841C85.3066 18.3294 85.764 17.8534 86.072 17.2561L86.94 17.7461C86.5386 18.4834 85.9553 19.0714 85.19 19.5101C84.434 19.9487 83.6033 20.1681 82.698 20.1681Z" fill="white"/>
<path d="M89.3356 14.1621C89.765 13.3127 90.5023 12.8881 91.5476 12.8881V13.7841C90.913 13.7841 90.3856 13.9707 89.9656 14.3441C89.5456 14.7174 89.3356 15.3054 89.3356 16.1081V20.0001H88.4116V13.0001H89.3356V14.1621Z" fill="white"/>
<path d="M97.9907 13.0001H98.9707L95.9747 20.6441C95.704 21.3347 95.3167 21.8761 94.8127 22.2681C94.318 22.6694 93.7627 22.8467 93.1467 22.8001V21.9321C93.9867 22.0254 94.626 21.5401 95.0647 20.4761L95.2467 20.0421L92.1107 13.0001H93.0907L95.7227 18.8661L97.9907 13.0001Z" fill="white"/>
<path d="M103.839 12.8321C104.838 12.8321 105.687 13.1867 106.387 13.8961C107.097 14.6054 107.451 15.4734 107.451 16.5001C107.451 17.5267 107.097 18.3947 106.387 19.1041C105.687 19.8134 104.838 20.1681 103.839 20.1681C102.598 20.1681 101.655 19.6547 101.011 18.6281V22.8001H100.087V13.0001H101.011V14.3721C101.655 13.3454 102.598 12.8321 103.839 12.8321ZM101.809 18.4741C102.341 19.0061 102.995 19.2721 103.769 19.2721C104.544 19.2721 105.197 19.0061 105.729 18.4741C106.261 17.9327 106.527 17.2747 106.527 16.5001C106.527 15.7254 106.261 15.0721 105.729 14.5401C105.197 13.9987 104.544 13.7281 103.769 13.7281C102.995 13.7281 102.341 13.9987 101.809 14.5401C101.277 15.0721 101.011 15.7254 101.011 16.5001C101.011 17.2747 101.277 17.9327 101.809 18.4741Z" fill="white"/>
<path d="M112.561 13.8961H110.545V18.1381C110.545 18.5207 110.62 18.7961 110.769 18.9641C110.918 19.1227 111.142 19.2067 111.441 19.2161C111.74 19.2161 112.113 19.2067 112.561 19.1881V20.0001C111.581 20.1494 110.844 20.0794 110.349 19.7901C109.864 19.5007 109.621 18.9501 109.621 18.1381V13.8961H108.151V13.0001H109.621V11.3201L110.545 11.0401V13.0001H112.561V13.8961Z" fill="white"/>
<path d="M119.543 19.1181C118.834 19.8181 117.966 20.1681 116.939 20.1681C115.913 20.1681 115.04 19.8181 114.321 19.1181C113.612 18.4087 113.257 17.5361 113.257 16.5001C113.257 15.4641 113.612 14.5961 114.321 13.8961C115.04 13.1867 115.913 12.8321 116.939 12.8321C117.966 12.8321 118.834 13.1867 119.543 13.8961C120.262 14.5961 120.621 15.4641 120.621 16.5001C120.621 17.5361 120.262 18.4087 119.543 19.1181ZM114.979 18.4741C115.511 19.0061 116.165 19.2721 116.939 19.2721C117.714 19.2721 118.367 19.0061 118.899 18.4741C119.431 17.9327 119.697 17.2747 119.697 16.5001C119.697 15.7254 119.431 15.0721 118.899 14.5401C118.367 13.9987 117.714 13.7281 116.939 13.7281C116.165 13.7281 115.511 13.9987 114.979 14.5401C114.447 15.0721 114.181 15.7254 114.181 16.5001C114.181 17.2747 114.447 17.9327 114.979 18.4741Z" fill="white"/>
<path d="M25.1049 23.4649C24.2159 22.9396 23.3 23.1012 22.3706 23.3167C21.6702 23.4783 20.9833 23.6938 20.2963 23.8824C19.0437 24.2326 17.8179 24.3 16.5249 23.9498C14.922 23.5187 13.373 23.9767 11.8645 24.5289C11.0024 24.8522 10.1539 25.2024 9.31876 25.5796C8.48366 25.9567 7.6755 26.3877 6.82692 26.8053C2.97468 23.5053 0.913862 17.0669 3.32488 11.1673C5.76284 5.15997 11.6894 1.95426 17.1579 2.31793C16.0804 2.46609 14.949 2.61426 13.831 2.78936C12.9555 2.92405 12.309 3.38201 11.8779 4.16324C11.3122 5.17344 10.733 6.18365 10.0865 7.32854C11.3796 7.07263 12.5649 6.9514 13.6694 6.57426C14.7469 6.21058 15.7302 5.59099 16.8212 5.05222C16.5114 5.3216 16.242 5.57752 15.9457 5.79303C14.5045 6.85712 12.7939 7.1265 11.0833 7.36895C10.1269 7.51712 9.18407 7.74609 8.47019 8.45997C8.28162 8.64854 8.06611 9.05263 8.13346 9.2412C8.24121 9.49712 8.61835 9.7665 8.88774 9.77997C9.57468 9.80691 10.2751 9.73956 10.9486 9.60487C11.9588 9.40283 12.9286 9.06609 13.9388 8.87752C14.5179 8.76977 15.1779 8.68895 15.7302 8.83712C17.7102 9.38936 19.5959 9.14691 21.4412 8.37916C23.0306 7.71916 24.6065 7.01875 26.2363 6.30487C29.5902 9.02569 31.9877 15.2755 29.8461 21.2155C27.4486 27.8559 21.091 30.9808 16.2151 30.6306C17.1579 30.4959 18.3567 30.3477 19.542 30.1457C20.3098 30.011 20.889 29.5934 21.2661 28.893C21.8453 27.8424 22.4649 26.8053 23.0845 25.7143C20.6869 26.0645 18.3298 26.28 16.5249 28.0983C16.4845 28.0445 16.4441 27.9771 16.4037 27.9232C16.6057 27.7347 16.7943 27.5192 17.0233 27.3441C18.3163 26.3338 19.8518 25.9432 21.4412 25.7143C22.5457 25.5526 23.6502 25.4045 24.5796 24.6636C24.9971 24.3134 25.1992 23.9632 25.1049 23.4649C25.8726 22.2661 26.6404 21.0673 27.4216 19.8685C26.5057 19.4241 25.7379 19.653 25.051 20.4747C24.4988 21.1347 23.9061 21.7812 23.3404 22.4412C23.2461 22.549 23.1788 22.6836 23.2057 22.6432C23.8522 22.9126 24.4853 23.1955 25.1049 23.4649ZM18.0335 21.5118C21.2931 21.0673 21.4951 17.8212 20.0808 16.3126C21.1449 14.5212 20.5926 12.2449 18.0469 11.6522C18.02 11.3559 17.9931 11.0461 17.9661 10.7498C17.333 10.7498 16.7404 10.7498 16.1612 10.7498C16.1343 11.0865 16.1208 11.3828 16.1073 11.6926C15.8514 11.6792 15.6628 11.6657 15.4473 11.6522C15.4204 11.329 15.3935 11.0461 15.353 10.7228C14.7604 10.7228 14.1947 10.7228 13.602 10.7228C13.5751 11.0461 13.5482 11.329 13.5212 11.6387C13.0767 11.6657 12.6592 11.6926 12.2551 11.7196C12.2551 12.3526 12.2551 12.9318 12.2551 13.511C12.5514 13.5379 12.8073 13.5649 13.0498 13.6053C13.0767 13.713 13.1037 13.7804 13.1171 13.8343C13.1171 14.8445 13.1306 15.8547 13.1306 16.8649C13.1306 18.2253 13.1306 18.2253 11.8375 18.333C12.2551 18.3465 12.6726 18.3734 13.0902 18.3869C13.0902 18.8045 13.0902 19.1547 13.0902 19.5453C12.7939 19.5722 12.5379 19.5992 12.2686 19.6261C12.2686 20.2322 12.2686 20.8114 12.2686 21.4175C12.713 21.4445 13.1306 21.4714 13.5347 21.5118C13.5616 21.7947 13.5886 22.0236 13.6155 22.2661C14.2082 22.2661 14.7739 22.2661 15.353 22.2661C15.3935 21.9967 15.4339 21.7543 15.4743 21.4579C15.7167 21.4714 15.9188 21.4983 16.1208 21.5118C16.1477 21.8081 16.1612 22.0236 16.1882 22.2526C16.8077 22.2526 17.4004 22.2526 18.0065 22.2526C17.993 21.9967 18.0065 21.7677 18.0335 21.5118ZM5.58774 13.0934C6.38243 13.4302 7.08284 13.3763 7.59468 12.8375C8.38937 12.0024 9.13019 11.1 9.88448 10.211C9.89795 10.1841 9.87101 10.1302 9.88448 10.1841C9.18407 10.0224 8.52407 9.87426 7.76978 9.69916C7.09631 10.7498 6.3555 11.8947 5.58774 13.0934ZM11.9588 9.60487C11.9049 9.55099 11.8375 9.49712 11.7837 9.44324C10.3559 10.5208 9.53427 12.1371 8.28162 13.6053C9.10325 13.4706 9.62856 13.1608 9.99223 12.622C10.6657 11.6387 11.2988 10.6151 11.9588 9.60487ZM24.5931 19.5587C24.5526 19.5049 24.5122 19.451 24.4853 19.3971C24.0408 19.68 23.4751 19.882 23.1653 20.2726C22.3706 21.2828 21.6971 22.3738 20.9698 23.4379C21.32 23.411 21.7106 23.3436 21.8857 23.1281C22.8151 21.9563 23.7041 20.7441 24.5931 19.5587ZM6.3959 13.8612C7.16366 14.1171 7.6755 13.8612 8.03917 13.4302C8.98203 12.3257 9.84407 11.1673 10.8408 9.9012C10.5579 9.96854 10.3828 9.95507 10.3155 10.0359C9.69591 10.7498 9.04937 11.4502 8.45672 12.2179C7.99876 12.8106 7.52733 13.3763 6.75958 13.5514C6.65182 13.5783 6.58448 13.6996 6.3959 13.8612ZM26.5731 19.3432C26.5461 19.249 26.5326 19.1412 26.5057 19.0469C26.2767 19.0334 25.9939 18.9257 25.8322 19.02C25.3608 19.3028 24.8894 19.6126 24.5257 20.0167C23.9331 20.6767 23.4212 21.4175 22.869 22.1314C22.6669 22.3873 22.4784 22.6432 22.1955 23.0338C22.4649 22.98 22.6131 23.0069 22.6669 22.9396C23.1788 22.3873 23.7041 21.8485 24.1755 21.2559C24.822 20.4343 25.3204 19.451 26.5731 19.3432Z" fill="white"/>
<path d="M15.0028 17.4439C16.0938 17.4439 17.1444 17.4169 18.1951 17.4573C18.7877 17.4843 19.0302 17.9288 19.0571 18.4675C19.0975 19.0467 18.7069 19.5451 18.1142 19.572C17.0906 19.6124 16.0669 19.5855 15.0028 19.5855C15.0028 18.8716 15.0028 18.2116 15.0028 17.4439Z" fill="white"/>
<path d="M14.9624 13.5781C15.9861 13.5781 16.929 13.5512 17.8583 13.5916C18.3836 13.6185 18.6934 13.9553 18.7069 14.521C18.7204 15.0867 18.451 15.4638 17.9257 15.5043C17.0636 15.5716 16.1747 15.5447 15.3126 15.5177C15.1914 15.5177 15.0028 15.2887 14.9894 15.1406C14.9355 14.6692 14.9624 14.1843 14.9624 13.5781Z" fill="white"/>
<path fill-rule="evenodd" clip-rule="evenodd" d="M16.5 31.6531C24.8688 31.6531 31.6531 24.8688 31.6531 16.5C31.6531 8.1312 24.8688 1.34694 16.5 1.34694C8.1312 1.34694 1.34694 8.1312 1.34694 16.5C1.34694 24.8688 8.1312 31.6531 16.5 31.6531ZM16.5 33C25.6127 33 33 25.6127 33 16.5C33 7.3873 25.6127 0 16.5 0C7.3873 0 0 7.3873 0 16.5C0 25.6127 7.3873 33 16.5 33Z" fill="#6CC5FF"/>
</svg>
