<svg width="128" height="31" viewBox="0 0 128 31" fill="none" xmlns="http://www.w3.org/2000/svg">
<path d="M45.358 21.5807C46.2268 21.671 46.8786 21.9786 47.3136 22.5036C47.7486 23.0286 47.966 23.7412 47.966 24.6415C47.966 27.0467 46.5408 28.2493 43.6902 28.2493H38.5438V15.6587H43.4389C44.8741 15.6587 45.8964 15.9212 46.5059 16.4461C47.1153 16.9711 47.42 17.761 47.42 18.8157C47.4379 19.4527 47.2449 20.0772 46.8722 20.5884C46.4924 21.0851 45.9584 21.4351 45.358 21.5807ZM42.933 17.9195H41.7974V20.8449H42.7848C43.2326 20.8449 43.5599 20.7262 43.7669 20.4886C43.974 20.2511 44.0775 19.8532 44.0775 19.2949C44.0775 18.8068 43.9902 18.457 43.8158 18.2456C43.6414 18.0341 43.3471 17.9255 42.933 17.9195ZM41.7974 25.9938H43.2784C43.7332 25.9938 44.0676 25.8625 44.2816 25.6C44.4956 25.3376 44.6026 24.926 44.6026 24.3654C44.6026 23.8167 44.4921 23.4205 44.2711 23.1771C44.0502 22.9336 43.7065 22.8095 43.2401 22.8047H41.7974V25.9938Z" fill="white"/>
<path d="M49.1452 21.9603C49.1452 19.7963 49.6104 18.1685 50.5408 17.0769C51.4712 15.9854 52.8256 15.4402 54.6038 15.4414C56.3879 15.4414 57.744 15.9902 58.6721 17.0876C59.6002 18.1851 60.0654 19.8093 60.0677 21.9603C60.0677 24.1185 59.6025 25.7415 58.6721 26.8295C57.7417 27.9174 56.3855 28.4614 54.6038 28.4614C52.8128 28.4614 51.4549 27.9174 50.5303 26.8295C49.6057 25.7415 49.144 24.1185 49.1452 21.9603ZM56.5228 21.9603C56.5403 21.1482 56.4571 20.337 56.2751 19.5463C56.1169 18.9524 55.9047 18.5307 55.6383 18.2813C55.3482 18.0428 54.9874 17.9121 54.6149 17.9105C54.2425 17.9088 53.8806 18.0365 53.5884 18.2724C53.3187 18.51 53.1029 18.9364 52.9413 19.5516C52.7606 20.3413 52.6791 21.1514 52.6988 21.9621C52.6796 22.7679 52.7592 23.5729 52.936 24.3584C53.0942 24.9523 53.3065 25.3757 53.5728 25.6287C53.8565 25.8857 54.2267 26.0205 54.6056 26.0046C54.9725 26.0157 55.3307 25.889 55.6121 25.6483C56.2192 25.1007 56.5228 23.8714 56.5228 21.9603Z" fill="white"/>
<path d="M65.7184 28.4436C64.125 28.4436 62.9561 28.0671 62.2118 27.3141C61.4675 26.5611 61.1547 25.5123 61.2733 24.1678L64.2948 23.9326C64.1959 25.3911 64.6996 26.1204 65.8056 26.1204C66.2405 26.1204 66.565 26.0135 66.779 25.7997C66.8896 25.684 66.9745 25.5454 67.0281 25.3932C67.0817 25.2411 67.1026 25.079 67.0895 24.9178C67.0915 24.7393 67.0564 24.5624 66.9867 24.3988C66.9169 24.2351 66.814 24.0884 66.6849 23.9682C66.3036 23.636 65.8693 23.3733 65.4008 23.1914L64.5477 22.8191C63.5406 22.3547 62.7672 21.8511 62.2275 21.3083C61.6344 20.7061 61.3378 19.9222 61.3378 18.9566C61.3208 18.4645 61.4195 17.9754 61.6256 17.5303C61.8317 17.0852 62.1392 16.697 62.5224 16.3982C63.3062 15.771 64.4588 15.4575 65.9801 15.4575C67.5338 15.4575 68.6532 15.7948 69.3383 16.4694C70.0233 17.1441 70.3228 18.1685 70.2367 19.5427L67.1454 19.7868C67.1977 19.0397 67.1285 18.5005 66.9378 18.1691C66.7471 17.8377 66.4016 17.672 65.9015 17.672C65.0781 17.672 64.6664 18.0515 64.6664 18.8105C64.6636 18.9855 64.6954 19.1593 64.7599 19.3216C64.8243 19.4838 64.9201 19.6311 65.0414 19.7547C65.3978 20.0857 65.8121 20.345 66.2626 20.519L67.0931 20.8896C68.3108 21.4443 69.1702 22.0257 69.6715 22.6338C70.1798 23.2602 70.4467 24.0547 70.4217 24.8679C70.4217 25.9773 70.0233 26.8515 69.2266 27.4905C68.43 28.1295 67.2606 28.4472 65.7184 28.4436Z" fill="white"/>
<path d="M82.0732 28.2546H78.7062L78.2317 25.8227H75.1299L74.6554 28.2546H71.2884L74.2542 15.6587H79.104L82.0732 28.2546ZM75.8417 22.1972L75.6045 23.4265H77.7677L77.5304 22.1972C77.2082 20.5153 76.935 19.0443 76.7105 17.7841H76.6617C76.5558 18.4101 76.2825 19.8835 75.8417 22.2043V22.1972Z" fill="white"/>
<path d="M88.0781 23.4799V21.3189H93.0064V28.2547H91.2985L90.8536 26.8899C90.2477 27.9387 89.1941 28.4631 87.6925 28.4631C86.0794 28.4631 84.8286 27.9084 83.9401 26.7991C83.0515 25.6897 82.6072 24.0613 82.6072 21.9139C82.6072 19.8651 83.0352 18.2889 83.8912 17.1855C84.7925 16.0287 86.2376 15.4502 88.2264 15.4502C89.5161 15.4502 90.5629 15.7412 91.3665 16.3232C92.1702 16.9052 92.6936 17.7539 92.9366 18.8691L90.1226 19.9541C89.9885 19.3883 89.7435 18.8562 89.4022 18.3899C89.2687 18.2233 89.0996 18.0903 88.9078 18.001C88.7161 17.9117 88.5068 17.8686 88.2962 17.875C87.8575 17.858 87.4266 17.9951 87.075 18.2634C86.7726 18.5164 86.5487 18.9321 86.4034 19.5105C86.2368 20.2869 86.1572 21.08 86.1661 21.8747C86.1508 22.6968 86.2305 23.5178 86.4034 24.3209C86.5545 24.9147 86.7872 25.3459 87.1012 25.6143C87.4605 25.8937 87.9042 26.0361 88.3555 26.017C89.0463 26.017 89.5597 25.7574 89.8959 25.2384V23.4942L88.0781 23.4799Z" fill="white"/>
<path d="M94.4002 21.9601C94.4002 19.7961 94.8654 18.1683 95.7959 17.0768C96.7263 15.9852 98.0841 15.4395 99.8696 15.4395C101.654 15.4395 103.01 15.9882 103.939 17.0857C104.868 18.1831 105.334 19.8074 105.335 21.9584C105.335 24.1165 104.869 25.7395 103.939 26.8275C103.009 27.9155 101.651 28.4595 99.8656 28.4595C98.0748 28.4595 96.717 27.9155 95.7924 26.8275C94.8678 25.7395 94.4038 24.1171 94.4002 21.9601ZM101.778 21.9601C101.795 21.1481 101.714 20.3369 101.532 19.5461C101.374 18.9522 101.161 18.5305 100.896 18.2811C100.605 18.0426 100.245 17.9119 99.8715 17.9103C99.4993 17.9086 99.137 18.0363 98.8456 18.2722C98.5758 18.5098 98.3597 18.9362 98.1981 19.5514C98.0174 20.3411 97.9359 21.1512 97.9557 21.9619C97.9364 22.7677 98.016 23.5727 98.1928 24.3582C98.3511 24.9521 98.563 25.3755 98.8298 25.6285C99.1134 25.8855 99.4836 26.0203 99.8627 26.0044C100.23 26.016 100.589 25.8892 100.871 25.6481C101.475 25.1005 101.778 23.8712 101.778 21.9601Z" fill="white"/>
<path d="M114.381 22.965L116.535 28.2546H113.046L111.327 23.5441H110.093V28.2546H106.884V15.6587H112.08C113.521 15.6587 114.562 15.9871 115.2 16.6439C115.839 17.3007 116.162 18.2681 116.169 19.5461C116.169 21.1805 115.572 22.3201 114.381 22.965ZM111.683 17.9765H110.103V21.3224H111.545C112.026 21.3224 112.375 21.1882 112.593 20.9198C112.809 20.6513 112.917 20.1976 112.914 19.5586C112.914 18.9802 112.819 18.5716 112.632 18.3329C112.445 18.0941 112.129 17.9771 111.683 17.9819V17.9765Z" fill="white"/>
<path d="M128 28.2546H124.632L124.157 25.8227H121.056L120.582 28.2546H117.215L120.181 15.6587H125.031L128 28.2546ZM121.768 22.1972L121.531 23.4265H123.687L123.45 22.1972C123.128 20.5153 122.854 19.0443 122.631 17.7841H122.582C122.48 18.4101 122.209 19.8835 121.768 22.2043V22.1972Z" fill="white"/>
<path d="M15.2647 0L3.9252 6.77011H26.4297L15.2647 0Z" fill="white"/>
<path d="M30.3549 8.99707H0V13.4208H2.18067L1.48285 28.862H0V30.9999H30.3549V28.862H28.7848L28.2614 13.4208H30.3549V8.99707ZM12.0373 28.8032H8.19932L7.67595 13.2426H12.5606L12.0373 28.8032ZM22.447 28.8032H18.6089L18.0856 13.2444H22.9703L22.447 28.8032Z" fill="white"/>
</svg>
