<?xml version="1.0" encoding="UTF-8"?> <svg xmlns="http://www.w3.org/2000/svg" width="148" height="22" viewBox="0 0 148 22" fill="none"><path d="M27.4131 5.66437V11.9761H21.1487V6.48368C21.1487 6.26907 21.0631 6.06324 20.9108 5.91149C20.7584 5.75974 20.5518 5.67448 20.3364 5.67448H18.2246V20.7154C18.2246 20.93 18.3102 21.1358 18.4625 21.2876C18.6148 21.4393 18.8214 21.5246 19.0368 21.5246H21.1487V14.5251H27.4131V20.7154C27.4131 20.93 27.4986 21.1358 27.651 21.2876C27.8033 21.4393 28.0099 21.5246 28.2253 21.5246H30.3371V6.48368C30.3371 6.26907 30.2515 6.06324 30.0992 5.91149C29.9469 5.75974 29.7403 5.67448 29.5249 5.67448L27.4131 5.66437Z" fill="#1A2041"></path><path d="M39.6779 9.40692V16.9223C39.6808 17.2585 39.5951 17.5895 39.4295 17.8824C39.2638 18.1752 39.0239 18.4197 38.7337 18.5913C38.4052 18.8036 38.0254 18.924 37.6341 18.9397C37.2428 18.9555 36.8545 18.8662 36.5098 18.681C36.1651 18.4959 35.8768 18.2218 35.675 17.8874C35.4732 17.5531 35.3654 17.1708 35.3629 16.7807V10.2161C35.3629 10.0015 35.2773 9.79568 35.125 9.64393C34.9727 9.49218 34.7661 9.40692 34.5507 9.40692H32.4287V17.0538C32.4341 18.2379 32.9086 19.372 33.749 20.2093C34.5894 21.0466 35.7278 21.5193 36.9163 21.5246H38.1144C38.7064 21.5273 39.2931 21.4138 39.841 21.1905C40.389 20.9673 40.8874 20.6387 41.3079 20.2235C41.7284 19.8084 42.0627 19.3148 42.2917 18.7709C42.5207 18.2271 42.6399 17.6436 42.6426 17.0538V10.2161C42.6426 10.0015 42.557 9.79568 42.4047 9.64393C42.2524 9.49218 42.0458 9.40692 41.8304 9.40692H39.6779Z" fill="#1A2041"></path><path d="M72.2283 21.5246H74.3401V10.8837C74.3401 10.669 74.2545 10.4632 74.1022 10.3115C73.9499 10.1597 73.7433 10.0745 73.5278 10.0745H71.416V20.7154C71.416 20.93 71.5016 21.1358 71.6539 21.2876C71.8062 21.4393 72.0128 21.5246 72.2283 21.5246Z" fill="#2483FF"></path><path d="M72.878 8.92138C73.2013 8.92138 73.5174 8.82587 73.7862 8.64693C74.055 8.46799 74.2645 8.21365 74.3882 7.91608C74.512 7.61851 74.5443 7.29107 74.4813 6.97517C74.4182 6.65927 74.2625 6.3691 74.0339 6.14135C73.8053 5.9136 73.514 5.7585 73.1969 5.69566C72.8798 5.63282 72.5512 5.66507 72.2525 5.78833C71.9538 5.91159 71.6985 6.12032 71.5189 6.38812C71.3393 6.65593 71.2434 6.97079 71.2434 7.29287C71.2434 7.72478 71.4156 8.139 71.7222 8.4444C72.0287 8.74981 72.4445 8.92138 72.878 8.92138Z" fill="#2483FF"></path><path d="M52.9173 16.4975C52.8594 17.1551 52.5562 17.7673 52.0675 18.2133C51.5789 18.6592 50.9402 18.9066 50.2775 18.9066C49.6149 18.9066 48.9762 18.6592 48.4876 18.2133C47.9989 17.7673 47.6957 17.1551 47.6378 16.4975V14.4745C47.6957 13.8168 47.9989 13.2046 48.4876 12.7587C48.9762 12.3127 49.6149 12.0654 50.2775 12.0654C50.9402 12.0654 51.5789 12.3127 52.0675 12.7587C52.5562 13.2046 52.8594 13.8168 52.9173 14.4745V16.4975ZM50.2775 9.417C49.5616 9.38021 48.8456 9.48766 48.1723 9.73292C47.4991 9.97819 46.8824 10.3562 46.3591 10.8444C45.8359 11.3327 45.4169 11.921 45.1272 12.5743C44.8375 13.2275 44.6831 13.9323 44.6731 14.6464V16.2952C44.6818 17.0079 44.8347 17.7116 45.1226 18.3641C45.4106 19.0166 45.8277 19.6046 46.349 20.0928C46.8704 20.581 47.4852 20.9594 48.1567 21.2055C48.8282 21.4515 49.5426 21.56 50.2572 21.5246C50.9718 21.56 51.6863 21.4515 52.3578 21.2055C53.0293 20.9594 53.6441 20.581 54.1654 20.0928C54.6868 19.6046 55.1039 19.0166 55.3918 18.3641C55.6798 17.7116 55.8327 17.0079 55.8414 16.2952V14.6464C55.8339 13.9342 55.6827 13.2307 55.3967 12.5779C55.1107 11.925 54.6958 11.3362 54.1767 10.8464C53.6575 10.3566 53.0448 9.97584 52.375 9.72681C51.7051 9.47777 50.9918 9.36553 50.2775 9.39677V9.417Z" fill="#1A2041"></path><path d="M66.1975 16.4975C66.1396 17.1551 65.8364 17.7673 65.3477 18.2133C64.8591 18.6592 64.2205 18.9066 63.5578 18.9066C62.8951 18.9066 62.2565 18.6592 61.7678 18.2133C61.2791 17.7673 60.976 17.1551 60.918 16.4975V14.4745C60.976 13.8168 61.2791 13.2046 61.7678 12.7587C62.2565 12.3127 62.8951 12.0653 63.5578 12.0653C64.2205 12.0653 64.8591 12.3127 65.3477 12.7587C65.8364 13.2046 66.1396 13.8168 66.1975 14.4745V16.4975ZM63.5578 9.41699C62.6445 9.41022 61.7418 9.61085 60.918 10.0037V6.46343C60.918 6.24882 60.8324 6.043 60.6801 5.89124C60.5278 5.73949 60.3212 5.65424 60.1058 5.65424H57.9736V16.2952C58.0595 17.7126 58.6852 19.044 59.723 20.0174C60.7608 20.9908 62.1324 21.5329 63.5578 21.5329C64.9831 21.5329 66.3548 20.9908 67.3926 20.0174C68.4304 19.044 69.0561 17.7126 69.1419 16.2952V14.6464C69.1345 13.9324 68.9827 13.2272 68.6954 12.5729C68.4082 11.9187 67.9914 11.3289 67.4701 10.8388C66.9488 10.3487 66.3337 9.96844 65.6614 9.72066C64.9892 9.47288 64.2737 9.36272 63.5578 9.39676V9.41699Z" fill="#2483FF"></path><path d="M124.557 16.5481C124.515 17.2108 124.222 17.8328 123.736 18.2875C123.25 18.7422 122.609 18.9953 121.942 18.9953C121.276 18.9953 120.634 18.7422 120.149 18.2875C119.663 17.8328 119.369 17.2108 119.328 16.5481V14.5251C119.369 13.8623 119.663 13.2403 120.149 12.7856C120.634 12.3309 121.276 12.0778 121.942 12.0778C122.609 12.0778 123.25 12.3309 123.736 12.7856C124.222 13.2403 124.515 13.8623 124.557 14.5251V16.5481ZM121.937 9.52829C121.026 9.52406 120.127 9.72824 119.308 10.1251V6.47358C119.305 6.26073 119.218 6.05749 119.066 5.90792C118.914 5.75835 118.709 5.67448 118.495 5.6745H116.404V16.3458C116.413 17.051 116.564 17.7472 116.849 18.3929C117.133 19.0386 117.546 19.6205 118.061 20.1039C118.577 20.5872 119.185 20.9622 119.849 21.2063C120.513 21.4504 121.22 21.5586 121.927 21.5246C122.634 21.5586 123.341 21.4504 124.005 21.2063C124.669 20.9622 125.277 20.5872 125.793 20.1039C126.308 19.6205 126.721 19.0386 127.005 18.3929C127.29 17.7472 127.442 17.051 127.45 16.3458V14.7173C127.441 14.0125 127.291 13.3167 127.006 12.6712C126.722 12.0257 126.311 11.4436 125.797 10.9596C125.283 10.4755 124.676 10.0994 124.013 9.85354C123.35 9.60767 122.644 9.49706 121.937 9.52829Z" fill="#1A2041"></path><path d="M148 21.474V19.6432C148 19.5409 147.98 19.4396 147.941 19.3451C147.901 19.2506 147.844 19.1648 147.771 19.0925C147.698 19.0201 147.612 18.9628 147.517 18.9236C147.423 18.8845 147.321 18.8643 147.218 18.8643H145.756C144.568 18.8643 144.619 18.2676 144.619 16.7402V6.46342C144.619 6.25686 144.537 6.05875 144.39 5.91269C144.244 5.76663 144.045 5.68457 143.837 5.68457H141.695V17.0841C141.695 19.8455 142.416 21.474 145.401 21.474C146.558 21.474 147.431 21.474 148 21.474Z" fill="#1A2041"></path><path d="M91.9149 12.0469H86.3003V13.5844C86.3003 13.8071 86.3891 14.0206 86.5471 14.178C86.7051 14.3355 86.9195 14.4239 87.143 14.4239H89.8335V15.7793C89.8657 16.1894 89.814 16.6017 89.6813 16.9912C89.5487 17.3807 89.3379 17.7392 89.0619 18.0451C88.4006 18.6609 87.5365 19.0151 86.6317 19.0411C85.727 19.0672 84.8437 18.7634 84.1478 18.1867C83.3762 17.4382 83.2138 16.629 83.2138 13.6046C83.2138 10.5803 83.3762 9.79129 84.1478 9.04278C84.8645 8.41258 85.7813 8.0544 86.7369 8.03129C89.7828 8.03129 90.8691 9.1237 91.6509 10.1251H91.7524V7.94025C91.7466 7.7696 91.7003 7.60275 91.6174 7.45332C91.5345 7.30389 91.4172 7.17613 91.2752 7.08048C89.908 6.0202 88.1888 5.51433 86.4627 5.66439C84.782 5.62059 83.1478 6.21753 81.8939 7.33336C80.2085 8.89106 80.2085 10.6207 80.2085 13.4832V13.726C80.2085 16.5885 80.2085 18.3182 81.9142 19.8455C83.2222 20.9434 84.8838 21.5344 86.594 21.5103C88.3041 21.4861 89.9482 20.8484 91.2245 19.714C92.3311 18.7026 92.7779 16.6796 92.7779 14.5251V12.8865C92.7779 12.7745 92.7555 12.6636 92.7119 12.5604C92.6682 12.4572 92.6043 12.3638 92.5239 12.2855C92.4435 12.2073 92.3482 12.1459 92.2436 12.1049C92.139 12.0639 92.0272 12.0442 91.9149 12.0469Z" fill="#1A2041"></path><path d="M101.144 21.474V19.6432C101.144 19.5401 101.123 19.4379 101.084 19.3428C101.044 19.2476 100.985 19.1613 100.911 19.0889C100.838 19.0164 100.75 18.9592 100.654 18.9207C100.558 18.8822 100.456 18.863 100.352 18.8643H98.89C97.7022 18.8643 97.7529 18.2676 97.7529 16.7402V6.46342C97.7529 6.25686 97.6706 6.05875 97.5239 5.91269C97.3773 5.76663 97.1785 5.68457 96.9711 5.68457H94.8289V17.0841C94.8289 19.8455 95.5396 21.474 98.5347 21.474C99.6921 21.474 100.565 21.474 101.134 21.474H101.144Z" fill="#1A2041"></path><path d="M111.388 16.548C111.347 17.2108 111.053 17.8328 110.568 18.2875C110.082 18.7422 109.441 18.9953 108.774 18.9953C108.108 18.9953 107.466 18.7422 106.98 18.2875C106.495 17.8328 106.201 17.2108 106.16 16.548V14.525C106.201 13.8623 106.495 13.2403 106.98 12.7856C107.466 12.3309 108.108 12.0778 108.774 12.0778C109.441 12.0778 110.082 12.3309 110.568 12.7856C111.053 13.2403 111.347 13.8623 111.388 14.525V16.548ZM108.779 9.52827C108.071 9.49564 107.365 9.60521 106.7 9.85045C106.036 10.0957 105.428 10.4716 104.913 10.9558C104.397 11.4399 103.985 12.0225 103.701 12.6687C103.416 13.3149 103.265 14.0116 103.256 14.7172V16.3559C103.341 17.7575 103.96 19.0739 104.987 20.0364C106.013 20.9988 107.37 21.5347 108.779 21.5347C110.189 21.5347 111.545 20.9988 112.571 20.0364C113.598 19.0739 114.217 17.7575 114.302 16.3559V14.7172C114.294 14.0116 114.142 13.3149 113.858 12.6687C113.573 12.0225 113.161 11.4399 112.645 10.9558C112.13 10.4716 111.522 10.0957 110.858 9.85045C110.194 9.60521 109.487 9.49564 108.779 9.52827Z" fill="#1A2041"></path><path d="M136.7 16.0929V19.1273C136.476 19.1273 136.222 19.2083 135.958 19.2285C135.313 19.2868 134.664 19.2834 134.019 19.2184C133.762 19.1974 133.51 19.1288 133.278 19.0161C133.062 18.9094 132.876 18.7492 132.74 18.5508C132.587 18.2947 132.516 17.9983 132.537 17.7011C132.518 17.4535 132.567 17.2056 132.678 16.9831C132.789 16.7607 132.957 16.572 133.166 16.4368C133.79 16.1081 134.493 15.9576 135.197 16.0018C135.441 16.0018 135.738 16.0018 136.09 16.0018L136.7 16.0929ZM138.263 10.5398C137.154 9.78893 135.824 9.43257 134.486 9.52826C133.851 9.53044 133.217 9.57437 132.588 9.65976C132.07 9.73056 131.319 9.83171 130.811 9.94297C130.598 9.94297 130.567 10.1554 130.567 10.3476V11.9053C130.567 12.1784 130.567 12.4312 130.862 12.3604C131.41 12.229 132.476 11.9963 132.77 11.9457C133.261 11.8686 133.756 11.8314 134.253 11.8345C134.902 11.7915 135.549 11.943 136.111 12.2694C136.326 12.4575 136.492 12.6947 136.594 12.9608C136.697 13.2268 136.733 13.5137 136.7 13.7968V13.8878H136.222C135.898 13.8878 135.478 13.8878 134.963 13.8878C134.28 13.8829 133.598 13.961 132.933 14.1204C132.324 14.2653 131.744 14.5115 131.217 14.8487C130.723 15.1648 130.31 15.5907 130.009 16.0929C129.705 16.622 129.551 17.2232 129.562 17.8326C129.548 18.4286 129.68 19.019 129.948 19.5522C130.206 20.0361 130.583 20.4468 131.044 20.7457C131.558 21.0731 132.13 21.2997 132.73 21.4133C133.439 21.5534 134.16 21.6212 134.882 21.6156C135.451 21.6156 139.583 21.5549 139.583 19.5926V13.8575C139.634 13.2415 139.542 12.6222 139.315 12.0471C139.088 11.472 138.731 10.9564 138.273 10.5398H138.263Z" fill="#1A2041"></path><path d="M9.46267 6.7669C9.46267 3.61103 7.90926 0.90023 6.74167 0C6.74167 0 6.65029 0 6.66044 0.0708046C6.55891 6.13977 3.43179 7.81885 1.71594 10.0441C0.944611 10.9841 0.414694 12.097 0.172011 13.2868C-0.0706716 14.4765 -0.0188163 15.7073 0.323093 16.8726C0.665003 18.0379 1.28668 19.1027 2.13436 19.9749C2.98204 20.8471 4.03022 21.5005 5.18826 21.8786C7.28993 22.4653 4.70092 20.8671 4.36587 17.4382C3.9699 13.3214 9.46267 10.1756 9.46267 6.7669Z" fill="#1A2041"></path><path d="M11.2597 8.84045C11.2597 8.84045 11.1988 8.84045 11.1785 8.84045C10.815 10.2494 10.1881 11.5774 9.33061 12.7549C5.94967 17.8731 7.87874 20.331 8.95495 21.6561C9.58444 22.4248 8.95495 21.6561 10.5287 20.8671C11.486 20.2874 12.2923 19.4904 12.8816 18.5412C13.4709 17.5919 13.8267 16.5173 13.9198 15.4051C14.0187 14.1802 13.8298 12.9492 13.368 11.8097C12.9063 10.6702 12.1844 9.65362 11.2597 8.84045Z" fill="#2483FF"></path></svg> 