<svg width="171" height="25" viewBox="0 0 171 25" fill="none" xmlns="http://www.w3.org/2000/svg">
<path d="M31.658 6.47705V13.6361H24.379V7.38614C24.379 7.15887 24.2635 6.9316 24.1479 6.70432C23.9168 6.47705 23.6858 6.47705 23.4547 6.47705H21.0283V23.5225C21.0283 23.7498 21.1439 23.9771 21.2594 24.2043C21.4905 24.4316 21.7216 24.4316 21.9526 24.4316H24.379V16.4771H31.658V23.5225C31.658 23.7498 31.7736 23.9771 31.8891 24.2043C32.1202 24.4316 32.3513 24.4316 32.5824 24.4316H35.0087V7.38614C35.0087 7.15887 34.8932 6.9316 34.7776 6.70432C34.6621 6.47705 34.3155 6.47705 34.0844 6.47705H31.658Z" fill="white"/>
<path d="M45.8696 10.682V19.2047C45.8696 19.5456 45.7541 20.0002 45.6386 20.3411C45.4075 20.682 45.1764 20.9093 44.8298 21.1365C44.4832 21.3638 44.021 21.4774 43.5588 21.4774C43.0967 21.4774 42.6345 21.3638 42.2879 21.1365C41.9413 20.9093 41.5946 20.5684 41.3636 20.2274C41.1325 19.8865 41.0169 19.432 41.0169 18.9775V11.4775C41.0169 11.2502 40.9014 11.0229 40.7859 10.7956C40.5548 10.5684 40.3237 10.5684 40.0926 10.5684H37.6663V19.2047C37.6663 20.5684 38.244 21.8184 39.1683 22.8411C40.0926 23.7502 41.4791 24.3184 42.8656 24.3184H44.2521C44.9453 24.3184 45.6386 24.2047 46.2163 23.9774C46.794 23.7502 47.3717 23.2956 47.9494 22.8411C48.4115 22.3865 48.8737 21.8184 49.1048 21.1365C49.3359 20.5684 49.4514 19.8865 49.5669 19.2047V11.4775C49.5669 11.2502 49.4514 11.0229 49.3359 10.7956C49.1048 10.5684 48.8737 10.5684 48.6426 10.5684H45.8696V10.682Z" fill="white"/>
<path d="M83.4203 24.4316H85.8466V12.3861C85.8466 12.1589 85.7311 11.9316 85.6156 11.7043C85.3845 11.4771 85.1534 11.4771 84.9223 11.4771H82.496V23.5225C82.496 23.7498 82.6115 23.977 82.727 24.2043C82.9581 24.318 83.1892 24.4316 83.4203 24.4316Z" fill="#2483FF"/>
<path d="M84.2291 10.1135C84.5757 10.1135 84.9223 9.99991 85.2689 9.77264C85.6156 9.54537 85.8466 9.31809 85.9622 8.97718C86.0777 8.63627 86.1933 8.29537 86.0777 7.95446C85.9622 7.61355 85.8466 7.27264 85.6156 7.04537C85.3845 6.81809 85.0379 6.59082 84.6912 6.59082C84.3446 6.59082 83.998 6.59082 83.6514 6.70446C83.3048 6.81809 82.9581 7.04537 82.8426 7.38627C82.6115 7.72718 82.496 8.06809 82.496 8.409C82.496 8.86355 82.7271 9.31809 83.0737 9.77264C83.1892 9.88628 83.6514 10.1135 84.2291 10.1135Z" fill="#2483FF"/>
<path d="M61.1209 18.7498C61.0054 19.5453 60.6588 20.2271 60.1966 20.6816C59.6189 21.1362 58.9257 21.4771 58.1169 21.4771C57.3081 21.4771 56.6148 21.2498 56.0371 20.6816C55.4594 20.2271 55.1128 19.4316 55.1128 18.7498V16.4771C55.2284 15.6816 55.575 14.9998 56.0371 14.5453C56.6148 14.0907 57.3081 13.7498 58.1169 13.7498C58.9257 13.7498 59.6189 13.9771 60.1966 14.5453C60.7743 14.9998 61.1209 15.7953 61.1209 16.4771V18.7498ZM58.1169 10.6816C57.3081 10.6816 56.4993 10.7953 55.6905 11.0225C54.8817 11.2498 54.1885 11.7044 53.6108 12.2726C53.0331 12.8407 52.5709 13.5226 52.2243 14.2044C51.8777 14.9998 51.7621 15.7953 51.6466 16.5907V18.4089C51.6466 19.2044 51.8777 19.9998 52.1088 20.7953C52.4554 21.5907 52.9176 22.1589 53.4953 22.7271C54.073 23.2953 54.7662 23.7498 55.575 23.9771C56.3838 24.2044 57.1926 24.4316 58.0013 24.318C58.8101 24.318 59.6189 24.2044 60.4277 23.9771C61.2365 23.7498 61.9297 23.2953 62.5074 22.7271C63.0851 22.1589 63.5473 21.4771 63.8939 20.7953C64.2405 19.9998 64.3561 19.2044 64.3561 18.4089V16.5907C64.3561 15.7953 64.125 14.9998 63.8939 14.2044C63.5473 13.4089 63.0851 12.8407 62.5074 12.2726C61.9297 11.7044 61.2365 11.2498 60.4277 11.0225C59.7344 10.7953 58.9257 10.6816 58.1169 10.6816Z" fill="white"/>
<path d="M76.4879 18.7498C76.3723 19.5452 76.0257 20.2271 75.5635 20.6816C74.9858 21.1361 74.2926 21.4771 73.4838 21.4771C72.675 21.4771 71.9818 21.2498 71.4041 20.6816C70.8264 20.2271 70.4798 19.4316 70.4798 18.7498V16.4771C70.5953 15.6816 70.9419 14.9998 71.4041 14.5452C71.9818 14.0907 72.675 13.7498 73.4838 13.7498C74.2926 13.7498 74.9858 13.9771 75.5635 14.5452C76.1413 14.9998 76.4879 15.7952 76.4879 16.4771V18.7498ZM73.3683 10.6816C72.3284 10.6816 71.2886 10.9089 70.3642 11.3634V7.38614C70.3642 7.15887 70.2487 6.9316 70.1331 6.70432C69.9021 6.47705 69.671 6.47705 69.4399 6.47705H67.0135V18.5225C67.1291 20.1134 67.8223 21.5907 68.9777 22.7271C70.1331 23.8634 71.7507 24.4316 73.3683 24.4316C74.9858 24.4316 76.6034 23.8634 77.7588 22.7271C78.9142 21.5907 79.723 20.1134 79.723 18.5225V16.7043C79.723 15.9089 79.4919 15.1134 79.2608 14.318C78.9142 13.5225 78.4521 12.9543 77.8744 12.3861C77.2967 11.818 76.6034 11.3634 75.7946 11.1361C75.1014 10.7952 74.2926 10.6816 73.3683 10.6816Z" fill="#2483FF"/>
<path d="M143.848 18.7498C143.848 19.5452 143.501 20.2271 142.924 20.6816C142.346 21.1361 141.653 21.4771 140.844 21.4771C140.035 21.4771 139.342 21.1361 138.764 20.6816C138.187 20.1134 137.84 19.4316 137.84 18.7498V16.4771C137.84 15.6816 138.187 14.9998 138.764 14.5452C139.342 13.9771 140.035 13.7498 140.844 13.7498C141.653 13.7498 142.346 14.0907 142.924 14.5452C143.501 15.1134 143.848 15.7952 143.848 16.4771V18.7498ZM140.844 10.7952C139.804 10.7952 138.764 11.0225 137.84 11.4771V7.38614C137.84 7.15887 137.724 6.9316 137.609 6.70432C137.493 6.47705 137.147 6.47705 136.916 6.47705H134.489V18.6361C134.489 19.4316 134.72 20.2271 134.951 20.9089C135.298 21.5907 135.76 22.2725 136.338 22.8407C136.916 23.4089 137.609 23.8634 138.418 24.0907C139.226 24.318 140.035 24.5452 140.844 24.4316C141.653 24.4316 142.462 24.318 143.27 24.0907C144.079 23.8634 144.772 23.4089 145.35 22.8407C145.928 22.2725 146.39 21.5907 146.737 20.9089C147.083 20.2271 147.199 19.4316 147.199 18.6361V16.818C147.199 16.0225 146.968 15.2271 146.737 14.5452C146.39 13.8634 145.928 13.1816 145.35 12.6134C144.772 12.0452 144.079 11.5907 143.27 11.3634C142.462 10.9089 141.653 10.7952 140.844 10.7952Z" fill="white"/>
<path d="M171 24.4316V22.3861C171 22.2725 171 22.1589 170.885 22.0452C170.885 21.9316 170.769 21.818 170.653 21.7043C170.538 21.5907 170.422 21.5907 170.307 21.4771C170.191 21.4771 170.076 21.3634 169.96 21.3634H168.227C166.841 21.3634 166.956 20.6816 166.956 18.9771V7.38614C166.956 7.15887 166.841 6.9316 166.725 6.70432C166.61 6.59069 166.378 6.47705 166.032 6.47705H163.605V19.4316C163.605 22.6134 164.414 24.4316 167.88 24.4316C169.267 24.4316 170.307 24.4316 171 24.4316Z" fill="white"/>
<path d="M106.182 13.6362H99.7116V15.3408C99.7116 15.568 99.8271 15.7953 99.9426 16.0226C100.174 16.2499 100.405 16.2499 100.636 16.2499H103.755V17.8408C103.755 18.2953 103.755 18.7499 103.524 19.2044C103.409 19.6589 103.178 19.9999 102.831 20.4544C102.022 21.1362 101.098 21.5908 100.058 21.5908C99.0183 21.5908 97.9784 21.2499 97.1697 20.568C96.2453 19.7726 96.1298 18.7499 96.1298 15.3408C96.1298 11.9317 96.3609 11.0226 97.1697 10.1135C97.9784 9.43167 99.0183 8.97713 100.174 8.97713C103.64 8.97713 104.911 10.2271 105.835 11.3635H105.951V8.97713C105.951 8.74985 105.835 8.63622 105.835 8.40895C105.835 8.18167 105.604 8.06804 105.489 7.9544C103.871 6.7044 101.907 6.13622 99.9426 6.36349C97.9784 6.36349 96.1298 7.04531 94.6278 8.29531C92.6636 10.1135 92.6636 12.0453 92.6636 15.2271V15.4544C92.6636 18.7499 92.6636 20.6817 94.6278 22.3862C96.1298 23.6362 98.094 24.318 100.058 24.318C102.022 24.318 103.987 23.5226 105.373 22.2726C106.644 21.1362 107.222 18.8635 107.222 16.3635V14.5453C107.222 14.4317 107.222 14.318 107.106 14.2044C107.106 14.0908 106.991 13.9771 106.875 13.8635C106.76 13.7499 106.644 13.7499 106.528 13.6362C106.413 13.7499 106.297 13.6362 106.182 13.6362Z" fill="white"/>
<path d="M116.811 24.4316V22.3861C116.811 22.2725 116.811 22.1589 116.696 22.0452C116.696 21.9316 116.58 21.818 116.465 21.7043C116.349 21.5907 116.234 21.5907 116.118 21.4771C116.003 21.3634 115.887 21.3634 115.772 21.3634H114.038C112.652 21.3634 112.768 20.6816 112.768 18.9771V7.38614C112.768 7.15887 112.652 6.9316 112.536 6.70432C112.421 6.59069 112.19 6.47705 111.843 6.47705H109.417V19.4316C109.417 22.6134 110.226 24.4316 113.692 24.4316C115.194 24.4316 116.118 24.4316 116.811 24.4316Z" fill="white"/>
<path d="M128.712 18.75C128.712 19.5454 128.366 20.2272 127.788 20.6818C127.21 21.25 126.517 21.4772 125.708 21.4772C124.899 21.4772 124.206 21.1363 123.628 20.6818C123.051 20.1136 122.704 19.4318 122.704 18.75V16.4772C122.704 15.6818 123.051 15 123.628 14.5454C124.206 13.9772 124.899 13.75 125.708 13.75C126.517 13.75 127.21 14.0909 127.788 14.5454C128.366 15.1136 128.712 15.7954 128.712 16.4772V18.75ZM125.708 10.7954C124.899 10.7954 124.091 10.909 123.282 11.1363C122.473 11.3636 121.78 11.8181 121.202 12.3863C120.624 12.9545 120.162 13.6363 119.816 14.3181C119.469 15 119.353 15.7954 119.353 16.5909V18.409C119.469 20 120.162 21.4772 121.318 22.6136C122.473 23.75 124.091 24.3181 125.708 24.3181C127.326 24.3181 128.943 23.75 130.099 22.6136C131.254 21.4772 131.947 20 132.063 18.409V16.5909C132.063 15.7954 131.832 15 131.601 14.3181C131.254 13.6363 130.792 12.9545 130.214 12.3863C129.636 11.8181 128.943 11.3636 128.134 11.1363C127.326 10.909 126.517 10.7954 125.708 10.7954Z" fill="white"/>
<path d="M157.944 18.2955V21.7046C157.713 21.7046 157.366 21.8182 157.135 21.8182C156.442 21.9319 155.633 21.9319 154.94 21.8182C154.593 21.8182 154.362 21.7046 154.131 21.591C153.9 21.4773 153.669 21.25 153.553 21.0228C153.322 20.6819 153.322 20.341 153.322 20.1137C153.322 19.8864 153.322 19.5455 153.438 19.3182C153.553 19.091 153.784 18.8637 154.016 18.75C154.709 18.4091 155.518 18.1819 156.326 18.2955C156.557 18.2955 156.904 18.2955 157.366 18.2955H157.944ZM159.677 11.9319C158.406 11.0228 156.904 10.6819 155.286 10.7955C154.593 10.7955 153.784 10.7955 153.091 10.9091C152.513 11.0228 151.589 11.1364 151.011 11.25C150.78 11.25 150.78 11.4773 150.78 11.7046V13.5228C150.78 13.8637 150.78 14.091 151.127 14.091C151.705 13.9773 152.976 13.6364 153.322 13.6364C153.9 13.5228 154.478 13.5228 155.055 13.5228C155.749 13.5228 156.557 13.6364 157.251 13.9773C157.482 14.2046 157.713 14.4319 157.828 14.7728C157.944 15.1137 157.944 15.4546 157.944 15.6819V15.7955H157.366C157.02 15.7955 156.557 15.7955 155.864 15.7955C155.055 15.7955 154.247 15.9091 153.553 16.0228C152.86 16.1364 152.167 16.4773 151.589 16.8182C151.011 17.1591 150.549 17.6137 150.203 18.1819C149.856 18.75 149.625 19.4319 149.741 20.1137C149.741 20.7955 149.856 21.4773 150.203 22.0455C150.549 22.6137 150.896 23.0682 151.474 23.4091C152.051 23.7501 152.745 24.091 153.438 24.2046C154.247 24.3182 155.055 24.4319 155.98 24.4319C156.673 24.4319 161.41 24.3182 161.41 22.1591V15.6819C161.526 15 161.41 14.3182 161.063 13.6364C160.717 12.9546 160.255 12.5 159.677 11.9319Z" fill="white"/>
<path d="M10.8609 7.72727C10.8609 4.09091 9.01221 1.02273 7.74127 0C7.74127 0 7.62573 0 7.62573 0.113636C7.51019 6.93182 3.92843 8.86364 1.96424 11.3636C1.03992 12.3864 0.462213 13.75 0.231132 15C5.12153e-05 16.3636 5.12153e-05 17.7273 0.462213 19.0909C0.808835 20.4545 1.61762 21.5909 2.54194 22.6136C3.46627 23.6364 4.73721 24.3182 6.1237 24.7727C8.55005 25.4545 5.546 23.6364 5.19938 19.7727C4.50613 15.1136 10.8609 11.5909 10.8609 7.72727Z" fill="white"/>
<path d="M12.9405 10C12.4784 11.5909 11.6696 13.0682 10.7453 14.4318C6.81689 20.2273 9.01216 23.0682 10.2831 24.5455C10.9764 25.4545 10.2831 24.5455 12.1318 23.6364C13.2872 22.9545 14.2115 22.0455 14.9047 21.0227C15.598 20 15.9446 18.75 16.0601 17.5C16.1757 16.1364 15.9446 14.6591 15.3669 13.4091C14.9047 12.1591 14.0959 11.0227 12.9405 10Z" fill="#2483FF"/>
</svg>
