<svg width="151" height="37" viewBox="0 0 151 37" fill="none" xmlns="http://www.w3.org/2000/svg">
<path d="M44.5313 4.20531V15.9551H48.2146V8.16928L56.3018 15.9551H59.9851V4.20531H56.3018V11.5963L48.695 4.20531H44.5313Z" fill="white"/>
<path d="M62.613 4.20531V15.9551H75.3283V13.223H66.2963V11.2962H74.96V8.61148H66.2963V6.87428H75.1682V4.20531H62.613Z" fill="white"/>
<path d="M85.5394 16.1288C91.6409 16.1288 92.8579 12.1175 92.8579 9.90648V4.20531H89.1266V9.68538C89.1266 11.2015 88.422 13.0808 85.2191 13.0808C81.9682 13.0808 81.2796 11.2015 81.2796 9.68538V4.20531H77.5323V9.90648C77.5323 12.1175 78.5732 16.1288 84.9629 16.1288H85.5394Z" fill="white"/>
<path d="M99.0672 6.87428H104.72C105.809 6.87428 106.226 7.39544 106.226 8.01135V8.02715C106.226 8.67465 105.793 9.18002 104.72 9.18002H99.0672V6.87428ZM99.0672 11.7858H103.936C105.777 11.7858 106.418 12.4175 106.418 13.8547V15.2128C106.418 15.6392 106.482 15.813 106.594 15.9551H110.389V15.8761C110.277 15.6866 110.165 15.3866 110.165 14.439V12.7176C110.165 11.2015 109.124 10.3645 107.907 10.017C108.692 9.76435 110.117 9.13264 110.117 7.44282V7.2533C110.117 5.56348 108.916 4.20531 104.944 4.20531H95.3359V15.9551H99.0672V11.7858Z" fill="white"/>
<path d="M120.343 4C112.801 4 111.952 7.71129 111.952 9.81173V10.2855C111.952 12.3544 112.801 16.1604 120.343 16.1604H121.032C128.543 16.1604 129.407 12.3544 129.407 10.2855V9.81173C129.407 7.71129 128.527 4 121.032 4H120.343ZM125.5 10.1434C125.5 11.5015 124.683 13.3019 120.68 13.3019C116.644 13.3019 115.859 11.4542 115.859 10.1118V9.92227C115.859 8.57989 116.58 6.84269 120.68 6.84269C124.715 6.84269 125.5 8.57989 125.5 9.92227V10.1434Z" fill="white"/>
<path d="M131.546 4.20531V15.9551H135.23V8.16928L143.317 15.9551H147V4.20531H143.317V11.5963L135.71 4.20531H131.546Z" fill="white"/>
<path d="M51.6162 31C57.6215 31 58.6672 28.1016 58.6672 26.7917V26.6384H55.177C55.0922 26.8753 54.7531 28.4778 51.3477 28.4778C48.2815 28.4778 47.4478 26.8614 47.4478 25.6351V25.4679C47.4478 24.172 48.1684 22.7785 51.3195 22.7785C54.6542 22.7785 55.0781 24.2277 55.1629 24.5064H58.653V24.3531C58.653 23.1408 57.7063 20.2702 51.6162 20.2702H51.0369C44.8196 20.2702 44 23.517 44 25.3982V25.8023C44 27.6417 44.9467 31 51.0369 31H51.6162Z" fill="white"/>
<path d="M60.5164 30.8188H63.8087V26.736H70.8738V30.8188H74.1662V20.4514H70.8738V24.2277H63.8087V20.4514H60.5164V30.8188Z" fill="white"/>
<path d="M84.9062 26.5827H80.9215L82.8715 22.6949L84.9062 26.5827ZM87.1105 30.8188H90.6572L85.0334 20.4514H80.7661L75.4531 30.8188H78.802L79.7487 28.9237H86.1214L87.1105 30.8188Z" fill="white"/>
<path d="M95.2346 20.4514H91.9423V30.8188H95.2346V20.4514Z" fill="white"/>
<path d="M97.5475 20.4514V30.8188H100.797V23.949L107.933 30.8188H111.183V20.4514H107.933V26.9729L101.221 20.4514H97.5475Z" fill="white"/>
<path d="M16.5 0L32.5215 9.25V27.75L16.5 37L0.478516 27.75V9.25L16.5 0Z" fill="url(#paint0_linear_700_6180)"/>
<path d="M32.5215 9.25L16.5 0L0.478516 9.25L32.5215 27.75V9.25Z" fill="url(#paint1_linear_700_6180)"/>
<defs>
<linearGradient id="paint0_linear_700_6180" x1="0.499999" y1="10.5" x2="24" y2="34.5" gradientUnits="userSpaceOnUse">
<stop stop-color="#1372EC"/>
<stop offset="0.46875" stop-color="#0035D9"/>
<stop offset="1" stop-color="#080097"/>
</linearGradient>
<linearGradient id="paint1_linear_700_6180" x1="1.5" y1="9.5" x2="29" y2="25" gradientUnits="userSpaceOnUse">
<stop stop-color="#2FBEE0"/>
<stop offset="0.130208" stop-color="#20A1FC"/>
<stop offset="0.505208" stop-color="#3E43FD"/>
<stop offset="1" stop-color="#3001A9"/>
</linearGradient>
</defs>
</svg>
