<svg width="116" height="30" viewBox="0 0 116 30" fill="none" xmlns="http://www.w3.org/2000/svg">
<path d="M15.77 0.0154848C20.3224 0.0154848 24.8747 0.0463331 29.4427 6.06352e-05C31.882 -0.0153635 33.4823 2.91523 32.4724 4.95122C31.4936 6.91009 30.2506 8.73014 29.2562 10.6736C28.6503 11.8612 27.8579 12.8638 26.7081 13.4499C25.6516 13.9744 24.4552 14.4834 23.3055 14.5451C19.9495 14.6839 16.5779 14.5913 13.2064 14.5913C13.0199 14.5913 12.8024 14.5296 12.6626 14.6067C12.3052 14.8073 11.9945 15.0695 11.6682 15.3008C12.01 15.5476 12.3518 16.0103 12.6937 16.0103C15.0242 16.072 17.3548 16.0875 19.6854 16.0258C21.3167 15.9949 22.5442 16.6427 23.1501 18.0926C23.6473 19.2648 23.6162 20.5296 22.9326 21.7173C22.0004 23.3214 21.0992 24.9409 20.167 26.5605C19.763 27.27 19.3591 27.9795 18.9396 28.6736C17.8675 30.4319 16.1429 30.4165 15.133 28.689C13.3151 25.5579 11.4973 22.4422 9.695 19.3111C8.35881 17.0283 7.06923 14.7147 5.74857 12.4165C4.14825 9.65559 2.57901 6.89466 0.94761 4.16459C0.512571 3.4705 -0.0156906 2.85353 -0.000153462 1.95893C0.0153836 0.632451 0.590256 0.0154848 1.94198 0.0154848C6.5565 6.06347e-05 11.1555 0.0154848 15.77 0.0154848Z" fill="url(#paint0_linear_698_79)"/>
<path d="M81.1191 14.3908C81.1191 12.4936 81.1502 10.5965 81.1036 8.6993C81.088 7.66588 81.6474 7.03349 82.4553 6.63246C83.2943 6.23143 84.1488 6.50907 84.8169 7.11061C85.0811 7.3574 85.2054 7.83555 85.2209 8.20573C85.283 9.05406 85.2364 9.90239 85.2364 10.7507C85.2364 11.4757 85.3918 11.5682 85.9822 11.2134C88.4992 9.67102 92.2126 10.5656 93.7041 13.3728C94.0304 13.9898 94.2169 14.7302 94.2169 15.4242C94.2324 16.689 94.4655 17.9846 93.8906 19.2186C92.9584 21.2546 91.3891 22.3034 89.1052 22.5811C87.971 22.7199 86.8523 22.5965 85.8579 21.9024C85.6559 21.7636 85.1743 21.7636 84.9568 21.9024C84.0867 22.4731 83.1389 22.4731 82.2999 22.0566C81.4609 21.6402 81.0414 20.869 81.088 19.8356C81.1657 18.0463 81.1191 16.2109 81.1191 14.3908ZM90.1306 16.396C90.3481 15.6248 89.8043 15.0695 89.2139 14.5296C88.5148 13.8818 87.6758 13.743 86.728 14.1903C85.9667 14.5605 85.4384 15.1158 85.5472 16.0566C85.5938 16.5194 85.5472 16.9821 85.5627 17.4448C85.5938 18.0926 86.4173 19.0181 87.0543 19.126C88.7944 19.4191 90.1306 18.2931 90.1306 16.396Z" fill="url(#paint1_linear_698_79)"/>
<path d="M70.3208 11.3831C70.6937 11.2597 70.9112 11.2134 71.1132 11.1209C73.4593 9.99493 75.619 10.4114 77.53 12.1389C79.3634 13.8047 79.6742 15.9178 79.2081 18.0463C78.5555 20.9924 76.0851 22.8895 72.9 22.581C72.294 22.5193 71.7347 22.18 71.1288 22.072C70.7093 21.9949 70.2431 22.0875 69.8081 22.1029C68.9691 22.1337 68.099 22.3034 67.3066 22.1646C66.5764 22.0412 66.219 21.3625 66.219 20.5759C66.219 16.4422 66.2346 12.3086 66.219 8.17488C66.219 7.32655 66.7318 6.89467 67.3843 6.63246C68.0369 6.38568 68.7516 6.32398 69.3731 6.81755C70.0412 7.34197 70.4296 7.95894 70.3519 8.86897C70.2742 9.67102 70.3208 10.4577 70.3208 11.3831ZM74.9198 16.581H74.9043C74.9043 16.3497 74.9043 16.1183 74.9043 15.887C74.9198 14.252 73.0864 13.4654 71.7658 14.144C70.7714 14.653 70.2276 15.5168 70.2897 16.7816C70.3519 17.8921 71.02 18.4474 71.7658 18.9564C72.7135 19.5888 74.5314 18.8792 74.8421 17.7996C74.9509 17.4294 74.8887 16.9975 74.9198 16.581Z" fill="url(#paint2_linear_698_79)"/>
<path d="M63.4845 16.5811C63.4845 17.8921 63.5 19.2032 63.4845 20.5142C63.469 21.6556 62.8475 22.288 61.6977 22.288C60.952 22.288 60.1285 22.5194 59.5847 21.7019C59.5225 21.6248 59.103 21.7019 58.9011 21.8098C57.2697 22.7199 55.5917 22.8895 53.8515 22.1954C51.9094 21.4088 50.3712 19.635 50.3557 17.414C50.3557 16.1954 50.2003 14.9769 50.7286 13.7739C51.8628 11.1672 55.2188 9.85612 57.627 10.7507C58.3883 11.0284 59.072 11.306 59.9731 10.9204C60.5946 10.6428 61.4958 10.7199 62.1638 10.9358C63.1738 11.2597 63.4845 11.5374 63.4845 12.6479C63.4845 13.9744 63.4845 15.2854 63.4845 16.5811ZM59.3672 16.5965C59.3672 15.0232 58.3883 13.9744 56.9278 13.9744C55.545 13.9744 54.473 15.1003 54.473 16.5502C54.473 18.0155 55.5295 19.1415 56.9123 19.1415C58.3417 19.1415 59.3516 18.0772 59.3672 16.5965Z" fill="url(#paint3_linear_698_79)"/>
<path d="M107.998 18.0618C108.371 19.1415 109.319 19.2649 110.174 19.4191C110.577 19.4962 111.028 19.3111 111.463 19.2803C112.131 19.234 112.799 19.1415 113.467 19.1877C114.104 19.234 114.4 19.6967 114.446 20.2983C114.493 20.8998 114.462 21.5168 113.825 21.8253C111.215 23.1363 108.573 22.8587 106.134 21.5168C104.471 20.6068 103.275 19.1415 103.508 16.9975C103.601 16.0875 103.446 15.1003 103.757 14.2674C104.347 12.6325 105.652 11.6453 107.284 10.9821C110.065 9.85612 113.188 10.7044 114.85 12.5091C115.674 13.4191 116.124 14.5913 116.015 15.887C115.969 16.4114 115.689 16.6273 115.176 16.7199C113.281 17.0746 111.401 17.4757 109.521 17.8304C109.024 17.9538 108.527 17.9847 107.998 18.0618ZM110.034 13.6659C108.666 13.6659 108.154 14.0361 107.734 15.0849C107.501 15.671 107.734 15.8098 108.231 15.7327C109.366 15.5476 110.5 15.3317 111.618 15.0849C111.696 15.0695 111.805 14.653 111.727 14.4988C111.339 13.7893 110.702 13.5425 110.034 13.6659Z" fill="url(#paint4_linear_698_79)"/>
<path d="M49.3923 12.8176C48.9884 13.8972 48.6 14.9924 48.1649 16.0566C47.6056 17.4448 46.9841 18.8176 46.4403 20.2057C45.9897 21.3625 45.1818 22.0412 43.9854 22.2726C42.4939 22.5502 41.3131 22.0104 40.5828 20.7302C39.9613 19.635 39.4797 18.4474 38.967 17.2906C38.4698 16.18 38.0347 15.0386 37.5531 13.9127C37.2579 13.2186 37.1336 12.5091 37.5842 11.8613C38.0813 11.1672 38.7028 10.6427 39.6661 10.8124C40.645 10.9821 41.0334 11.7224 41.3441 12.5245C41.8413 13.8047 42.3385 15.0849 42.8823 16.3497C42.9755 16.5656 43.2397 16.7199 43.4261 16.905C43.597 16.7044 43.8301 16.5194 43.9388 16.288C44.5759 14.8227 45.1041 13.3111 45.8033 11.8613C46.3005 10.8278 47.2793 10.5193 48.3514 10.8741C49.3147 11.1826 49.1593 12.0001 49.1904 12.725C49.2525 12.7713 49.3302 12.8021 49.3923 12.8176Z" fill="url(#paint5_linear_698_79)"/>
<path d="M96.3455 13.7739C96.3455 12.0001 96.4231 10.2263 96.3144 8.45251C96.2367 7.09519 97.3865 6.49364 98.3808 6.49364C99.484 6.47822 100.463 7.41909 100.463 8.54506C100.478 11.4756 100.463 14.4062 100.463 17.3368C100.463 18.8947 100.572 19.0335 102.048 19.5116C102.141 19.5425 102.312 19.5733 102.327 19.635C102.436 20.2983 102.638 20.9769 102.56 21.6248C102.529 21.9641 102.063 22.4422 101.69 22.5348C99.919 23.0438 97.5574 22.0566 96.6717 20.4834C96.4542 20.0978 96.361 19.6196 96.361 19.1723C96.3144 17.3677 96.3455 15.5631 96.3455 13.7739Z" fill="url(#paint6_linear_698_79)"/>
<defs>
<linearGradient id="paint0_linear_698_79" x1="44.9795" y1="22.8" x2="43.155" y2="0.00392243" gradientUnits="userSpaceOnUse">
<stop stop-color="#3895CE"/>
<stop offset="1" stop-color="#84C2F5"/>
</linearGradient>
<linearGradient id="paint1_linear_698_79" x1="44.9795" y1="22.8" x2="43.155" y2="0.00392243" gradientUnits="userSpaceOnUse">
<stop stop-color="#3895CE"/>
<stop offset="1" stop-color="#84C2F5"/>
</linearGradient>
<linearGradient id="paint2_linear_698_79" x1="44.9795" y1="22.8" x2="43.155" y2="0.00392243" gradientUnits="userSpaceOnUse">
<stop stop-color="#3895CE"/>
<stop offset="1" stop-color="#84C2F5"/>
</linearGradient>
<linearGradient id="paint3_linear_698_79" x1="44.9795" y1="22.8" x2="43.155" y2="0.00392243" gradientUnits="userSpaceOnUse">
<stop stop-color="#3895CE"/>
<stop offset="1" stop-color="#84C2F5"/>
</linearGradient>
<linearGradient id="paint4_linear_698_79" x1="44.9795" y1="22.8" x2="43.155" y2="0.00392243" gradientUnits="userSpaceOnUse">
<stop stop-color="#3895CE"/>
<stop offset="1" stop-color="#84C2F5"/>
</linearGradient>
<linearGradient id="paint5_linear_698_79" x1="44.9795" y1="22.8" x2="43.155" y2="0.00392243" gradientUnits="userSpaceOnUse">
<stop stop-color="#3895CE"/>
<stop offset="1" stop-color="#84C2F5"/>
</linearGradient>
<linearGradient id="paint6_linear_698_79" x1="44.9795" y1="22.8" x2="43.155" y2="0.00392243" gradientUnits="userSpaceOnUse">
<stop stop-color="#3895CE"/>
<stop offset="1" stop-color="#84C2F5"/>
</linearGradient>
</defs>
</svg>
