<svg width="202" height="33" viewBox="0 0 202 33" fill="none" xmlns="http://www.w3.org/2000/svg">
<g clip-path="url(#clip0_244_206)">
<path d="M177.084 14.2753C180.624 9.06187 187.461 8.87081 189.218 14.3572C190.002 13.2381 190.812 12.2008 191.92 11.4912C194.217 10.0172 196.676 9.74426 199.108 10.9998C201.405 12.1735 201.946 14.4118 201.973 16.7591C202.027 20.5259 201.946 24.2926 202.027 28.0867C202.054 29.5333 201.297 29.6698 200.135 29.6971C198.946 29.7244 198.406 29.3423 198.433 28.0594C198.487 24.9204 198.46 21.7815 198.46 18.6425C198.46 18.0966 198.433 17.5507 198.379 17.0048C198.217 15.6673 197.946 14.3299 196.514 13.8113C194.893 13.2108 193.38 13.6475 192.109 14.7393C190.353 16.2678 189.704 18.315 189.623 20.5805C189.569 23.0917 189.569 25.5755 189.623 28.0867C189.65 29.506 188.894 29.6971 187.732 29.6971C186.516 29.7244 186.029 29.2877 186.029 28.0321C186.083 24.8385 186.056 21.6723 186.056 18.4787C186.056 18.1512 186.083 17.851 186.056 17.5234C185.948 16.0495 185.786 14.5209 184.219 13.8385C182.57 13.1289 181.003 13.5929 179.679 14.712C177.976 16.1859 177.247 18.1785 177.193 20.3894C177.111 22.9006 177.192 25.3845 177.165 27.8956C177.165 29.4515 176.949 29.5879 175.301 29.6425C173.977 29.6971 173.571 29.1785 173.598 27.8956C173.652 22.7641 173.652 17.6326 173.598 12.4738C173.598 11.2182 173.95 10.6177 175.274 10.6723C176.787 10.7542 177.057 10.9452 177.084 12.5011C177.084 13.0197 177.084 13.4564 177.084 14.2753Z" fill="url(#paint0_linear_244_206)"/>
<path d="M104.418 14.4389C106.715 11.0543 109.58 9.74409 113.228 10.4538C115.822 10.9451 117.336 12.5009 117.66 15.094C118.227 19.5158 117.876 23.9922 117.876 28.4414C117.876 29.9699 116.606 29.6424 115.66 29.6696C114.552 29.7242 114.255 29.0692 114.255 28.1411C114.255 25.2751 114.255 22.4091 114.255 19.5431C114.255 18.6696 114.255 17.8235 114.201 16.95C114.012 14.4935 112.498 13.2652 110.093 13.62C106.797 14.1113 104.581 16.8409 104.527 20.6076C104.5 23.1188 104.473 25.6027 104.527 28.1138C104.554 29.4513 103.932 29.6969 102.797 29.6969C101.608 29.6969 100.932 29.4513 100.959 28.0319C101.014 22.8185 100.986 17.5778 100.959 12.3644C100.959 11.0816 101.527 10.7267 102.689 10.7267C103.824 10.7267 104.554 11.027 104.445 12.3371C104.391 12.9103 104.418 13.5108 104.418 14.4389Z" fill="url(#paint1_linear_244_206)"/>
<path d="M59.3704 26.9675C60.6405 27.022 62.0998 26.367 63.451 25.4116C64.1266 24.9203 64.7751 24.7838 65.2886 25.6027C65.775 26.367 66.1263 27.0766 65.2345 27.8682C62.5592 30.2702 57.5869 30.8434 54.0198 29.1511C50.5338 27.4861 48.3179 23.6647 48.6151 19.8434C48.9394 15.3397 51.3175 12.0369 55.2359 10.8086C58.3976 9.79872 61.4513 10.099 64.2887 11.9278C65.1535 12.4737 65.6399 13.0742 64.9643 14.1387C64.3157 15.1759 63.6672 15.2578 62.6403 14.6027C59.6137 12.7193 56.1547 13.1287 54.0198 15.4761C51.885 17.8235 51.7228 21.7541 53.6955 24.429C54.9656 26.2032 56.7762 26.9675 59.3704 26.9675Z" fill="url(#paint2_linear_244_206)"/>
<path d="M139.792 10.2628C142.143 10.2628 144.035 10.836 145.791 11.9824C146.764 12.6102 146.872 13.2926 146.251 14.2479C145.656 15.1487 145.035 15.3124 144.116 14.6847C142.251 13.3745 140.197 13.0742 138.063 13.7839C134.387 14.9849 132.631 19.2976 134.225 23.037C135.739 26.6673 140.035 28.0593 143.683 26.1214C144.089 25.903 144.467 25.6847 144.845 25.4117C145.521 24.9204 146.116 24.7293 146.683 25.5755C147.197 26.3397 147.575 27.1313 146.629 27.841C143.386 30.3249 139.792 30.8162 136.063 29.3968C132.577 28.0593 130.577 25.3571 130.145 21.6177C129.685 17.4415 131.009 14.0023 134.658 11.7095C136.279 10.6722 138.117 10.2355 139.792 10.2628Z" fill="url(#paint3_linear_244_206)"/>
<path d="M38.2381 19.0792C38.2381 17.6598 38.2111 16.2678 38.2381 14.8484C38.2652 14.1114 38.076 13.7293 37.2653 13.8112C36.2654 13.8931 35.779 13.4291 35.752 12.3918C35.725 11.3546 36.2384 10.8087 37.2112 10.8906C38.2111 10.9452 38.3192 10.4539 38.2922 9.66231C38.2381 8.78886 38.2922 7.9427 38.2922 7.06925C38.2652 5.75908 39.0488 5.51342 40.1568 5.54072C41.2377 5.54072 41.9133 5.78637 41.8323 7.06925C41.7782 8.02459 41.8593 8.97992 41.8052 9.93526C41.7782 10.6176 41.9944 10.9452 42.724 10.8906C43.4537 10.8633 44.1563 10.8633 44.8859 10.8906C45.8587 10.9179 46.3452 11.3819 46.3452 12.4464C46.3181 13.5109 45.8047 13.8385 44.8319 13.8658C41.8323 13.9477 41.8052 13.9477 41.8323 16.9501C41.8323 19.0519 41.7782 21.1263 41.9674 23.2281C42.1565 25.3571 43.1294 26.367 45.2102 26.5854C46.6424 26.7492 46.7235 27.5407 46.6694 28.6325C46.6154 29.8881 45.7236 29.9154 44.8319 29.8881C41.1026 29.8062 38.4543 27.2405 38.2652 23.4737C38.2111 21.9998 38.2652 20.5531 38.2381 19.0792C38.2652 19.0792 38.2652 19.0792 38.2381 19.0792Z" fill="url(#paint4_linear_244_206)"/>
<path d="M28.5638 20.1712C28.5638 17.6327 28.5367 15.0943 28.5638 12.5285C28.5638 11.0273 28.888 10.727 30.4284 10.727C31.9417 10.727 32.2389 11 32.2389 12.5558C32.2389 17.6327 32.2389 22.737 32.2389 27.8139C32.2389 29.397 31.9687 29.6427 30.4554 29.6427C28.807 29.6427 28.5638 29.4243 28.5638 27.7593C28.5638 25.2481 28.5638 22.7097 28.5638 20.1712Z" fill="url(#paint5_linear_244_206)"/>
<path d="M92.2309 20.1436C92.2309 17.5505 92.285 14.9575 92.2039 12.3917C92.1769 11.1361 92.6633 10.6994 93.8793 10.7267C94.9873 10.754 95.798 10.8632 95.798 12.3098C95.771 17.5778 95.771 22.8458 95.798 28.1138C95.798 29.5605 95.0143 29.6696 93.8793 29.6969C92.6633 29.7242 92.1769 29.3148 92.2039 28.0592C92.2579 25.4116 92.2309 22.7912 92.2309 20.1436Z" fill="url(#paint6_linear_244_206)"/>
<path d="M126.362 27.841C126.362 29.5333 126.172 29.6971 124.335 29.6698C122.605 29.6698 122.524 29.5606 122.524 27.6499C122.524 25.9303 122.713 25.7666 124.524 25.7939C126.199 25.7939 126.362 25.9849 126.362 27.841Z" fill="url(#paint7_linear_244_206)"/>
<path d="M95.825 5.13123C95.825 6.68706 95.5007 6.98731 93.8793 6.96002C92.4201 6.93272 92.0688 6.55059 92.0958 4.94017C92.1228 3.52081 92.4741 3.19327 94.0144 3.19327C95.6088 3.19327 95.825 3.43893 95.825 5.13123Z" fill="url(#paint8_linear_244_206)"/>
<path d="M32.293 5.04941C32.293 6.60524 31.9417 6.96008 30.4013 6.93278C28.888 6.93278 28.5367 6.55065 28.5638 4.96752C28.5638 3.49358 28.9151 3.16603 30.4013 3.16603C31.9957 3.16603 32.293 3.46628 32.293 5.04941Z" fill="url(#paint9_linear_244_206)"/>
<path d="M18.9697 15.7772C19.2129 15.5589 19.348 15.4497 19.4831 15.3405C21.9422 13.539 22.5368 11.0279 21.9152 8.18915C21.2937 5.45962 19.4291 3.87649 16.6727 3.38518C15.889 3.2487 15.0513 3.11222 14.2676 3.16682C13.1326 3.2487 12.7543 2.86657 12.8624 1.72017C12.9164 1.11967 13.0515 0.409991 12.1598 0.164334C10.16 -0.381572 9.18719 0.24622 9.16017 2.26607C9.13314 3.33059 8.48458 3.11222 7.89007 3.11222C7.26853 3.11222 6.59294 3.30329 6.64699 2.23878C6.67401 1.63828 6.94425 0.819421 6.37675 0.437287C5.51201 -0.16321 4.45809 0.109743 3.51227 0.273515C2.78264 0.409991 2.86371 1.17426 2.91776 1.74746C2.99883 2.73009 2.80966 3.35788 1.64766 3.13952C0.431604 2.92116 0.134346 3.49436 0.134346 4.66806C0.134346 5.81446 0.350534 6.44225 1.62063 6.22389C2.75562 6.03282 2.94478 6.57873 2.94478 7.61595C2.89073 13.5663 2.89073 19.544 2.94478 25.4944C2.94478 26.5316 2.72859 27.0229 1.62063 26.8591C1.16124 26.8045 0.593744 26.6954 0.296487 27.2413C-0.406122 28.4695 0.40458 29.9708 1.78277 29.9162C2.75562 29.8616 3.05287 30.2164 2.9718 31.1445C2.91776 31.7177 2.75562 32.482 3.4312 32.7276C4.32298 33.0552 5.32284 33.0279 6.21461 32.7549C7.05234 32.482 6.72806 31.5812 6.70104 30.9534C6.61996 29.8889 7.2415 29.9162 7.94411 29.9162C8.64672 29.9162 9.29528 29.8616 9.21421 30.9261C9.16017 31.5266 8.91695 32.3455 9.61956 32.673C10.5384 33.0824 11.5923 33.0279 12.5111 32.7276C13.2407 32.482 12.9434 31.6085 12.9164 31.008C12.8894 30.1891 13.1056 29.8343 13.9703 29.9162C14.781 29.9708 15.5917 29.9435 16.4024 29.8616C19.9155 29.5341 22.5097 27.1594 23.1313 23.8021C23.7258 20.3083 22.3476 17.5514 18.9697 15.7772ZM6.64699 7.09734C6.64699 6.55143 6.78211 6.22389 7.40364 6.25118C9.97087 6.30577 12.5381 6.06012 15.0783 6.38766C17.3753 6.66061 18.4562 8.18915 18.2941 10.7276C18.159 12.9385 16.7808 14.3579 14.5919 14.4125C13.4569 14.4398 12.3489 14.4125 11.2139 14.4125C9.99789 14.4125 8.78184 14.3852 7.56578 14.4125C6.8902 14.4398 6.59294 14.2487 6.61997 13.5117C6.67401 11.3554 6.67401 9.22637 6.64699 7.09734ZM15.943 26.7226C14.4297 27.0229 12.8894 26.7772 11.6463 26.8591C10.106 26.8591 8.86291 26.8318 7.59281 26.8591C6.91722 26.8864 6.64699 26.6681 6.64699 25.9311C6.67401 23.4199 6.67401 20.936 6.64699 18.4249C6.64699 17.7971 6.83615 17.5514 7.48471 17.5514C10.133 17.5787 12.8083 17.4968 15.4566 17.606C17.6725 17.6879 19.2399 19.4348 19.348 21.7276C19.4831 24.3753 18.213 26.2586 15.943 26.7226Z" fill="url(#paint10_linear_244_206)"/>
<path d="M78.0977 10.2628C72.4228 10.2628 67.9909 14.6301 68.0179 20.171C68.045 25.8211 72.4768 30.1884 78.1787 30.1611C83.8807 30.1338 88.2855 25.7665 88.2315 20.0891C88.1774 14.5209 83.7726 10.2628 78.0977 10.2628ZM78.1787 26.9675C74.5036 26.9948 71.7472 24.1288 71.7201 20.2529C71.6931 16.3224 74.3684 13.4837 78.0706 13.4564C81.7999 13.4291 84.5022 16.2405 84.5292 20.1437C84.5292 24.0742 81.8539 26.9402 78.1787 26.9675Z" fill="url(#paint11_linear_244_206)"/>
<path d="M159.465 10.2628C153.79 10.2628 149.304 14.6846 149.385 20.171C149.466 25.903 153.817 30.1884 159.546 30.1611C165.275 30.1338 169.599 25.7938 169.599 20.0891C169.572 14.5209 165.194 10.2628 159.465 10.2628ZM159.546 26.9675C155.871 26.9948 153.115 24.1288 153.088 20.2529C153.061 16.3497 155.763 13.4837 159.438 13.4564C163.194 13.4291 165.87 16.2132 165.87 20.1437C165.87 24.1015 163.248 26.9402 159.546 26.9675Z" fill="url(#paint12_linear_244_206)"/>
</g>
<defs>
<linearGradient id="paint0_linear_244_206" x1="202.028" y1="-13.6245" x2="66.1488" y2="117.618" gradientUnits="userSpaceOnUse">
<stop stop-color="#5AACF8"/>
<stop offset="1" stop-color="#395FE4"/>
</linearGradient>
<linearGradient id="paint1_linear_244_206" x1="202.028" y1="-13.6245" x2="66.1488" y2="117.618" gradientUnits="userSpaceOnUse">
<stop stop-color="#5AACF8"/>
<stop offset="1" stop-color="#395FE4"/>
</linearGradient>
<linearGradient id="paint2_linear_244_206" x1="202.028" y1="-13.6245" x2="66.1488" y2="117.618" gradientUnits="userSpaceOnUse">
<stop stop-color="#5AACF8"/>
<stop offset="1" stop-color="#395FE4"/>
</linearGradient>
<linearGradient id="paint3_linear_244_206" x1="202.028" y1="-13.6245" x2="66.1488" y2="117.618" gradientUnits="userSpaceOnUse">
<stop stop-color="#5AACF8"/>
<stop offset="1" stop-color="#395FE4"/>
</linearGradient>
<linearGradient id="paint4_linear_244_206" x1="202.028" y1="-13.6245" x2="66.1488" y2="117.618" gradientUnits="userSpaceOnUse">
<stop stop-color="#5AACF8"/>
<stop offset="1" stop-color="#395FE4"/>
</linearGradient>
<linearGradient id="paint5_linear_244_206" x1="202.028" y1="-13.6245" x2="66.1488" y2="117.618" gradientUnits="userSpaceOnUse">
<stop stop-color="#5AACF8"/>
<stop offset="1" stop-color="#395FE4"/>
</linearGradient>
<linearGradient id="paint6_linear_244_206" x1="202.028" y1="-13.6245" x2="66.1488" y2="117.618" gradientUnits="userSpaceOnUse">
<stop stop-color="#5AACF8"/>
<stop offset="1" stop-color="#395FE4"/>
</linearGradient>
<linearGradient id="paint7_linear_244_206" x1="202.028" y1="-13.6245" x2="66.1488" y2="117.618" gradientUnits="userSpaceOnUse">
<stop stop-color="#5AACF8"/>
<stop offset="1" stop-color="#395FE4"/>
</linearGradient>
<linearGradient id="paint8_linear_244_206" x1="202.028" y1="-13.6245" x2="66.1488" y2="117.618" gradientUnits="userSpaceOnUse">
<stop stop-color="#5AACF8"/>
<stop offset="1" stop-color="#395FE4"/>
</linearGradient>
<linearGradient id="paint9_linear_244_206" x1="202.028" y1="-13.6245" x2="66.1488" y2="117.618" gradientUnits="userSpaceOnUse">
<stop stop-color="#5AACF8"/>
<stop offset="1" stop-color="#395FE4"/>
</linearGradient>
<linearGradient id="paint10_linear_244_206" x1="202.028" y1="-13.6245" x2="66.1488" y2="117.618" gradientUnits="userSpaceOnUse">
<stop stop-color="#5AACF8"/>
<stop offset="1" stop-color="#395FE4"/>
</linearGradient>
<linearGradient id="paint11_linear_244_206" x1="202.028" y1="-13.6245" x2="66.1488" y2="117.618" gradientUnits="userSpaceOnUse">
<stop stop-color="#5AACF8"/>
<stop offset="1" stop-color="#395FE4"/>
</linearGradient>
<linearGradient id="paint12_linear_244_206" x1="202.028" y1="-13.6245" x2="66.1488" y2="117.618" gradientUnits="userSpaceOnUse">
<stop stop-color="#5AACF8"/>
<stop offset="1" stop-color="#395FE4"/>
</linearGradient>
<clipPath id="clip0_244_206">
<rect width="202" height="33" fill="white"/>
</clipPath>
</defs>
</svg>
