<svg width="190" height="32" viewBox="0 0 190 32" fill="none" xmlns="http://www.w3.org/2000/svg">
<path fill-rule="evenodd" clip-rule="evenodd" d="M27.9897 19.122C27.4199 19.4747 26.749 19.5184 26.239 19.2367C25.5911 18.8784 25.2349 18.0394 25.2349 16.8726V13.3815C25.2349 11.6956 24.5544 10.496 23.4164 10.1721C21.4879 9.62185 20.0376 11.9329 19.4926 12.8008L16.0915 18.2018V11.6004C16.0532 10.0816 15.5496 9.17307 14.5933 8.89912C13.9606 8.71805 13.0139 8.79063 12.0943 10.169L4.4745 22.1526C3.45439 20.2558 2.92261 18.1438 2.92536 16C2.92536 8.78127 8.83185 2.90888 16.0915 2.90888C23.3511 2.90888 29.2568 8.78127 29.2568 16C29.2568 16.0125 29.2599 16.0234 29.2607 16.0351C29.2607 16.0476 29.2584 16.0585 29.2591 16.071C29.3277 17.4689 28.8655 18.5811 27.9897 19.1227V19.122ZM32.1821 16.0008V16V15.9641L32.1813 15.9282C32.1407 7.13678 24.9392 0 16.0907 0C7.21896 0 0 7.17737 0 16C0 24.8219 7.21896 32 16.0915 32C20.1627 32 24.0483 30.4843 27.0311 27.7331C27.6239 27.1867 27.659 26.2665 27.1092 25.678C26.9797 25.5383 26.8232 25.4252 26.6486 25.3454C26.474 25.2657 26.2849 25.2209 26.0923 25.2136C25.8998 25.2063 25.7078 25.2368 25.5274 25.3031C25.3471 25.3695 25.1821 25.4704 25.042 25.6C22.6244 27.8423 19.4211 29.0917 16.0915 29.0911C12.2043 29.0911 8.70674 27.406 6.29458 24.7337L13.1661 13.927V18.9089C13.1661 21.3019 14.1136 22.0753 14.9081 22.3017C15.7034 22.528 16.9186 22.3735 18.1944 20.3442L21.974 14.343C22.0952 14.1495 22.2067 13.9824 22.3087 13.838V16.8726C22.3087 19.1095 23.2236 20.8983 24.8181 21.7795C26.2557 22.574 28.063 22.5022 29.5357 21.5922C31.3207 20.4878 32.2825 18.4531 32.1821 16.0008ZM54.5849 10.5342C54.9714 10.7645 55.3061 11.2765 55.3061 11.7378C55.3061 12.48 54.6622 13.0942 53.941 13.0942C53.7609 13.0942 53.5808 13.0435 53.4262 12.992C52.5759 12.3778 51.4946 11.968 50.3614 11.968C47.6839 11.968 45.8295 14.1182 45.8295 16.7805C45.8295 19.4435 47.6839 21.568 50.3614 21.568C51.7002 21.568 52.8851 21.0302 53.7864 20.2115C54.0193 20.0476 54.2981 19.9582 54.5849 19.9555C55.3061 19.9555 55.8727 20.5182 55.8727 21.2355C55.8727 21.696 55.589 22.1058 55.2288 22.336C53.941 23.4115 52.1903 24.128 50.3877 24.128C46.2678 24.128 42.9193 20.8 42.9193 16.704C42.9193 12.608 46.267 9.28 50.3877 9.28C51.9329 9.28 53.3999 9.74049 54.5849 10.5342ZM62.1186 13.632C64.9252 13.632 67.2944 15.9618 67.2944 18.8285C67.2944 21.696 64.9252 24.128 62.1186 24.128C59.1829 24.128 56.7365 21.696 56.7365 18.8285C56.7365 15.9618 59.1829 13.632 62.1186 13.632ZM62.0923 21.568C63.3291 21.568 64.3842 20.416 64.3842 18.8542C64.3842 17.2933 63.3291 16.32 62.0923 16.32C60.7536 16.32 59.6459 17.2675 59.6459 18.8542C59.6459 20.416 60.7536 21.568 62.0923 21.568ZM69.0595 22.5405V15.2195C69.0595 14.4258 69.7033 13.76 70.5018 13.76C71.3003 13.76 71.9697 14.4258 71.9697 15.2195V22.5405C71.9697 23.3342 71.3003 24 70.5018 24C69.7033 24 69.0595 23.3342 69.0595 22.5405ZM68.8284 10.9955C68.8284 10.048 69.5743 9.28 70.5018 9.28C71.4541 9.28 72.2271 10.048 72.2271 10.9955C72.2271 11.9165 71.4541 12.6595 70.5018 12.6595C69.5743 12.6595 68.8284 11.9165 68.8284 10.9955ZM77.5463 18.5725V22.5405C77.5463 23.3342 76.8769 24 76.0776 24C75.2799 24 74.6353 23.3342 74.6353 22.5405V14.8862C74.6353 14.272 75.1508 13.76 75.7692 13.76C76.3868 13.76 76.8769 14.272 76.8769 14.8862C78.0611 13.8115 79.0906 13.632 80.0692 13.632C82.9794 13.632 84.2672 15.7822 84.2672 18.2142V22.5405C84.2672 23.3342 83.5978 24 82.7993 24C82.0008 24 81.357 23.3342 81.357 22.5405V18.5725C81.357 17.3182 81.2024 16.2685 79.3743 16.2685C78.0866 16.2685 77.5455 17.3182 77.5455 18.5725H77.5463ZM93.7318 20.0835C93.3971 20.0835 93.166 19.9298 92.9851 19.7245L89.5856 16.1155V22.5405C89.5856 23.3342 88.9162 24 88.1177 24C87.3192 24 86.6754 23.3342 86.6754 22.5405V9.81854C86.717 9.71136 86.7914 9.61937 86.8884 9.55512C86.9853 9.49086 87.1002 9.45748 87.2172 9.45951C87.4738 9.45951 87.6794 9.66478 87.8348 9.81854L93.2425 15.783C93.3971 15.9625 93.6027 16.0648 93.7063 16.0648C93.8091 16.0648 94.0146 15.9625 94.1693 15.7838L99.5777 9.81854C99.7323 9.66478 99.9379 9.45951 100.195 9.45951C100.453 9.45951 100.659 9.61327 100.736 9.81854V22.5405C100.736 23.3342 100.092 24 99.294 24C98.4955 24 97.8261 23.3342 97.8261 22.5405V16.1155L94.4274 19.7245C94.2466 19.9298 94.0147 20.0835 93.7318 20.0835ZM107.729 21.568C109.042 21.568 110.149 20.416 110.149 18.8542C110.149 17.2933 109.017 16.2685 107.729 16.2685C106.441 16.2685 105.411 17.3182 105.411 18.8542C105.411 20.3645 106.441 21.568 107.729 21.568ZM110.819 22.8738L110.767 22.5405C110.201 23.641 108.398 24.128 107.239 24.128C104.509 24.128 102.501 21.696 102.501 18.8285C102.501 15.9618 104.561 13.632 107.394 13.632C107.883 13.632 109.505 13.76 110.767 15.2195L110.819 14.8862C110.819 14.272 111.308 13.76 111.926 13.76C112.544 13.76 113.059 14.272 113.059 14.8862V22.8738C113.059 23.488 112.544 24 111.925 24C111.308 24 110.818 23.488 110.818 22.8738H110.819ZM121.133 16.2685H120.825C118.996 16.3715 118.636 17.3955 118.636 18.5725V22.5405C118.636 23.3342 117.967 24 117.168 24C116.37 24 115.726 23.3342 115.726 22.5405V14.8862C115.726 14.272 116.241 13.76 116.859 13.76C117.477 13.76 117.967 14.272 117.967 14.8862C119.048 13.888 119.924 13.6835 120.825 13.632H121.108C121.804 13.632 122.447 14.2205 122.447 14.9635C122.447 15.6542 121.829 16.2685 121.133 16.2685ZM132.35 21.8755C132.479 22.08 132.556 22.3102 132.556 22.5662C132.556 23.3085 131.86 24 131.114 24C130.599 24 130.16 23.616 129.826 23.2062L126.479 19.392V22.5405C126.479 23.3342 125.809 24 125.01 24C124.212 24 123.568 23.3342 123.568 22.5405V10.919C123.568 10.1245 124.212 9.45951 125.01 9.45951C125.809 9.45951 126.478 10.1245 126.478 10.919V18.1635L129.826 14.528C130.16 14.144 130.572 13.76 131.088 13.76C131.809 13.76 132.479 14.4258 132.479 15.168C132.479 15.3982 132.427 15.6285 132.298 15.8338L129.646 18.6747L132.35 21.8747V21.8755ZM138.055 16.32C137.257 16.32 135.969 16.7298 135.969 17.9325H140.166C140.166 16.704 138.827 16.32 138.054 16.32H138.055ZM141.866 19.7502H135.969C135.969 21.4658 137.642 21.7218 138.389 21.7218C138.931 21.7218 139.703 21.6195 140.295 21.3627C140.475 21.2355 140.785 21.1325 141.042 21.1325C141.686 21.1325 142.226 21.671 142.226 22.311C142.226 22.7458 141.943 23.1298 141.583 23.3342C140.682 23.9742 139.522 24.128 138.415 24.128C135.48 24.128 133.033 22.567 133.033 18.9565C133.033 16.1155 134.527 13.632 138.003 13.632C140.81 13.632 142.947 15.424 142.999 18.624C142.999 19.2382 142.484 19.7502 141.866 19.7502ZM149.966 24.128H149.168C146.952 24.128 145.665 23.1805 145.665 19.776V16.2685H144.919C144.223 16.2685 143.605 15.6542 143.605 14.9635C143.605 14.2205 144.223 13.632 144.919 13.632H145.665V10.9182C145.665 10.1245 146.309 9.45873 147.108 9.45873C147.905 9.45873 148.576 10.1245 148.576 10.9182V13.632H149.785C150.481 13.632 151.099 14.2205 151.099 14.9635C151.099 15.6542 150.481 16.2685 149.785 16.2685H148.576V19.2125C148.576 21.1582 148.678 21.568 149.554 21.568H149.966C150.661 21.568 151.253 22.1315 151.253 22.848C151.253 23.5395 150.661 24.128 149.966 24.128ZM164.066 10.5342C164.452 10.7645 164.787 11.2765 164.787 11.7378C164.787 12.48 164.144 13.0942 163.422 13.0942C163.242 13.0942 163.061 13.0435 162.908 12.992C162.057 12.3778 160.976 11.968 159.843 11.968C157.165 11.968 155.31 14.1182 155.31 16.7805C155.31 19.4435 157.164 21.568 159.843 21.568C161.182 21.568 162.366 21.0302 163.268 20.2115C163.501 20.0476 163.779 19.9582 164.066 19.9555C164.787 19.9555 165.353 20.5182 165.353 21.2355C165.353 21.696 165.07 22.1058 164.71 22.336C163.422 23.4115 161.671 24.128 159.868 24.128C155.748 24.128 152.401 20.8 152.401 16.704C152.401 12.608 155.748 9.28 159.868 9.28C161.414 9.28 162.881 9.74049 164.066 10.5342ZM171.445 21.568C172.759 21.568 173.866 20.416 173.866 18.8542C173.866 17.2933 172.732 16.2685 171.445 16.2685C170.158 16.2685 169.127 17.3182 169.127 18.8542C169.127 20.3645 170.158 21.568 171.445 21.568H171.445ZM174.535 22.8738L174.484 22.5405C173.917 23.641 172.115 24.128 170.955 24.128C168.226 24.128 166.217 21.696 166.217 18.8285C166.217 15.9618 168.278 13.632 171.11 13.632C171.599 13.632 173.222 13.76 174.484 15.2195L174.535 14.8862C174.535 14.272 175.024 13.76 175.643 13.76C176.26 13.76 176.776 14.272 176.776 14.8862V22.8738C176.776 23.488 176.26 24 175.643 24C175.024 24 174.535 23.488 174.535 22.8738ZM184.772 21.568C186.06 21.568 187.09 20.3645 187.09 18.8542C187.09 17.3182 186.06 16.2685 184.772 16.2685C183.485 16.2685 182.352 17.2925 182.352 18.8542C182.352 20.416 183.459 21.568 184.772 21.568ZM182.352 23.2835V26.9182C182.352 27.712 181.682 28.3778 180.884 28.3778C180.086 28.3778 179.441 27.712 179.441 26.9182V14.8862C179.441 14.272 179.957 13.76 180.575 13.76C181.193 13.76 181.683 14.272 181.683 14.9885C182.764 13.888 184.103 13.632 185.107 13.632C187.94 13.632 190 15.9618 190 18.8285C190 21.696 187.992 24.128 185.262 24.128C184.412 24.128 183.15 23.872 182.352 23.2835Z" fill="white"/>
</svg>
