<svg width="224" height="39" viewBox="0 0 224 39" fill="none" xmlns="http://www.w3.org/2000/svg">
<g clip-path="url(#clip0_244_184)">
<path d="M10.3525 10.7974L17.2338 8.89057V12.22C17.4896 12.3463 17.6296 12.2712 17.7179 12.1539C19.7641 9.39284 23.9477 8.12061 28.0126 9.62443C30.625 10.5959 31.9374 12.7524 32.0317 15.3149C32.2205 20.6053 32.0896 25.9078 32.0896 31.2343H24.986C24.986 27.6522 24.986 24.1513 24.986 20.6534C24.986 19.7511 24.9373 18.8488 24.8551 17.9466C24.6937 16.2382 23.8807 15.2006 22.5806 14.966C20.6379 14.6141 18.9267 15.3119 18.1534 16.8067C17.7208 17.6579 17.5044 18.6003 17.5231 19.5526C17.5474 23.4054 17.5231 27.2582 17.5231 31.2072H10.3525V10.7974Z" fill="url(#paint0_linear_244_184)"/>
<path d="M128.73 8.88455V12.193C129.092 12.3524 129.199 12.1539 129.339 12.0125C132.079 9.05298 136.01 8.16573 139.691 9.70564C142.215 10.7553 143.443 12.8727 143.528 15.372C143.707 20.6203 143.583 25.8777 143.583 31.2253H136.531C136.531 29.532 136.558 27.8417 136.531 26.1574C136.473 23.4505 136.747 20.7437 136.372 18.0548C136.068 15.8803 135.279 15.0472 133.574 14.957C131.297 14.8337 129.856 15.742 129.293 17.6999C129.077 18.4725 128.975 19.2716 128.989 20.073C129.013 23.7693 128.989 27.4687 128.989 31.2433H121.9V10.7914L128.73 8.88455Z" fill="url(#paint1_linear_244_184)"/>
<path d="M76.4804 25.3784L82.3234 23.7964C82.8502 24.1212 82.7345 24.6476 82.9324 25.0386C84.0468 27.3214 87.4997 28.1966 89.5549 26.6627C90.8459 25.6912 90.712 24.1002 89.2352 23.4144C87.7585 22.7287 86.1295 22.5843 84.5644 22.2114C83.042 21.8384 81.5196 21.5317 80.0824 20.894C75.8531 19.0233 75.8897 12.987 79.5557 10.7824C81.7114 9.48909 84.0864 9.08005 86.5192 9.01087C89.0061 8.88928 91.4833 9.39544 93.7172 10.4816C95.3675 11.3117 96.5368 12.5539 96.963 14.4848C96.013 14.9389 94.9717 15.0863 93.9761 15.3871C92.9804 15.6878 91.933 15.9405 90.8216 16.2412C90.3131 15.3389 90.0178 14.2833 88.8729 13.9284C87.8161 13.5784 86.6836 13.515 85.5936 13.7449C84.8628 13.9043 84.2447 14.2051 84.1199 15.0382C83.995 15.8713 84.5553 16.3224 85.213 16.6503C86.8207 17.4503 88.5989 17.6157 90.3253 17.9736C91.1626 18.1481 92.006 18.3195 92.8312 18.5421C95.4041 19.2308 97.1762 20.8038 97.5659 23.4445C97.9922 26.3258 96.9295 28.8131 94.3049 30.1816C89.5823 32.6419 84.6832 32.6479 79.8754 30.338C77.7927 29.3425 76.8184 27.7424 76.4804 25.3784Z" fill="url(#paint2_linear_244_184)"/>
<path d="M47.4052 31.2794H39.0684L31.7608 9.6906H39.2785C40.5878 14.3404 41.896 18.9862 43.2033 23.628L43.4286 23.6761C44.7622 19.0113 46.0989 14.3524 47.4478 9.63045H54.7554L47.4052 31.2794Z" fill="url(#paint3_linear_244_184)"/>
<path d="M98.8113 5.61225L105.994 3.68134V9.53119H111.021C110.991 11.2064 110.223 12.5809 109.968 14.0938C108.707 14.5329 107.419 14.0938 106.009 14.3945C106.009 16.6473 106.009 18.924 106.009 21.2038C106.009 22.2565 105.97 23.3092 106.046 24.3588C106.134 25.5619 106.673 26.0371 107.891 26.0912C108.893 26.1363 109.894 26.0912 111.018 26.0912C110.747 27.8357 110.15 29.5079 109.657 31.3095C107.178 31.5711 104.718 31.7486 102.307 30.9877C99.9805 30.2568 98.9422 28.6628 98.8387 25.619C98.7625 23.4144 98.7991 21.2068 98.796 19.0022C98.8082 14.6171 98.8113 10.2079 98.8113 5.61225Z" fill="url(#paint4_linear_244_184)"/>
<path d="M7.7674 31.2373H0V4.13851L7.7674 1.98805V31.2373Z" fill="url(#paint5_linear_244_184)"/>
<path d="M119.327 31.2794H112.294V10.8275L119.327 8.88455V31.2794Z" fill="url(#paint6_linear_244_184)"/>
<path d="M214.999 19.2489C216.193 17.4924 217.718 16.5721 219.871 16.7255C222.158 16.8849 223.829 18.1511 223.915 20.3918C224.052 23.9829 223.951 27.58 223.951 31.1711C223.394 31.4027 222.907 31.2794 222.347 31.2674C222.137 30.5937 222.225 29.944 222.222 29.3124C222.222 26.6055 222.243 23.8987 222.185 21.1918C222.149 19.5105 221.4 18.5511 220.106 18.2714C218.327 17.8894 216.845 18.4488 216.019 19.8173C215.35 20.9331 215.219 22.1783 215.206 23.4265C215.182 25.9799 215.206 28.5394 215.206 31.0328C214.698 31.52 214.18 31.1651 213.73 31.3005C213.331 30.738 213.526 30.1726 213.51 29.6463C213.425 26.7439 213.629 23.8385 213.395 20.9241C213.3 19.7391 212.865 18.6894 211.684 18.3345C210.447 17.9646 209.156 18.0879 208.106 18.9962C207.234 19.7741 206.69 20.8479 206.583 22.0039C206.319 23.9498 206.459 25.9138 206.428 27.8567C206.41 28.9485 206.428 30.0403 206.428 31.0989C205.917 31.3341 205.332 31.3633 204.799 31.1802V17.4443C205.201 17.0713 205.682 17.0232 206.297 17.0623V19.1947C209.854 15.8352 212.835 15.8442 214.999 19.2489Z" fill="url(#paint7_linear_244_184)"/>
<path d="M185.949 26.383C186.457 26.2867 186.905 26.5213 187.355 26.7349C187.103 30.2959 183.479 32.9577 179.317 31.2223C176.68 30.1245 175.078 27.0447 175.301 23.7603C175.535 20.2414 177.182 17.8263 180.087 16.9961C183.802 15.9405 186.932 17.8774 187.313 21.1226L185.936 21.5347C185.495 21.3031 185.507 20.8459 185.343 20.503C185.09 19.9315 184.702 19.4287 184.21 19.0371C183.719 18.6455 183.139 18.3767 182.52 18.2536C181.902 18.1305 181.262 18.1567 180.655 18.33C180.049 18.5033 179.494 18.8185 179.037 19.2489C176.409 21.5918 176.458 26.9815 179.128 29.2823C181.345 31.1952 184.636 30.2177 185.598 27.3605C185.693 27.0326 185.589 26.6416 185.949 26.383Z" fill="url(#paint8_linear_244_184)"/>
<path d="M119.525 5.8709C117.467 6.7371 113.436 7.73864 112.184 7.70857V1.97602C114.503 1.10551 116.897 0.444141 119.337 0C119.863 2.12339 119.273 4.0573 119.525 5.8709Z" fill="url(#paint9_linear_244_184)"/>
<path d="M173.291 28.3951C173.51 29.3726 173.389 30.2418 173.404 31.1832C172.65 31.3577 171.867 31.3782 171.105 31.2433C170.925 30.341 171.029 29.4688 171.026 28.5364C171.811 28.2718 172.536 28.4582 173.291 28.3951Z" fill="url(#paint10_linear_244_184)"/>
<path d="M167.622 8.91463L161.112 10.7192C160.783 11.1704 161.112 11.6215 160.689 11.9614C159.632 10.635 158.417 9.63345 156.764 9.25449C152.833 8.32513 148.415 10.2169 146.591 13.9644C144.968 17.2939 145.002 20.6835 145.942 24.1904C147.687 30.6989 156.904 32.6118 160.521 27.6522C160.558 27.6011 160.704 27.6281 160.865 27.6131C160.937 28.6996 160.872 29.7908 160.67 30.8613C160.153 33.3547 158.575 34.5427 156.027 34.2961C154.282 34.1306 153.213 33.1231 152.507 31.4478L146.113 33.2043C146.883 35.7548 148.564 37.2887 150.912 38.1458C153.547 39.0743 156.387 39.2821 159.133 38.7474C164.251 37.8451 167.658 34.5186 167.719 29.4237C167.81 22.7618 167.777 16.0999 167.789 9.43796C167.757 9.25704 167.7 9.08111 167.622 8.91463ZM160.619 22.1482C160.395 22.9182 159.929 23.5983 159.29 24.091C158.651 24.5838 157.87 24.8639 157.059 24.8912C154.986 24.9874 153.71 24.2536 153.006 22.4851C152.591 21.5184 152.401 20.472 152.45 19.4231C152.499 18.3741 152.786 17.3494 153.29 16.4247C154.614 13.9284 158.387 13.7659 159.97 16.1059C160.722 17.2187 160.975 18.4819 160.972 19.9557C161.072 20.6234 160.829 21.3993 160.603 22.1572L160.619 22.1482Z" fill="url(#paint11_linear_244_184)"/>
<path d="M66.4659 27.168C64.1944 27.4176 61.3262 26.5183 60.9517 24.431L75.9993 20.2865C75.9749 17.1766 75.2898 14.4036 73.1067 12.211C69.87 8.95674 65.8874 8.38529 61.6094 9.48307C56.0251 10.9207 52.1856 15.9405 53.2848 22.7588C53.7963 25.9709 55.3492 28.6086 58.2783 30.2538C63.2871 33.0659 70.8718 32.305 75.4664 28.5274C74.8818 26.9093 74.3612 25.219 73.533 23.5197C71.7487 25.5991 69.2129 26.9082 66.4659 27.168ZM64.1579 13.8772C65.9056 13.4862 68.5577 14.7795 69.0296 17.3962L60.297 19.8023C59.9834 16.8428 61.6033 14.4366 64.1579 13.8772Z" fill="url(#paint12_linear_244_184)"/>
<path d="M201.733 20.891C200.713 18.0909 198.582 16.7104 195.592 16.7405C192.772 16.7706 190.772 18.2744 189.758 21.0956C189.369 22.086 189.203 23.1484 189.274 24.2085C189.166 25.1427 189.28 26.0889 189.605 26.9725C190.44 29.3786 191.898 31.129 194.605 31.6223C197.16 32.0854 199.255 31.3215 200.737 29.2974C202.628 26.7258 202.802 23.8295 201.733 20.891ZM199.742 27.7214C198.914 29.3184 197.589 30.2658 195.762 30.2628C193.865 30.2628 192.474 29.2643 191.731 27.577C190.695 25.225 190.659 22.834 191.938 20.5241C192.778 19.0203 194.069 18.1691 195.863 18.1992C197.595 18.2293 198.816 19.0714 199.632 20.5391C200.293 21.6511 200.61 22.9296 200.546 24.2175C200.602 25.4356 200.324 26.6462 199.742 27.7214Z" fill="url(#paint13_linear_244_184)"/>
</g>
<defs>
<linearGradient id="paint0_linear_244_184" x1="223.987" y1="-16.0943" x2="63.8988" y2="128.809" gradientUnits="userSpaceOnUse">
<stop stop-color="#5AACF8"/>
<stop offset="1" stop-color="#395FE4"/>
</linearGradient>
<linearGradient id="paint1_linear_244_184" x1="223.987" y1="-16.0943" x2="63.8988" y2="128.809" gradientUnits="userSpaceOnUse">
<stop stop-color="#5AACF8"/>
<stop offset="1" stop-color="#395FE4"/>
</linearGradient>
<linearGradient id="paint2_linear_244_184" x1="223.987" y1="-16.0943" x2="63.8988" y2="128.809" gradientUnits="userSpaceOnUse">
<stop stop-color="#5AACF8"/>
<stop offset="1" stop-color="#395FE4"/>
</linearGradient>
<linearGradient id="paint3_linear_244_184" x1="223.987" y1="-16.0943" x2="63.8988" y2="128.809" gradientUnits="userSpaceOnUse">
<stop stop-color="#5AACF8"/>
<stop offset="1" stop-color="#395FE4"/>
</linearGradient>
<linearGradient id="paint4_linear_244_184" x1="223.987" y1="-16.0943" x2="63.8988" y2="128.809" gradientUnits="userSpaceOnUse">
<stop stop-color="#5AACF8"/>
<stop offset="1" stop-color="#395FE4"/>
</linearGradient>
<linearGradient id="paint5_linear_244_184" x1="223.987" y1="-16.0943" x2="63.8988" y2="128.809" gradientUnits="userSpaceOnUse">
<stop stop-color="#5AACF8"/>
<stop offset="1" stop-color="#395FE4"/>
</linearGradient>
<linearGradient id="paint6_linear_244_184" x1="223.987" y1="-16.0943" x2="63.8988" y2="128.809" gradientUnits="userSpaceOnUse">
<stop stop-color="#5AACF8"/>
<stop offset="1" stop-color="#395FE4"/>
</linearGradient>
<linearGradient id="paint7_linear_244_184" x1="223.987" y1="-16.0943" x2="63.8988" y2="128.809" gradientUnits="userSpaceOnUse">
<stop stop-color="#5AACF8"/>
<stop offset="1" stop-color="#395FE4"/>
</linearGradient>
<linearGradient id="paint8_linear_244_184" x1="223.987" y1="-16.0943" x2="63.8988" y2="128.809" gradientUnits="userSpaceOnUse">
<stop stop-color="#5AACF8"/>
<stop offset="1" stop-color="#395FE4"/>
</linearGradient>
<linearGradient id="paint9_linear_244_184" x1="223.987" y1="-16.0943" x2="63.8988" y2="128.809" gradientUnits="userSpaceOnUse">
<stop stop-color="#5AACF8"/>
<stop offset="1" stop-color="#395FE4"/>
</linearGradient>
<linearGradient id="paint10_linear_244_184" x1="223.987" y1="-16.0943" x2="63.8988" y2="128.809" gradientUnits="userSpaceOnUse">
<stop stop-color="#5AACF8"/>
<stop offset="1" stop-color="#395FE4"/>
</linearGradient>
<linearGradient id="paint11_linear_244_184" x1="223.987" y1="-16.0943" x2="63.8988" y2="128.809" gradientUnits="userSpaceOnUse">
<stop stop-color="#5AACF8"/>
<stop offset="1" stop-color="#395FE4"/>
</linearGradient>
<linearGradient id="paint12_linear_244_184" x1="223.987" y1="-16.0943" x2="63.8988" y2="128.809" gradientUnits="userSpaceOnUse">
<stop stop-color="#5AACF8"/>
<stop offset="1" stop-color="#395FE4"/>
</linearGradient>
<linearGradient id="paint13_linear_244_184" x1="223.987" y1="-16.0943" x2="63.8988" y2="128.809" gradientUnits="userSpaceOnUse">
<stop stop-color="#5AACF8"/>
<stop offset="1" stop-color="#395FE4"/>
</linearGradient>
<clipPath id="clip0_244_184">
<rect width="224" height="39" fill="white"/>
</clipPath>
</defs>
</svg>
