<svg width="167" height="41" viewBox="0 0 167 41" fill="none" xmlns="http://www.w3.org/2000/svg">
<path d="M20.6206 11.5013C22.5747 10.3679 24.665 10.2946 26.8152 10.4546C26.8432 10.6924 26.7138 10.7912 26.5929 10.8834C26.5588 10.9095 26.5253 10.935 26.4963 10.963C25.7446 11.7286 24.9894 12.4908 24.2308 13.2494C23.9702 13.5081 23.7471 13.7907 23.9313 14.1675C24.102 14.516 24.4329 14.6012 24.8132 14.6012C25.5185 14.6012 26.2256 14.6113 26.9325 14.6213C27.3483 14.6273 27.764 14.6332 28.1793 14.6371C28.5426 14.645 28.9037 14.5784 29.2403 14.4416C29.5769 14.3048 29.8819 14.1006 30.1364 13.8416L30.7249 13.255C32.2262 11.7588 33.7251 10.2651 35.211 8.7574C35.9237 8.03216 35.9178 7.32038 35.202 6.59364C33.5414 4.9069 31.8748 3.22464 30.1873 1.56481C29.5315 0.921817 28.7498 0.534524 27.7795 0.574898C26.8317 0.615272 25.8809 0.607795 24.9345 0.565926C24.4389 0.546486 24.1065 0.71845 23.9178 1.14462C23.7389 1.54866 24.0069 1.81291 24.2636 2.06608L24.3056 2.10762C25.0783 2.88021 25.8524 3.65231 26.628 4.4239C26.6473 4.44314 26.6693 4.46175 26.6916 4.48059C26.7835 4.55841 26.8801 4.64011 26.8077 4.78577C26.7548 4.89258 26.6521 4.88331 26.5532 4.87438C26.5261 4.87194 26.4993 4.86951 26.4738 4.86951L26.3674 4.87257C26.0789 4.881 25.7887 4.88949 25.502 4.86951C22.0296 4.61381 18.9765 5.75326 16.1899 7.72113C15.2315 8.39806 14.2832 9.09118 13.3353 9.78402C12.6543 10.2818 11.9732 10.7797 11.2889 11.2711C9.38878 12.6243 7.31042 13.393 4.9251 13.2434C4.22357 13.1988 3.52204 13.2085 2.82051 13.2182C2.32414 13.225 1.82777 13.2319 1.3314 13.2195C0.843259 13.2075 0.690527 13.3541 0.702506 13.8505C0.738443 15.2681 0.744433 16.6902 0.702506 18.1093C0.686035 18.67 0.900159 18.7702 1.3928 18.7597C1.92563 18.7513 2.45871 18.756 2.99174 18.7606C3.78137 18.7676 4.57089 18.7745 5.35934 18.7388C7.28347 18.6431 8.98748 19.2352 10.5882 20.2341C12.149 21.2092 13.6016 22.3352 15.0469 23.4556L15.2989 23.651C18.5842 26.1407 22.2063 27.485 26.3795 27.1052C26.4062 27.1028 26.4344 27.097 26.4636 27.0909C26.5984 27.063 26.757 27.0302 26.9096 27.3041L26.654 27.5534C25.8359 28.3514 25.003 29.1638 24.1664 29.9763C23.9163 30.2185 23.7441 30.4847 23.9163 30.8346C24.0541 31.1337 24.3221 31.2473 24.653 31.2473C25.1744 31.2541 25.6946 31.2651 26.2142 31.2762L26.2155 31.2762C26.8428 31.2896 27.47 31.3029 28.097 31.3086C28.4859 31.32 28.8729 31.2508 29.2337 31.1054C29.5945 30.96 29.9213 30.7415 30.1933 30.4638L30.8861 29.7709C32.3296 28.3275 33.7731 26.8841 35.202 25.4274C35.9103 24.7067 35.9043 23.9859 35.1915 23.2637C33.7826 21.8316 32.361 20.4142 30.9401 18.9974L30.1199 18.1795C29.7216 17.7818 29.2395 17.4692 28.6809 17.4468C27.6097 17.4036 26.5376 17.3996 25.4653 17.3957C25.1661 17.3946 24.8669 17.3934 24.5677 17.3915C24.4284 17.39 24.2919 17.4304 24.176 17.5075C24.0601 17.5846 23.9701 17.6948 23.9178 17.8236C23.7681 18.1377 23.9058 18.4008 24.1334 18.6281C24.375 18.8708 24.6172 19.1129 24.8594 19.355L24.8605 19.3561C25.3759 19.8712 25.8914 20.3865 26.4004 20.907C26.438 20.9452 26.4806 20.9802 26.5239 21.0158C26.6705 21.1361 26.8257 21.2635 26.8257 21.5485C26.513 21.5452 26.2006 21.5486 25.8886 21.5519C24.5425 21.5666 23.2064 21.5811 21.9068 21.0506C20.0373 20.2878 18.4576 19.0896 16.8776 17.8912C16.1191 17.3158 15.3605 16.7404 14.5697 16.2132C14.2747 16.0158 14.4155 15.8513 14.6311 15.7018C15.432 15.164 16.2044 14.5862 16.9768 14.0083C18.1569 13.1255 19.3373 12.2424 20.6206 11.5013Z" fill="url(#paint0_linear_244_223)"/>
<path d="M166.097 23.8287L166.097 23.8203C166.102 22.8885 166.107 21.9566 166.107 21.0247C166.107 20.311 166.107 19.5974 166.106 18.8837V18.8782C166.104 16.3306 166.102 13.7825 166.123 11.2317C166.129 10.6545 165.959 10.5259 165.411 10.5259C163.71 10.5394 162.009 10.5381 160.308 10.5369C158.991 10.5359 157.673 10.535 156.356 10.5408C150.91 10.5588 146.815 14.1386 146.19 19.5308C145.752 23.3185 147.014 26.4782 150.209 28.6718C153.357 30.8326 156.733 31.0509 160.227 29.4972C160.684 29.2939 160.923 29.0277 160.877 28.4744C160.839 28.0284 160.846 27.5782 160.853 27.1276C160.857 26.8547 160.861 26.5816 160.856 26.3092C160.854 26.2376 160.866 26.1593 160.878 26.0807C160.907 25.8967 160.936 25.7111 160.787 25.6064C160.609 25.4847 160.462 25.6165 160.32 25.7445C160.264 25.7943 160.209 25.8435 160.153 25.877C157.617 27.3993 154.206 27.3096 152.111 25.6497C150.016 23.9899 149.293 21.0232 150.272 18.0983C151.102 15.619 153.27 14.1042 156.132 14.0504C157.281 14.0285 158.431 14.0335 159.581 14.0386C160.078 14.0407 160.576 14.0429 161.073 14.0429C162.331 14.0429 162.331 14.0429 162.331 15.305C162.331 16.9853 162.332 18.6648 162.333 20.3437C162.336 23.6999 162.339 27.0539 162.331 30.4079C162.326 32.8274 161.366 34.7025 159.104 35.7687C158.144 36.2218 157.096 36.3803 156.048 36.4102C154.627 36.4504 153.206 36.4588 151.785 36.4672C151.409 36.4695 151.033 36.4717 150.657 36.4745L150.631 36.4747C150.295 36.4773 150.008 36.4795 150.019 36.9605C150.03 37.5586 150.027 38.1568 150.023 38.7549C150.021 39.054 150.019 39.353 150.019 39.6521C150.018 39.9826 150.124 40.1486 150.497 40.1321C151.28 40.0963 152.063 40.0945 152.847 40.0926C154.518 40.0887 156.191 40.0848 157.87 39.7508C161.98 38.9343 166.23 35.368 166.117 29.9967C166.074 27.9407 166.086 25.8847 166.097 23.8287Z" fill="url(#paint1_linear_244_223)"/>
<path d="M91.3969 12.5515C91.3991 9.08004 91.4013 5.60817 91.3821 2.13717C91.3821 1.51062 91.5588 1.29529 92.1831 1.34015C92.8551 1.3895 93.5297 1.3895 94.2016 1.34015C94.85 1.29081 95.0551 1.48969 95.0506 2.16558C95.0342 4.99234 95.0331 7.81955 95.032 10.6467C95.0311 12.9747 95.0301 15.3027 95.0207 17.6304C95.0207 18.2285 95.1105 18.4708 95.7993 18.3676C96.492 18.2729 97.1946 18.2754 97.8866 18.3751C98.4137 18.4439 98.6353 18.2659 98.8719 17.8353C99.3429 16.9575 99.8236 16.085 100.304 15.2124L100.305 15.2105L100.306 15.2092C101.002 13.9468 101.697 12.6841 102.364 11.4053C102.716 10.7324 103.127 10.4707 103.879 10.5335C104.501 10.5869 105.129 10.5721 105.755 10.5573C105.953 10.5526 106.15 10.548 106.347 10.5455C106.777 10.5455 106.884 10.6098 106.625 11.0434C105.788 12.4538 104.959 13.8708 104.13 15.288L104.129 15.2893C103.475 16.4064 102.821 17.5238 102.163 18.6383C101.962 18.9762 101.874 19.1811 102.353 19.3426C105.177 20.2936 106.396 22.4828 106.824 25.2432C106.995 26.3408 106.991 27.4459 106.986 28.5511C106.984 29.0147 106.983 29.4784 106.994 29.9415C107.003 30.3363 106.844 30.4694 106.465 30.4634C105.592 30.4484 104.719 30.441 103.846 30.4634C103.41 30.4754 103.285 30.3004 103.297 29.8892C103.316 29.2534 103.312 28.6166 103.308 27.9781V27.977C103.307 27.817 103.306 27.6569 103.306 27.4966C103.292 23.9422 101.386 21.8936 97.8267 21.605C95.0341 21.3777 95.0341 21.3777 95.0341 24.1097C95.0341 24.6172 95.033 25.1246 95.0318 25.6321C95.0285 27.0177 95.0253 28.4045 95.0461 29.792C95.0536 30.3154 94.8964 30.4963 94.3693 30.4679C93.6213 30.4222 92.8712 30.4222 92.1232 30.4679C91.5093 30.5098 91.3746 30.2795 91.3821 29.7023C91.4004 26.1737 91.3986 22.6416 91.3967 19.1093C91.3961 18.0342 91.3955 16.959 91.3955 15.8838C91.3955 14.7733 91.3962 13.6621 91.3969 12.5515Z" fill="url(#paint2_linear_244_223)"/>
<path d="M44.7662 24.2806C44.7675 23.6166 44.7688 22.9527 44.7688 22.2888L44.7718 22.2962C44.7718 21.6349 44.7728 20.9735 44.7738 20.3121V20.3109C44.7767 18.4589 44.7796 16.6067 44.7598 14.7537C44.7538 14.184 44.938 14.018 45.489 14.0345C46.1531 14.054 46.8187 14.0514 47.4843 14.0487C47.9908 14.0467 48.4974 14.0447 49.0033 14.0524C49.4211 14.0584 49.5858 13.9253 49.5708 13.4947C49.5287 12.7476 49.5287 11.9987 49.5708 11.2517C49.6158 10.658 49.3762 10.5309 48.8446 10.5444C47.8479 10.5651 46.8535 10.5566 45.8593 10.5482L45.4007 10.5444C45.3662 10.5442 45.3306 10.5451 45.2946 10.5461C45.0334 10.5531 44.7537 10.5607 44.7748 10.1361C44.8736 8.20116 45.5654 6.39628 47.6767 5.47515C48.6242 5.08617 49.6379 4.8831 50.6624 4.87702C51.1176 4.86206 51.2659 4.71253 51.2419 4.25346C51.2021 3.50632 51.2021 2.75759 51.2419 2.01045C51.2659 1.52596 51.1296 1.3525 50.6205 1.36596C45.6178 1.49007 41.1017 4.73795 41.0673 10.0389C41.0658 10.323 40.9924 10.5862 40.6705 10.5354C39.8792 10.4099 39.6572 10.929 39.412 11.5025L39.4112 11.5044C39.1087 12.2132 38.7658 12.9055 38.4079 13.5874C38.2267 13.9298 38.3226 14.036 38.6685 14.036C38.8237 14.036 38.9793 14.0399 39.1348 14.0438C39.4801 14.0524 39.8251 14.061 40.1658 14.027C40.8442 13.9597 41.0553 14.178 41.0553 14.8913C41.0367 17.678 41.0353 20.4642 41.0338 23.2505C41.0327 25.4176 41.0315 27.5846 41.0223 29.752C41.0208 30.3098 41.1751 30.5027 41.7396 30.4698C42.5117 30.4279 43.2854 30.4279 44.0575 30.4698C44.607 30.5042 44.7822 30.3277 44.7822 29.7565C44.7592 27.9319 44.7627 26.1062 44.7662 24.2806Z" fill="url(#paint3_linear_244_223)"/>
<path d="M111.391 10.1231C111.394 7.45121 111.397 4.7789 111.371 2.10742C111.371 1.44648 111.594 1.29695 112.185 1.33134C112.908 1.37471 113.632 1.37471 114.355 1.33134C114.969 1.29097 115.169 1.48088 115.165 2.11789C115.142 4.75243 115.145 7.38865 115.148 10.0228V10.0242C115.149 10.9013 115.15 11.779 115.15 12.6556V22.2257C115.15 22.5741 115.15 22.9241 115.18 23.2725C115.379 25.7996 116.346 26.7506 118.896 26.939C119.42 26.9787 119.682 26.9985 119.813 27.1398C119.944 27.2811 119.944 27.5439 119.944 28.0695C119.944 28.2082 119.944 28.3468 119.944 28.4853C119.942 28.9698 119.941 29.4535 119.958 29.9372C119.971 30.314 119.852 30.4845 119.45 30.477C117.919 30.4441 116.414 30.2766 114.978 29.7069C113.236 29.0161 112.249 27.6912 111.784 25.9237C111.463 24.708 111.388 23.4669 111.388 22.2183C111.385 19.0741 111.385 15.9328 111.388 12.7946C111.388 11.9043 111.39 11.0135 111.391 10.1231Z" fill="url(#paint4_linear_244_223)"/>
<path d="M76.4267 21.1412C76.4367 21.893 76.4463 22.6203 76.4248 23.3099C76.4248 23.9481 76.4262 24.562 76.4276 25.1585L76.4276 25.164C76.4314 26.7583 76.4348 28.228 76.4098 29.7024C76.3933 30.2692 76.5176 30.5249 77.142 30.4815C77.8899 30.4329 78.6402 30.4329 79.3881 30.4815C79.9601 30.5159 80.0948 30.3125 80.0948 29.7608C80.0742 27.1511 80.0764 24.5423 80.0785 21.9331V21.9302C80.0792 21.1271 80.0799 20.3239 80.0799 19.5207C80.0543 18.4739 80.1431 17.4274 80.3449 16.3999C80.5785 15.3337 81.2029 14.6309 82.2391 14.287C82.8135 14.1134 83.4121 14.0331 84.012 14.0492C84.469 14.0492 84.9262 14.0474 85.3834 14.0456C86.2983 14.0419 87.2138 14.0383 88.1282 14.0492C88.5655 14.0492 88.7646 13.9236 88.7467 13.4511C88.7182 12.6795 88.7227 11.9064 88.7467 11.1348C88.7601 10.7281 88.6433 10.5367 88.2046 10.5456C87.5582 10.5589 86.9108 10.5512 86.2635 10.5435C84.9388 10.5278 83.6141 10.512 82.2975 10.6757C80.7342 10.8701 79.2892 11.395 78.1797 12.5913C77.1645 13.6844 76.8021 15.0526 76.606 16.4717C76.3858 18.0556 76.4069 19.6467 76.4267 21.1412Z" fill="url(#paint5_linear_244_223)"/>
<path fill-rule="evenodd" clip-rule="evenodd" d="M132.117 10.1133C126.322 10.1133 121.952 14.5649 121.945 20.4745C121.937 26.3467 126.356 30.9 132.073 30.912C137.829 30.9239 142.299 26.417 142.317 20.5851C142.335 14.7533 137.831 10.1103 132.117 10.1133ZM137.013 25.2401C135.426 27.1721 132.599 27.9048 129.998 27.0944C127.668 26.3646 126.006 24.2158 125.747 21.5795C125.724 21.3503 125.714 21.119 125.704 20.8936C125.698 20.7797 125.693 20.6666 125.687 20.5567C125.715 18.0864 126.461 15.966 128.613 14.5858C129.518 13.9876 130.562 13.6303 131.644 13.5476C132.727 13.465 133.812 13.6598 134.798 14.1136C135.784 14.5674 136.638 15.2652 137.278 16.1408C137.918 17.0163 138.324 18.0407 138.457 19.1167C138.759 21.3298 138.491 23.4398 137.013 25.2401Z" fill="url(#paint6_linear_244_223)"/>
<path fill-rule="evenodd" clip-rule="evenodd" d="M52.2452 20.455C52.2616 14.5679 56.6819 10.0938 62.4588 10.1192C68.1578 10.1432 72.623 14.7428 72.602 20.5672C72.581 26.4304 68.1293 30.9299 62.3764 30.9015C56.6489 30.8746 52.2287 26.3183 52.2452 20.455ZM56.0725 21.7201C56.8346 27.3321 62.2102 28.4222 65.5329 26.6861C67.9826 25.4076 68.8316 23.1601 68.8825 20.3952C68.8659 19.9408 68.8254 19.4876 68.7612 19.0375C68.2896 16.4954 66.9809 14.5724 64.3859 13.8845C61.8389 13.2056 59.4595 13.6064 57.6252 15.6924C56.1024 17.424 55.773 19.5249 56.0725 21.7201Z" fill="url(#paint7_linear_244_223)"/>
<defs>
<linearGradient id="paint0_linear_244_223" x1="166.124" y1="-15.749" x2="16.2253" y2="83.1091" gradientUnits="userSpaceOnUse">
<stop stop-color="#5AACF8"/>
<stop offset="1" stop-color="#395FE4"/>
</linearGradient>
<linearGradient id="paint1_linear_244_223" x1="166.124" y1="-15.749" x2="16.2253" y2="83.1091" gradientUnits="userSpaceOnUse">
<stop stop-color="#5AACF8"/>
<stop offset="1" stop-color="#395FE4"/>
</linearGradient>
<linearGradient id="paint2_linear_244_223" x1="166.124" y1="-15.749" x2="16.2253" y2="83.1091" gradientUnits="userSpaceOnUse">
<stop stop-color="#5AACF8"/>
<stop offset="1" stop-color="#395FE4"/>
</linearGradient>
<linearGradient id="paint3_linear_244_223" x1="166.124" y1="-15.749" x2="16.2253" y2="83.1091" gradientUnits="userSpaceOnUse">
<stop stop-color="#5AACF8"/>
<stop offset="1" stop-color="#395FE4"/>
</linearGradient>
<linearGradient id="paint4_linear_244_223" x1="166.124" y1="-15.749" x2="16.2253" y2="83.1091" gradientUnits="userSpaceOnUse">
<stop stop-color="#5AACF8"/>
<stop offset="1" stop-color="#395FE4"/>
</linearGradient>
<linearGradient id="paint5_linear_244_223" x1="166.124" y1="-15.749" x2="16.2253" y2="83.1091" gradientUnits="userSpaceOnUse">
<stop stop-color="#5AACF8"/>
<stop offset="1" stop-color="#395FE4"/>
</linearGradient>
<linearGradient id="paint6_linear_244_223" x1="166.124" y1="-15.749" x2="16.2253" y2="83.1091" gradientUnits="userSpaceOnUse">
<stop stop-color="#5AACF8"/>
<stop offset="1" stop-color="#395FE4"/>
</linearGradient>
<linearGradient id="paint7_linear_244_223" x1="166.124" y1="-15.749" x2="16.2253" y2="83.1091" gradientUnits="userSpaceOnUse">
<stop stop-color="#5AACF8"/>
<stop offset="1" stop-color="#395FE4"/>
</linearGradient>
</defs>
</svg>
