<svg width="186" height="45" viewBox="0 0 186 45" fill="none" xmlns="http://www.w3.org/2000/svg">
<path d="M27.001 32.3818L19.251 35.7608V35.4198C17.763 35.7918 16.089 36.0088 14.539 36.1018C7.223 36.0398 1.457 32.1958 1.364 27.6698V25.9958C3.751 29.4678 8.649 31.8238 14.539 31.7308C16.523 31.8238 18.569 31.5138 20.274 31.0488L20.956 29.3748C18.941 29.9948 16.709 30.3978 14.539 30.3978C7.223 30.3978 1.457 26.5848 1.364 21.9658V20.6018C3.751 23.8258 8.649 26.1508 14.539 25.9958C17.205 26.1508 19.778 25.5928 21.979 24.6318L22.32 22.9578C20.181 24.0738 17.422 24.7248 14.57 24.6318C7.254 24.7248 1.488 20.9118 1.395 16.1998V14.8358C3.782 18.1218 8.68 20.4778 14.57 20.5708C17.918 20.4778 21.08 19.5788 23.684 18.2148L24.025 16.1998C21.669 17.9358 18.228 19.0828 14.57 19.2378C7.254 19.0828 1.488 15.2388 1.395 10.4648C1.457 5.90786 7.254 2.09487 14.57 2.03287C18.91 2.09487 22.971 3.61387 25.358 6.09387L25.606 6.49687H27.311L27.063 6.09387C24.676 2.83887 19.871 0.699869 14.57 0.699869C6.448 0.668869 0 5.10187 0 10.4338V27.9798C0.279 33.1878 6.572 37.4348 14.508 37.4348C19.747 37.4658 24.49 35.3888 27.001 32.3818Z" fill="white"/>
<path d="M23.839 44.2548L26.567 32.6608L18.724 36.0708L23.498 15.9828H14.322L16.709 6.09381H46.004L43.617 15.9828H34.069L32.023 21.4388L42.594 17.0058L23.839 44.2548ZM28.613 30.3048L27.249 37.1248L38.502 20.1058L29.295 24.1978L33.387 14.6498H42.594L44.299 7.48881H17.701L15.996 14.6498H25.203L20.77 33.7148L28.613 30.3048Z" fill="white"/>
<path d="M65.441 12.7588C65.472 13.8438 65.131 14.6808 64.449 15.3008C63.767 15.9208 62.837 16.2308 61.628 16.2308C60.419 16.2308 59.427 15.8278 58.683 15.0528C57.939 14.2778 57.567 13.2548 57.567 12.0148V9.99986C57.567 8.75986 57.939 7.73686 58.652 6.96186C59.396 6.18686 60.357 5.78387 61.535 5.78387C62.775 5.78387 63.736 6.09387 64.449 6.68287C65.162 7.30287 65.503 8.13986 65.472 9.22486V9.25586H63.488C63.488 8.60486 63.333 8.10887 63.023 7.79887C62.713 7.48887 62.217 7.33387 61.566 7.33387C60.946 7.33387 60.481 7.58187 60.14 8.07787C59.799 8.57387 59.613 9.19387 59.613 9.96887V12.0148C59.613 12.7898 59.799 13.4408 60.14 13.9368C60.512 14.4328 61.008 14.6808 61.659 14.6808C62.279 14.6808 62.713 14.5258 63.023 14.2158C63.333 13.9058 63.488 13.4098 63.488 12.7588H65.441ZM76.663 11.9218C76.663 13.1618 76.26 14.2158 75.485 15.0218C74.71 15.8278 73.687 16.2308 72.416 16.2308C71.145 16.2308 70.153 15.8278 69.347 15.0218C68.572 14.2158 68.169 13.1618 68.169 11.9218V10.0928C68.169 8.85287 68.572 7.82987 69.347 6.99287C70.122 6.18687 71.145 5.75287 72.385 5.75287C73.656 5.75287 74.679 6.15587 75.454 6.99287C76.26 7.79887 76.632 8.85287 76.632 10.0928V11.9218H76.663ZM74.6171 10.0618C74.6171 9.25586 74.431 8.63587 74.028 8.10887C73.625 7.61287 73.098 7.33387 72.385 7.33387C71.703 7.33387 71.145 7.58187 70.773 8.10887C70.401 8.60487 70.184 9.25586 70.184 10.0618V11.8908C70.184 12.6968 70.37 13.3478 70.773 13.8748C71.145 14.3708 71.703 14.6498 72.385 14.6498C73.098 14.6498 73.625 14.4018 74.028 13.8748C74.431 13.3788 74.6171 12.6968 74.6171 11.8908V10.0618ZM81.933 16.0758H79.8871V5.90787H81.933V16.0758ZM93.682 16.0758H91.636L87.544 9.22486H87.513V16.0758H85.467V5.90787H87.513L91.605 12.7588H91.636V5.90787H93.682V16.0758ZM103.943 7.48887H101.029V16.0758H98.983V7.48887H96.131V5.90787H103.943V7.48887ZM108.593 11.6118V14.5258H113.088V16.0758H106.578V5.90787H113.088V7.48887H108.624V10.0308H112.406V11.6118H108.593ZM118.048 14.5258H122.605V16.0758H116.002V5.90787H118.048V14.5258ZM127.503 11.6118V14.5258H131.998V16.0758H125.488V5.90787H131.998V7.48887H127.534V10.0308H131.316V11.6118H127.503ZM142.724 14.7118C142.414 15.1148 141.949 15.4868 141.298 15.7968C140.678 16.1068 139.872 16.2618 138.88 16.2618C137.64 16.2618 136.648 15.8898 135.873 15.1148C135.098 14.3398 134.695 13.3478 134.695 12.1078V9.96887C134.695 8.72887 135.067 7.73686 135.842 6.96186C136.586 6.18686 137.578 5.78387 138.756 5.78387C139.996 5.78387 140.957 6.09387 141.608 6.68287C142.259 7.27187 142.6 8.04687 142.569 9.03887V9.06986H140.647C140.647 8.54286 140.492 8.10887 140.182 7.79887C139.872 7.48887 139.407 7.33387 138.818 7.33387C138.198 7.33387 137.702 7.58186 137.299 8.04686C136.927 8.54286 136.741 9.16286 136.741 9.90686V12.0458C136.741 12.8208 136.927 13.4408 137.33 13.9368C137.733 14.4328 138.26 14.6498 138.911 14.6498C139.407 14.6498 139.779 14.5878 140.058 14.4948C140.337 14.4018 140.554 14.2778 140.709 14.1228V12.1388H138.756V10.7128H142.755V14.7118H142.724ZM147.994 12.0148V16.0758H145.948V5.90787H149.482C150.629 5.90787 151.559 6.18687 152.21 6.71387C152.861 7.24087 153.202 7.98486 153.202 8.91486C153.202 9.44186 153.078 9.87587 152.799 10.2788C152.52 10.6508 152.117 10.9608 151.59 11.2088C152.179 11.3948 152.613 11.6738 152.892 12.1078C153.14 12.5108 153.295 13.0378 153.295 13.6578V14.4018C153.295 14.6808 153.326 14.9908 153.419 15.3008C153.481 15.6108 153.636 15.8278 153.822 15.9828V16.1378H151.714C151.528 15.9828 151.404 15.7348 151.342 15.3938C151.28 15.0528 151.249 14.7118 151.249 14.4018V13.6888C151.249 13.1928 151.125 12.7898 150.846 12.5108C150.567 12.2318 150.164 12.0768 149.668 12.0768H147.994V12.0148ZM147.994 10.4648H149.451C150.009 10.4648 150.443 10.3408 150.722 10.0928C151.001 9.84487 151.156 9.50387 151.156 9.00787C151.156 8.54287 151.001 8.17086 150.722 7.89186C150.443 7.61286 150.04 7.48887 149.482 7.48887H147.994V10.4648ZM161.851 13.9058H158.565L157.883 16.1068H155.744L159.185 5.93887H161.262L164.672 16.1068H162.533L161.851 13.9058ZM159.061 12.2938H161.355L160.239 8.69787H160.208L159.061 12.2938ZM169.198 12.3868V16.0758H167.152V5.90787H171.058C172.236 5.90787 173.135 6.21786 173.817 6.80686C174.499 7.39586 174.809 8.20187 174.809 9.16287C174.809 10.1238 174.468 10.9298 173.817 11.5188C173.135 12.1078 172.236 12.4178 171.058 12.4178H169.198V12.3868ZM169.198 10.8368H171.058C171.616 10.8368 172.05 10.6818 172.36 10.3718C172.639 10.0618 172.794 9.65887 172.794 9.19387C172.794 8.69787 172.639 8.29486 172.36 7.98486C172.081 7.67486 171.647 7.51986 171.058 7.51986H169.198V10.8368ZM186 16.0758H183.954V11.8598H179.8V16.0758H177.754V5.90787H179.8V10.2788H183.954V5.90787H186V16.0758Z" fill="white"/>
<path d="M61.287 32.6918H60.016V25.9958H57.722V24.9108H63.581V25.9958H61.287V32.6918ZM69.812 32.6918H68.541V29.0648C68.541 28.5998 68.448 28.2588 68.262 28.0418C68.076 27.8248 67.797 27.7008 67.394 27.7008C66.867 27.7008 66.495 27.8558 66.247 28.1658C65.999 28.4758 65.875 29.0028 65.875 29.7468V32.6608H64.635V24.3838H65.875V26.4918C65.875 26.8328 65.844 27.1738 65.813 27.5768H65.906C66.061 27.2978 66.309 27.0808 66.619 26.9258C66.929 26.7708 67.27 26.6778 67.673 26.6778C69.099 26.6778 69.812 27.3908 69.812 28.8478V32.6918ZM74.121 32.7848C73.191 32.7848 72.478 32.5058 71.982 31.9788C71.455 31.4518 71.207 30.7078 71.207 29.7778C71.207 28.8168 71.455 28.0728 71.92 27.5148C72.385 26.9568 73.067 26.6778 73.904 26.6778C74.679 26.6778 75.299 26.9258 75.733 27.3908C76.198 27.8558 76.415 28.5068 76.415 29.3438V30.0258H72.478C72.509 30.5838 72.664 31.0488 72.943 31.3278C73.222 31.6378 73.656 31.7928 74.183 31.7928C74.524 31.7928 74.865 31.7618 75.144 31.6998C75.454 31.6378 75.764 31.5138 76.105 31.3588V32.3818C75.795 32.5368 75.485 32.6298 75.175 32.6918C74.896 32.7538 74.524 32.7848 74.121 32.7848ZM73.904 27.6388C73.501 27.6388 73.191 27.7628 72.943 28.0108C72.695 28.2588 72.571 28.6308 72.509 29.1268H75.175C75.175 28.6308 75.051 28.2588 74.834 28.0108C74.617 27.7628 74.307 27.6388 73.904 27.6388ZM83.607 27.7318H82.181V32.6918H80.91V27.7318H79.949V27.1428L80.91 26.7708V26.3988C80.91 25.7168 81.065 25.1898 81.406 24.8488C81.747 24.5078 82.243 24.3528 82.894 24.3528C83.328 24.3528 83.762 24.4148 84.196 24.5698L83.855 25.5308C83.545 25.4378 83.266 25.3758 82.956 25.3758C82.677 25.3758 82.46 25.4688 82.336 25.6238C82.212 25.8098 82.15 26.0578 82.15 26.3988V26.7708H83.576V27.7318H83.607ZM88.784 32.6918L88.598 31.9168H88.536C88.35 32.1958 88.102 32.4128 87.792 32.5678C87.482 32.7228 87.11 32.8158 86.707 32.8158C85.994 32.8158 85.467 32.6298 85.095 32.2888C84.723 31.9478 84.568 31.3898 84.568 30.6768V26.8018H85.839V30.4288C85.839 30.8938 85.932 31.2038 86.118 31.4518C86.304 31.6688 86.583 31.7928 86.986 31.7928C87.513 31.7928 87.885 31.6378 88.133 31.3278C88.381 31.0178 88.505 30.4908 88.505 29.7468V26.8018H89.776V32.6918H88.784ZM93.744 31.7618C94.054 31.7618 94.364 31.6998 94.674 31.6068V32.5368C94.55 32.5988 94.364 32.6608 94.147 32.6918C93.93 32.7228 93.713 32.7538 93.465 32.7538C92.287 32.7538 91.698 32.1338 91.698 30.8938V27.7318H90.892V27.1738L91.76 26.7088L92.194 25.4688H92.969V26.7708H94.643V27.7318H92.969V30.8938C92.969 31.2038 93.031 31.4208 93.186 31.5758C93.279 31.6998 93.496 31.7618 93.744 31.7618ZM99.975 32.6918L99.789 31.9168H99.727C99.541 32.1958 99.293 32.4128 98.983 32.5678C98.673 32.7228 98.301 32.8158 97.898 32.8158C97.185 32.8158 96.658 32.6298 96.286 32.2888C95.945 31.9478 95.759 31.3898 95.759 30.6768V26.8018H97.03V30.4288C97.03 30.8938 97.123 31.2038 97.309 31.4518C97.495 31.6688 97.774 31.7928 98.177 31.7928C98.704 31.7928 99.076 31.6378 99.324 31.3278C99.572 31.0178 99.696 30.4908 99.696 29.7468V26.8018H100.967V32.6918H99.975ZM105.741 26.6778C105.989 26.6778 106.206 26.7088 106.361 26.7398L106.237 27.9178C106.051 27.8868 105.865 27.8558 105.679 27.8558C105.183 27.8558 104.78 28.0108 104.47 28.3518C104.16 28.6928 104.005 29.0958 104.005 29.6228V32.6918H102.765V26.8018H103.757L103.912 27.8248H103.974C104.16 27.4838 104.439 27.2048 104.749 26.9878C105.028 26.8018 105.369 26.6778 105.741 26.6778ZM109.802 32.7848C108.872 32.7848 108.159 32.5058 107.663 31.9788C107.136 31.4518 106.888 30.7078 106.888 29.7778C106.888 28.8168 107.136 28.0728 107.601 27.5148C108.066 26.9568 108.748 26.6778 109.585 26.6778C110.36 26.6778 110.98 26.9258 111.414 27.3908C111.879 27.8558 112.096 28.5068 112.096 29.3438V30.0258H108.159C108.19 30.5838 108.345 31.0488 108.624 31.3278C108.903 31.6378 109.337 31.7928 109.864 31.7928C110.205 31.7928 110.546 31.7618 110.825 31.6998C111.135 31.6378 111.445 31.5138 111.786 31.3588V32.3818C111.476 32.5368 111.166 32.6298 110.856 32.6918C110.546 32.7538 110.205 32.7848 109.802 32.7848ZM109.585 27.6388C109.182 27.6388 108.872 27.7628 108.624 28.0108C108.376 28.2588 108.252 28.6308 108.19 29.1268H110.856C110.856 28.6308 110.732 28.2588 110.515 28.0108C110.267 27.7628 109.957 27.6388 109.585 27.6388ZM121.551 29.7158C121.551 30.6768 121.303 31.4208 120.807 31.9788C120.311 32.5058 119.629 32.7848 118.761 32.7848C118.203 32.7848 117.738 32.6608 117.304 32.4128C116.87 32.1648 116.56 31.7928 116.343 31.3278C116.126 30.8628 116.002 30.3358 116.002 29.7158C116.002 28.7548 116.25 28.0108 116.746 27.4838C117.242 26.9568 117.924 26.6778 118.823 26.6778C119.66 26.6778 120.342 26.9568 120.838 27.5148C121.334 28.0728 121.551 28.7858 121.551 29.7158ZM117.273 29.7158C117.273 31.0798 117.769 31.7618 118.792 31.7618C119.784 31.7618 120.28 31.0798 120.28 29.7158C120.28 28.3828 119.784 27.7008 118.792 27.7008C118.265 27.7008 117.893 27.8868 117.645 28.2278C117.397 28.5688 117.273 29.0648 117.273 29.7158ZM125.953 27.7318H124.527V32.6918H123.256V27.7318H122.295V27.1428L123.256 26.7708V26.3988C123.256 25.7168 123.411 25.1898 123.752 24.8488C124.093 24.5078 124.589 24.3528 125.24 24.3528C125.674 24.3528 126.108 24.4148 126.542 24.5698L126.201 25.5308C125.891 25.4378 125.612 25.3758 125.302 25.3758C125.023 25.3758 124.806 25.4688 124.682 25.6238C124.558 25.7788 124.496 26.0578 124.496 26.3988V26.7708H125.922V27.7318H125.953ZM133.486 32.6918V29.0648C133.486 28.5998 133.393 28.2898 133.238 28.0418C133.083 27.8248 132.804 27.7008 132.432 27.7008C131.936 27.7008 131.595 27.8558 131.378 28.1658C131.161 28.4758 131.037 29.0028 131.037 29.7468V32.6918H129.797V26.8018H130.789L130.975 27.5768H131.037C131.192 27.2978 131.44 27.0808 131.75 26.9258C132.06 26.7708 132.401 26.7088 132.773 26.7088C133.672 26.7088 134.292 27.0188 134.571 27.6388H134.664C134.85 27.3598 135.098 27.1118 135.408 26.9568C135.718 26.8018 136.09 26.7088 136.493 26.7088C137.206 26.7088 137.702 26.8948 138.043 27.2358C138.353 27.5768 138.539 28.1348 138.539 28.8478V32.6918H137.299V29.0648C137.299 28.5998 137.206 28.2898 137.051 28.0418C136.865 27.8248 136.617 27.7008 136.245 27.7008C135.749 27.7008 135.408 27.8558 135.191 28.1658C134.974 28.4758 134.85 28.9408 134.85 29.5608V32.6918H133.486ZM145.421 29.7158C145.421 30.6768 145.173 31.4208 144.677 31.9788C144.181 32.5058 143.499 32.7848 142.631 32.7848C142.073 32.7848 141.608 32.6608 141.174 32.4128C140.74 32.1648 140.43 31.7928 140.213 31.3278C139.996 30.8628 139.872 30.3358 139.872 29.7158C139.872 28.7548 140.12 28.0108 140.616 27.4838C141.112 26.9568 141.794 26.6778 142.693 26.6778C143.53 26.6778 144.212 26.9568 144.708 27.5148C145.173 28.0728 145.421 28.7858 145.421 29.7158ZM141.143 29.7158C141.143 31.0798 141.639 31.7618 142.662 31.7618C143.654 31.7618 144.15 31.0798 144.15 29.7158C144.15 28.3828 143.654 27.7008 142.662 27.7008C142.135 27.7008 141.763 27.8868 141.515 28.2278C141.267 28.5688 141.143 29.0648 141.143 29.7158ZM152.055 32.6918H150.784V29.0648C150.784 28.5998 150.691 28.2588 150.505 28.0418C150.319 27.8248 150.04 27.7008 149.637 27.7008C149.11 27.7008 148.707 27.8558 148.49 28.1658C148.273 28.4758 148.118 29.0028 148.118 29.7468V32.6918H146.878V26.8018H147.87L148.056 27.5768H148.118C148.304 27.2978 148.552 27.0808 148.862 26.9258C149.172 26.7708 149.544 26.7088 149.947 26.7088C151.373 26.7088 152.055 27.4218 152.055 28.8788V32.6918ZM156.364 32.7848C155.434 32.7848 154.721 32.5058 154.225 31.9788C153.698 31.4518 153.45 30.7078 153.45 29.7778C153.45 28.8168 153.698 28.0728 154.163 27.5148C154.628 26.9568 155.31 26.6778 156.147 26.6778C156.922 26.6778 157.542 26.9258 157.976 27.3908C158.441 27.8558 158.658 28.5068 158.658 29.3438V30.0258H154.721C154.752 30.5838 154.907 31.0488 155.186 31.3278C155.465 31.6378 155.899 31.7928 156.426 31.7928C156.767 31.7928 157.108 31.7618 157.387 31.6998C157.666 31.6378 158.007 31.5138 158.348 31.3588V32.3818C158.038 32.5368 157.728 32.6298 157.418 32.6918C157.108 32.7538 156.767 32.7848 156.364 32.7848ZM156.116 27.6388C155.713 27.6388 155.403 27.7628 155.155 28.0108C154.907 28.2588 154.783 28.6308 154.721 29.1268H157.387C157.387 28.6308 157.263 28.2588 157.046 28.0108C156.829 27.7628 156.519 27.6388 156.116 27.6388ZM158.968 26.8018H160.332L161.541 30.1498C161.727 30.6148 161.851 31.0798 161.913 31.4828H161.944C161.975 31.2968 162.037 31.0488 162.13 30.7698C162.223 30.4908 162.657 29.1578 163.494 26.8018H164.858L162.347 33.4668C161.882 34.6758 161.138 35.2958 160.053 35.2958C159.774 35.2958 159.495 35.2648 159.247 35.2028V34.2108C159.433 34.2418 159.65 34.2728 159.898 34.2728C160.487 34.2728 160.921 33.9318 161.169 33.2188L161.386 32.6608L158.968 26.8018Z" fill="white"/>
</svg>
