<?xml version="1.0" standalone="no"?>
<!DOCTYPE svg PUBLIC "-//W3C//DTD SVG 20010904//EN"
 "http://www.w3.org/TR/2001/REC-SVG-20010904/DTD/svg10.dtd">
<svg version="1.0" xmlns="http://www.w3.org/2000/svg"
 width="1840.000000pt" height="1840.000000pt" viewBox="0 0 1840.000000 1840.000000"
 preserveAspectRatio="xMidYMid meet">
<metadata>
Created by potrace 1.14, written by Peter Selinger 2001-2017
</metadata>
<g transform="translate(0.000000,1840.000000) scale(0.100000,-0.100000)"
fill="#000000" stroke="none">
<path d="M24 12076 c0 -714 2 -805 16 -808 8 -2 612 -3 1342 -3 l1327 1 0
-2016 c0 -1108 1 -2065 1 -2126 l0 -111 845 0 c465 1 846 3 846 6 1 3 3 960 4
2126 2 1166 3 2123 4 2127 1 3 24 6 51 6 28 1 54 3 59 7 5 3 12 1 16 -5 4 -6
12 -7 24 -1 9 5 23 6 29 2 7 -4 33 -5 58 -1 24 4 47 3 50 -2 3 -4 13 -4 23 1
9 5 23 6 29 2 7 -4 33 -5 58 -1 24 4 47 3 50 -2 3 -4 13 -4 23 1 9 5 23 6 29
2 7 -4 33 -5 58 -1 24 4 47 3 50 -2 3 -4 14 -4 24 2 10 6 21 6 24 2 3 -5 26
-6 50 -2 25 4 51 3 58 -1 6 -4 19 -4 29 1 9 5 19 7 22 3 8 -7 97 -10 97 -3 0
3 21 4 47 3 27 -1 48 -2 48 -3 0 -6 58 -4 61 2 3 5 13 4 22 -1 11 -6 24 -6 35
0 11 7 17 7 17 0 0 -6 11 -6 29 -1 15 4 34 4 42 0 7 -5 21 -4 30 1 12 6 20 5
24 -1 4 -7 11 -7 18 -2 7 5 21 6 32 2 11 -4 32 -4 46 0 15 4 32 4 40 0 7 -5
20 -5 30 0 9 5 19 7 22 3 8 -7 97 -10 97 -3 0 3 21 4 47 3 27 -1 48 -2 48 -3
0 -6 58 -4 61 2 3 5 13 4 22 -1 11 -6 24 -6 35 0 11 7 17 7 17 0 0 -6 11 -6
29 -1 15 4 34 4 42 0 7 -5 21 -4 30 1 12 6 20 5 24 -1 4 -7 11 -7 18 -2 7 5
21 6 32 2 11 -4 32 -4 46 0 15 4 32 4 40 0 7 -5 20 -5 30 0 9 5 19 7 22 3 8
-7 97 -10 97 -3 0 3 21 4 47 3 27 -1 48 -2 48 -3 0 -6 58 -4 61 2 3 5 13 4 22
-1 11 -6 24 -6 35 0 11 7 17 7 17 0 0 -6 11 -6 29 -1 15 4 34 4 42 0 7 -5 21
-4 30 1 12 6 20 5 24 -1 4 -7 11 -7 18 -2 7 5 21 6 32 2 11 -4 32 -4 46 0 15
4 32 4 40 0 7 -5 20 -5 30 0 9 5 19 7 22 3 8 -7 97 -10 97 -3 0 3 21 4 47 3
27 -1 48 -2 48 -3 0 -6 58 -4 61 2 3 5 13 4 22 -1 11 -6 24 -6 35 0 11 7 17 7
17 0 0 -6 11 -6 29 -1 15 4 34 4 42 0 7 -5 21 -4 30 1 12 6 20 5 24 -1 5 -8
11 -8 19 -1 7 6 15 8 18 5 7 -7 88 -11 88 -4 0 3 21 4 47 3 27 -1 48 -2 48 -3
0 -6 58 -4 61 2 3 5 13 4 22 -1 11 -6 24 -6 35 0 11 7 17 7 17 0 0 -6 11 -6
29 -1 15 4 34 4 42 0 7 -5 21 -4 30 1 12 6 20 5 24 -1 5 -8 11 -8 19 -1 7 6
15 8 18 5 7 -7 88 -11 88 -4 0 3 21 4 47 3 27 -1 48 -2 48 -3 0 -6 58 -4 61 2
3 5 13 4 22 -1 11 -6 24 -6 35 0 11 7 17 7 17 0 0 -6 11 -6 29 -1 15 4 34 4
42 0 7 -5 21 -4 30 1 12 6 20 5 24 -1 5 -8 11 -8 19 -1 7 6 15 8 18 5 7 -7 88
-11 88 -4 0 3 21 4 47 3 27 -1 48 -2 48 -3 0 -6 58 -4 61 2 3 5 13 4 22 -1 11
-6 24 -6 35 0 9 6 17 6 17 1 0 -4 23 -6 50 -2 28 4 53 3 56 -2 3 -4 13 -4 23
1 9 5 23 6 29 2 7 -4 33 -5 58 -1 24 4 47 3 50 -2 3 -4 13 -4 23 1 9 5 23 6
29 2 7 -4 33 -5 58 -1 24 4 47 3 50 -2 3 -4 13 -4 23 1 9 5 23 6 29 2 7 -4 33
-5 58 -1 24 4 47 3 50 -2 3 -4 13 -4 23 2 10 5 21 7 24 4 7 -7 97 -11 97 -4 0
3 21 4 47 3 27 -1 48 -2 48 -3 0 -6 58 -4 61 2 3 5 13 4 22 -1 11 -6 24 -6 35
0 11 7 17 7 17 0 0 -6 11 -6 29 -1 15 4 34 4 42 0 7 -5 21 -4 30 1 12 6 20 5
24 -1 5 -8 11 -8 19 -1 7 6 15 8 18 5 7 -7 88 -11 88 -4 0 4 91 4 98 -1 7 -5
29 -4 43 2 8 4 21 4 28 -1 8 -4 27 -4 42 0 16 5 29 5 29 0 0 -5 13 -5 30 0 20
6 32 5 37 -3 3 -6 7 -110 7 -231 l1 -220 890 0 c490 -1 902 1 916 2 l25 4 -2
481 c-1 265 -5 505 -9 532 -8 63 -13 90 -15 90 -1 0 -4 11 -6 25 -10 54 -69
209 -106 280 -59 111 -122 195 -218 290 -94 94 -103 101 -175 147 -27 18 -54
36 -60 40 -49 38 -264 121 -355 137 -19 3 -46 9 -60 13 -14 5 -2547 9 -5630
10 l-5606 3 0 -804z"/>
<path d="M12080 12834 c147 -90 274 -218 373 -378 74 -119 154 -327 180 -471
3 -16 8 -41 11 -55 6 -23 11 -61 21 -150 6 -51 19 -493 25 -844 2 -102 8 -131
34 -163 8 -10 49 -65 90 -123 41 -58 80 -110 85 -117 6 -7 11 -16 11 -22 0 -5
3 -11 8 -13 11 -5 112 -147 112 -158 0 -6 4 -10 8 -10 4 0 15 -12 24 -27 9
-16 26 -39 38 -53 11 -13 31 -40 42 -60 12 -19 25 -37 28 -40 3 -3 28 -36 55
-75 27 -38 53 -71 57 -73 4 -2 8 -9 8 -15 0 -6 8 -20 19 -31 10 -12 40 -52 66
-91 27 -38 54 -76 62 -83 7 -7 13 -17 13 -21 0 -4 8 -16 18 -27 9 -11 22 -27
27 -36 10 -18 277 -391 298 -418 7 -9 28 -38 46 -65 19 -28 37 -52 40 -55 4
-3 11 -13 16 -22 6 -9 38 -55 73 -102 34 -48 62 -90 62 -95 0 -5 4 -11 8 -13
7 -2 118 -152 164 -222 7 -10 23 -31 36 -46 12 -15 22 -32 22 -38 0 -6 4 -12
8 -14 5 -1 28 -32 53 -68 24 -36 47 -67 50 -70 5 -5 575 -802 657 -920 25 -36
48 -67 51 -70 3 -3 20 -25 37 -50 82 -119 238 -338 252 -355 4 -5 16 -21 25
-35 l17 -25 1495 -1 1495 -1 0 2934 0 2933 -837 -2 -837 -3 0 -2207 c0 -1561
-3 -2208 -10 -2210 -6 -1 -36 -2 -66 -3 l-56 -1 -349 524 c-193 288 -352 529
-354 535 -2 6 -12 19 -21 29 -9 10 -23 31 -31 46 -8 15 -17 29 -20 32 -13 11
-149 220 -149 229 0 5 -4 11 -8 13 -10 4 -152 216 -152 228 0 4 -3 10 -8 12
-11 4 -92 126 -92 137 0 5 -4 11 -8 13 -5 2 -86 120 -180 263 -94 143 -175
265 -180 270 -4 6 -39 57 -77 115 -38 58 -73 107 -77 108 -5 2 -8 8 -8 12 0 8
-130 209 -158 245 -4 6 -31 46 -60 90 -63 97 -58 90 -132 198 -33 49 -60 91
-60 93 0 3 -5 10 -10 17 -6 7 -38 53 -70 102 -33 50 -63 95 -67 100 -10 13
-144 214 -158 237 -5 9 -41 63 -80 120 -38 56 -72 107 -74 112 -2 5 -29 46
-61 91 -32 45 -59 86 -61 91 -2 5 -58 89 -123 187 l-119 177 -821 0 -820 0 74
-46z"/>
<path d="M4807 10896 c-6 -19 0 -2600 7 -2626 3 -14 9 -45 12 -70 10 -80 70
-270 117 -369 29 -63 85 -160 96 -171 4 -3 24 -32 46 -65 46 -69 224 -251 286
-292 156 -104 203 -131 329 -186 66 -29 221 -73 290 -83 14 -2 41 -6 60 -10
62 -12 4139 -12 4143 0 1 6 3 306 2 666 l-1 655 -1654 1 c-910 1 -1668 4
-1685 7 -138 29 -315 204 -339 337 -2 14 -5 25 -6 25 -1 0 -3 491 -5 1090 -1
600 -3 1093 -4 1096 -2 11 -1690 6 -1694 -5z"/>
<path d="M8802 10242 c-27 -3 -31 -6 -22 -21 5 -10 7 -21 4 -24 -4 -4 -7 -674
-3 -702 1 -5 0 -14 -1 -20 -2 -10 -2 -129 -1 -265 l1 -65 907 1 908 0 -1
-1066 -1 -1066 836 0 836 1 0 1609 c0 1606 0 1608 -20 1616 -11 4 -21 4 -23
-1 -2 -4 -14 -4 -26 1 -12 4 -28 5 -35 0 -7 -4 -28 -4 -47 0 -19 4 -34 4 -34
-1 0 -4 -6 -6 -13 -3 -20 7 -117 10 -117 3 0 -4 -16 -3 -35 1 -19 4 -35 5 -35
1 0 -7 -88 -6 -96 2 -4 3 -16 2 -29 -3 -13 -5 -26 -6 -29 -3 -8 8 -74 8 -82 1
-3 -4 -19 -2 -35 2 -16 5 -29 5 -29 0 0 -5 -13 -5 -29 0 -15 4 -34 4 -42 0 -7
-5 -17 -6 -22 -3 -13 8 -134 6 -147 -2 -5 -3 -10 -3 -10 2 0 9 -67 9 -76 0 -3
-3 -16 -2 -28 3 -13 4 -29 4 -36 0 -8 -5 -18 -6 -23 -3 -13 8 -134 6 -146 -1
-5 -4 -12 -2 -16 3 -3 7 -15 7 -30 1 -13 -5 -26 -6 -29 -2 -3 5 -30 5 -61 2
-31 -3 -58 -3 -61 2 -3 4 -15 3 -28 -2 -13 -5 -27 -6 -30 -3 -8 8 -74 8 -82 1
-3 -4 -19 -2 -35 2 -16 5 -29 5 -29 0 0 -5 -13 -5 -30 0 -17 5 -43 5 -60 0
-16 -5 -30 -5 -30 0 0 4 -16 4 -35 0 -19 -4 -35 -4 -35 0 0 4 -18 4 -40 0 -22
-4 -43 -4 -46 1 -2 4 -15 4 -28 -1 -13 -5 -27 -6 -30 -3 -8 9 -126 9 -126 1 0
-4 -6 -5 -13 -2 -20 7 -117 10 -117 3 0 -4 -16 -3 -35 1 -19 4 -35 5 -35 1 0
-7 -88 -6 -96 2 -4 3 -16 2 -29 -3 -13 -5 -26 -6 -29 -3 -8 8 -74 8 -82 1 -3
-4 -19 -2 -35 2 -16 5 -29 5 -29 0 0 -5 -13 -5 -29 0 -15 4 -34 4 -42 0 -7 -5
-17 -6 -22 -3 -13 8 -134 6 -147 -2 -5 -3 -10 -3 -10 2 0 9 -67 9 -76 0 -3 -3
-16 -2 -28 3 -13 4 -29 4 -36 0 -8 -5 -18 -6 -23 -3 -13 8 -134 6 -146 -1 -5
-4 -12 -2 -16 3 -3 7 -15 7 -30 1 -13 -5 -26 -6 -29 -2 -3 5 -30 5 -61 2 -31
-3 -58 -3 -61 2 -3 4 -15 3 -28 -2 -13 -5 -27 -5 -32 -2 -5 4 -24 6 -42 4z"/>
<path d="M3967 6334 c-1 -2 -18 -6 -37 -9 -46 -9 -64 -13 -67 -15 -2 -2 -6 -3
-10 -4 -21 -3 -102 -58 -129 -88 -34 -36 -88 -118 -78 -118 4 0 2 -6 -4 -12
-17 -21 -33 -122 -31 -190 8 -234 160 -375 406 -375 48 0 93 2 98 6 6 3 19 7
29 8 32 5 114 54 149 89 l33 34 0 162 -1 163 -166 1 -166 0 1 -60 c0 -34 3
-63 7 -66 4 -3 48 -5 98 -5 l91 1 0 -66 c0 -36 -4 -70 -8 -77 -21 -33 -193
-76 -208 -52 -2 4 -11 6 -19 2 -28 -10 -123 46 -154 90 -54 79 -64 163 -31
269 51 164 236 228 392 134 l52 -31 43 44 c24 24 43 46 43 50 0 3 -17 17 -38
31 -20 14 -39 28 -42 31 -9 12 -104 41 -145 46 -92 9 -105 10 -108 7z"/>
<path d="M14456 6305 c-64 -21 -112 -52 -161 -101 -14 -14 -25 -29 -25 -34 0
-4 -3 -10 -7 -12 -11 -4 -52 -97 -60 -133 -8 -39 -9 -171 -1 -210 9 -46 54
-137 82 -167 81 -85 163 -119 296 -124 74 -2 108 2 155 18 33 11 62 24 63 29
2 5 7 7 11 5 4 -3 24 10 44 27 l38 32 -46 48 c-51 52 -56 54 -80 31 -57 -57
-226 -69 -306 -21 -82 48 -121 118 -121 216 0 57 5 99 12 109 2 1 3 5 4 10 5
21 38 70 63 93 52 49 95 63 183 63 73 0 105 -8 153 -40 l40 -26 44 48 45 48
-28 24 c-31 25 -117 69 -156 79 -62 15 -179 9 -242 -12z"/>
<path d="M317 6250 c-17 -36 -31 -67 -32 -70 -4 -11 -39 -89 -71 -158 -19 -40
-34 -76 -34 -80 0 -4 -13 -32 -28 -62 -16 -30 -30 -59 -31 -65 -3 -11 -9 -25
-74 -172 l-46 -103 27 -1 c15 -1 34 -2 42 -3 8 -1 23 2 32 6 9 5 20 4 23 -2 8
-13 45 6 45 23 1 7 13 37 29 67 l27 55 201 1 200 0 19 -45 c45 -109 40 -105
123 -103 41 1 75 3 76 4 3 3 -144 335 -200 456 -14 29 -25 54 -25 57 0 4 -40
94 -89 200 l-28 59 -78 1 -78 0 -30 -65z m120 -127 c8 -23 62 -147 113 -260
l20 -43 -38 -1 c-20 0 -83 -1 -140 -2 -111 -2 -115 0 -87 53 9 17 13 30 9 30
-4 0 -2 6 4 13 5 6 23 44 40 83 47 107 55 128 54 137 -4 15 19 6 25 -10z"/>
<path d="M7207 6310 c-9 -4 -12 -96 -12 -382 0 -207 3 -380 7 -383 8 -8 553
-9 566 -1 13 7 9 126 -5 134 -6 4 -49 6 -95 5 -100 -3 -80 -3 -213 0 l-110 2
-1 87 -1 87 166 0 c91 0 187 0 213 0 l47 1 -9 30 c-5 17 -10 31 -11 33 -1 1 3
12 9 24 24 43 3 48 -211 48 -223 -1 -206 -9 -206 90 0 98 -19 90 221 90 l213
0 0 70 0 70 -278 0 c-153 0 -283 -2 -290 -5z"/>
<path d="M10683 6313 c-9 -3 -9 -760 0 -769 3 -3 33 -6 67 -7 54 -2 63 1 69
18 4 11 7 127 6 258 -1 130 1 237 4 237 3 -1 34 -38 68 -83 34 -45 70 -91 80
-102 10 -11 36 -45 58 -75 22 -30 42 -57 45 -60 3 -3 21 -25 40 -50 110 -142
112 -144 155 -142 21 1 39 3 41 5 4 3 6 346 4 657 l0 115 -62 -1 c-35 -1 -68
-2 -74 -3 -9 -1 -12 -66 -12 -232 0 -127 -2 -233 -4 -235 -2 -2 -23 22 -46 54
-23 31 -53 71 -68 87 -14 17 -51 64 -82 105 -32 41 -67 86 -79 100 -11 14 -39
47 -60 75 -38 48 -41 49 -91 50 -29 0 -55 -1 -59 -2z"/>
<path d="M18230 6312 c-5 -2 -42 -56 -82 -120 -39 -64 -75 -119 -79 -122 -3
-3 -16 -22 -27 -43 l-20 -38 -99 160 -98 160 -87 1 c-49 0 -88 -2 -88 -5 0 -3
12 -23 28 -44 30 -43 27 -39 114 -171 34 -52 64 -97 67 -100 4 -3 12 -17 20
-32 8 -16 18 -28 23 -28 4 0 8 -5 8 -12 0 -6 8 -20 17 -31 15 -16 18 -41 18
-178 1 -87 4 -161 7 -164 8 -8 126 -10 134 -2 3 3 5 75 5 160 l0 154 39 56
c22 30 40 60 40 66 0 6 3 11 8 11 4 0 32 37 62 83 29 45 57 84 62 85 4 2 8 8
8 12 0 5 21 39 46 75 25 36 42 65 37 66 -35 3 -155 3 -163 1z"/>
</g>
</svg>
