<svg width="171" height="34" viewBox="0 0 171 34" fill="none" xmlns="http://www.w3.org/2000/svg">
<g clip-path="url(#clip0_193_12209)">
<path d="M4.50121 4.39303H8.21755C11.6141 4.39303 13.1109 5.45179 13.1109 7.60247C13.1109 9.47146 11.6141 10.7405 8.60971 10.7405H4.50121V4.39303ZM0 25.5401H9.10845C13.8952 25.5401 18.682 23.8532 18.682 18.4234C18.682 15.2139 16.4009 12.7501 13.2221 12.3936V12.3194C15.8229 11.5507 17.6167 9.68232 17.6167 6.86196C17.6167 2.31431 13.6821 0.588698 9.85913 0.588698H0V25.5401ZM4.50121 14.5448H8.82288C12.4663 14.5448 14.1871 15.4625 14.1871 18.0725C14.1871 21.3455 10.9643 21.7357 8.64334 21.7357H4.50121V14.5448Z" fill="white"/>
<path fill-rule="evenodd" clip-rule="evenodd" d="M27.522 0V25.5401H20.022V0H27.522Z" fill="white"/>
<path d="M33.0657 17.0829C33.0657 14.4397 34.9603 12.0101 38.105 12.0101C41.2496 12.0101 43.1386 14.4403 43.1386 17.0829C43.1386 19.7256 41.2496 22.1563 38.105 22.1563C34.9598 22.1563 33.0657 19.7262 33.0657 17.0829ZM28.7777 17.0829C28.7777 22.4048 32.9198 25.9606 38.105 25.9606C43.2839 25.9606 47.4323 22.4054 47.4323 17.0829C47.4323 11.7605 43.2845 8.20017 38.105 8.20017C32.9198 8.19961 28.7777 11.761 28.7777 17.0829Z" fill="white"/>
<path d="M53.6538 17.0829C53.6538 14.4397 55.5485 12.0101 58.6931 12.0101C61.8377 12.0101 63.7267 14.4403 63.7267 17.0829C63.7267 19.7256 61.8377 22.1563 58.6931 22.1563C55.5485 22.1563 53.6538 19.7262 53.6538 17.0829ZM49.3658 17.0829C49.3658 22.4048 53.5085 25.9606 58.6931 25.9606C63.872 25.9606 68.0204 22.4054 68.0204 17.0829C68.0204 11.7605 63.8726 8.20017 58.6931 8.20017C53.5079 8.19961 49.3658 11.761 49.3658 17.0829Z" fill="white"/>
<path d="M70.6321 8.623H74.707V11.269H74.7742C75.5255 9.68231 77.1676 8.19736 80.0261 8.19736C82.672 8.19736 84.4994 9.21732 85.3903 11.3354C86.6403 9.18976 88.462 8.19736 91.0292 8.19736C95.6028 8.19736 97.2125 11.4096 97.2125 15.463V25.5406H92.9244V15.955C92.9244 13.8426 92.2855 12.0096 89.7462 12.0096C87.0672 12.0096 86.0634 14.1934 86.0634 16.375V25.5401H81.7811V15.4625C81.7811 13.3776 80.9233 12.0096 78.8496 12.0096C76.0299 12.0096 74.9201 14.0472 74.9201 16.3059V25.5401H70.6321V8.623Z" fill="white"/>
<path d="M114.908 17.0829C114.908 19.729 113.019 22.1563 109.869 22.1563C106.724 22.1563 104.83 19.729 104.83 17.0829C104.83 14.4397 106.724 12.0039 109.869 12.0039C113.019 12.0039 114.908 14.4397 114.908 17.0829ZM100.688 25.5401H104.763V23.0042H104.83C106.085 25.0419 108.333 25.9601 110.731 25.9601C116.012 25.9601 119.196 22.0838 119.196 17.0824C119.196 12.0782 115.799 8.19961 110.906 8.19961C107.693 8.19961 105.973 9.67613 105.082 10.7765H104.975V0H100.687L100.688 25.5401Z" fill="white"/>
<path d="M125.424 15.3911C125.743 12.9553 127.318 11.3714 129.852 11.3714C132.531 11.3714 134.174 12.9227 134.213 15.3911H125.424ZM138.501 18.5623V17.4012C138.501 11.5125 135.25 8.20017 130.463 8.20017C125.273 8.20017 121.136 11.761 121.136 17.0829C121.136 22.4048 125.273 25.9606 130.463 25.9606C133.17 25.9606 135.715 25.0098 137.71 22.5819L134.639 20.2958C133.568 21.5929 132.172 22.5819 130.031 22.5819C127.638 22.5819 125.703 21.0644 125.424 18.5623H138.501Z" fill="white"/>
<path d="M141.292 8.623H145.58V11.3022H145.653C146.583 9.36407 148.472 8.19736 150.725 8.19736C151.263 8.19736 151.762 8.30531 152.261 8.44869V12.5353C151.549 12.361 150.866 12.2198 150.187 12.2198C146.151 12.2198 145.58 15.5704 145.58 16.4886V25.5406H141.292L141.292 8.623Z" fill="white"/>
<path d="M161.853 12.0096C164.958 12.0096 166.925 14.0472 166.925 16.98C166.925 19.7948 164.997 21.9455 161.819 21.9455C158.926 21.9455 156.779 19.7256 156.779 17.0464C156.779 14.0472 158.848 12.0096 161.853 12.0096ZM166.925 8.623V11.1611H166.858C165.603 9.11498 163.35 8.19736 160.956 8.19736C155.671 8.19736 152.492 12.0759 152.492 17.0829C152.492 21.8712 155.888 25.7504 161.029 25.7504C163.176 25.7504 165.39 24.9429 166.646 23.287H166.707V24.5229C166.707 27.8679 165.429 30.1962 161.281 30.1962C158.888 30.1962 157.099 29.3112 155.384 27.752L152.817 31.2128C155.238 33.336 158.136 34 161.32 34C168.002 34 171 30.1186 171 24.0247V8.623H166.925Z" fill="white"/>
</g>
<defs>
<clipPath id="clip0_193_12209">
<rect width="171" height="34" fill="white"/>
</clipPath>
</defs>
</svg>
