<svg width="164" height="46" viewBox="0 0 164 46" fill="none" xmlns="http://www.w3.org/2000/svg">
<path fill-rule="evenodd" clip-rule="evenodd" d="M22.6929 0.0192983C35.1415 0.0192983 45.1826 10.0826 45.1826 22.6177C45.1826 34.9762 35.0241 45.1572 22.5167 45.0984C10.4204 44.9807 0.261902 34.9762 0.261902 22.5588C0.261902 10.0826 10.2443 -0.0395517 22.6929 0.0192983ZM5.60541 34.3288C5.60541 34.5642 5.72285 34.6819 5.84029 34.8585C6.72109 36.0943 7.71933 37.2713 8.89373 38.2718C9.42221 38.7426 9.95069 39.2134 10.5379 39.6253C12.182 40.6846 13.8849 41.6851 15.764 42.3324C17.2907 42.8621 18.8761 43.274 20.4616 43.4506C21.6947 43.5683 22.9865 43.6271 24.2196 43.4506C24.9243 43.3329 25.6876 43.3329 26.3923 43.0386C26.5097 43.0975 26.5684 42.9798 26.6271 42.9798C28.0951 42.7444 29.5044 42.2736 30.9137 41.6851C35.4939 39.6842 38.9583 36.4474 41.1897 31.9748C43.1862 28.0319 43.8321 23.8535 43.1862 19.4986C42.599 15.3203 40.8374 11.6716 38.0188 8.61139C34.2607 4.31534 29.4457 2.07905 23.7499 1.72595C21.2249 1.5494 18.7 1.9025 16.2924 2.7264C12.3582 4.02109 9.12861 6.25739 6.48621 9.49414C3.4915 13.2017 2.0235 17.4389 1.84734 22.1469C1.78862 23.3239 1.90606 24.442 2.08222 25.619C2.43454 28.2673 3.31534 30.7978 4.66589 33.093C5.01821 33.4461 5.25309 33.9169 5.60541 34.3288Z" fill="#AAADC0"/>
<path fill-rule="evenodd" clip-rule="evenodd" d="M26.3923 42.9798C25.6876 43.3329 24.9243 43.3329 24.2196 43.3917C22.9865 43.5683 21.6947 43.5094 20.4615 43.3917C18.8761 43.2152 17.2907 42.8032 15.7639 42.2736C13.8849 41.6262 12.182 40.6258 10.5379 39.5665C9.95068 39.1545 9.4222 38.6837 8.89372 38.2129C7.71932 37.2125 6.72108 36.0355 5.84029 34.7996C5.72285 34.6231 5.60541 34.4465 5.60541 34.27C7.01469 31.0921 7.54316 27.7376 7.83676 24.3243C7.9542 22.7354 8.01292 21.1464 8.30652 19.5575C8.60012 17.7331 9.30476 16.0853 10.5966 14.6729C11.771 13.4371 13.239 12.6132 14.8244 12.0247C16.1163 11.495 17.4668 11.0242 18.9348 10.9654C20.2854 10.9065 21.5772 11.0831 22.8691 11.3773C24.8068 11.8481 26.7446 12.4366 28.5649 13.3194C30.0329 13.9079 31.5596 14.4964 33.0863 14.9672C34.6718 15.438 36.2572 15.9676 37.6077 16.9681C39.3106 18.2628 39.7804 19.9106 39.017 21.9115C38.5473 23.1473 37.6665 24.0889 36.7857 25.0305C35.2002 26.6783 33.4974 28.2084 31.9706 29.9151C30.209 31.9748 28.6236 34.0934 27.5079 36.5651C26.5684 38.6249 26.0399 40.7435 26.3923 42.9798ZM37.7252 23.6181C37.6665 23.6181 37.6077 23.6181 37.549 23.677C37.4903 23.677 37.4316 23.7358 37.4316 23.7947C37.4316 23.7947 37.4316 23.7947 37.4316 23.8535C37.4903 23.8535 37.549 23.7947 37.549 23.7358L37.7252 23.6181C37.7839 23.6181 37.8426 23.6181 37.7252 23.6181C37.7839 23.5593 37.7252 23.6181 37.7252 23.6181ZM19.7569 13.3782C17.5255 13.3782 15.7052 15.2026 15.7052 17.38C15.7052 19.6163 17.5255 21.3818 19.6982 21.4407C21.9295 21.4407 23.6911 19.6163 23.7499 17.38C23.7499 15.1437 21.9883 13.3782 19.7569 13.3782ZM23.0452 25.7367C23.3975 26.2664 24.0435 26.7372 24.8068 26.9726C26.3335 27.5022 27.8602 27.5022 29.387 27.208C32.0881 26.6783 34.613 25.7367 36.9031 24.2066C37.0206 24.0889 37.2554 24.0889 37.3141 23.8535C37.1967 23.7947 37.138 23.8535 37.0793 23.9124C36.3159 24.3832 35.4938 24.7363 34.6718 25.0894C32.5578 25.9721 30.3265 26.5606 27.9777 26.6783C26.2748 26.796 24.5719 26.6783 23.0452 25.7367ZM34.1433 22.2646C34.613 22.2646 35.0241 21.8526 35.0241 21.323C35.0241 20.8522 34.613 20.4402 34.0846 20.4991C33.6148 20.4991 33.2625 20.911 33.2625 21.3818C33.2625 21.9115 33.6148 22.2646 34.1433 22.2646Z" fill="#A9ACBF"/>
<path fill-rule="evenodd" clip-rule="evenodd" d="M22.8103 11.3772C21.5185 11.1418 20.2266 10.9064 18.8761 10.9653C17.4081 11.0241 16.1162 11.4949 14.7657 12.0246C13.1802 12.6131 11.7122 13.437 10.5379 14.6728C9.24601 16.0264 8.54138 17.6742 8.24778 19.5574C8.0129 21.1463 7.95418 22.7353 7.77802 24.3242C7.48442 27.7375 6.95594 31.1508 5.54666 34.2699C5.13562 33.9168 4.90074 33.3871 4.66586 32.9752C3.3153 30.68 2.43451 28.1495 2.08219 25.5012C1.90603 24.3242 1.78859 23.2061 1.84731 22.0291C2.02347 17.3211 3.49146 13.0839 6.48618 9.37632C9.06986 6.13957 12.3582 3.90327 16.2924 2.60857C18.6999 1.84352 21.2249 1.49042 23.7498 1.60812C29.3869 1.96122 34.202 4.25637 38.0188 8.43472C40.8373 11.5538 42.5402 15.2025 43.1861 19.322C43.832 23.6769 43.1861 27.8552 41.1896 31.7982C38.9583 36.2707 35.4938 39.5075 30.9137 41.5084C29.5631 42.0969 28.1538 42.5677 26.6271 42.8031C26.5097 42.8031 26.4509 42.9796 26.3922 42.8619C26.0399 40.6256 26.5684 38.507 27.4492 36.4473C28.5649 33.9756 30.1503 31.857 31.9119 29.7973C33.3799 28.0906 35.0828 26.5017 36.7269 24.9127C37.6665 23.9711 38.4885 23.0295 38.9583 21.7937C39.7804 19.7928 39.3106 18.145 37.549 16.8503C36.1985 15.8498 34.613 15.3202 33.0276 14.8494C31.5009 14.3786 29.9741 13.7901 28.5061 13.2016C28.2125 12.2011 27.5079 11.5538 26.5684 11.2007C25.3353 10.9064 24.1022 11.0241 22.8103 11.3772ZM42.0117 23.9123H42.1292C42.364 23.0884 42.364 22.2056 42.364 21.3229C42.364 20.3224 42.2466 19.322 42.0704 18.3215C41.4245 15.0848 39.9565 12.26 37.6665 9.84712C36.2572 8.37587 34.6717 7.14002 33.0863 5.84532C31.677 4.66832 30.1503 3.78557 28.3887 3.31477C26.6858 2.90282 25.0417 2.66742 23.2801 2.96167C23.1626 2.96167 23.0452 2.96167 23.0452 3.07937C23.0452 3.19707 23.1626 3.19707 23.2801 3.19707C25.8638 3.66787 28.33 4.49177 30.7375 5.43337C33.0863 6.37497 35.0828 7.72852 36.5508 9.84712C37.549 11.3184 38.4885 12.8485 39.2519 14.4963C40.2501 16.7326 41.0135 19.0277 41.4832 21.3817C41.7181 22.3233 41.8943 23.0884 42.0117 23.9123Z" fill="#DADEEF"/>
<path fill-rule="evenodd" clip-rule="evenodd" d="M19.7569 13.3784C21.9883 13.3784 23.7499 15.2028 23.7499 17.3802C23.7499 19.6165 21.9296 21.382 19.6982 21.4409C17.4669 21.4409 15.7053 19.6165 15.7053 17.3802C15.7053 15.1439 17.5256 13.3784 19.7569 13.3784ZM22.5755 17.4391C22.5755 15.8501 21.3424 14.6143 19.7569 14.6143C18.1715 14.6143 16.9384 15.8501 16.9384 17.4391C16.9384 18.9692 18.1715 20.2639 19.6982 20.2639H19.7569C21.2837 20.2639 22.5168 19.028 22.5755 17.4391Z" fill="#FCFDFB"/>
<path fill-rule="evenodd" clip-rule="evenodd" d="M23.0452 25.7368C24.5719 26.6784 26.2748 26.7961 27.9777 26.7373C30.3265 26.6196 32.5578 26.0899 34.6717 25.1483C35.4938 24.7952 36.3159 24.4421 37.0792 23.9713C37.138 23.9125 37.1967 23.8536 37.3141 23.9125C37.2554 24.089 37.0792 24.1479 36.9031 24.2656C34.613 25.7957 32.088 26.7373 29.3869 27.2669C27.8602 27.5612 26.2748 27.5612 24.8068 27.0315C24.0434 26.7373 23.3388 26.2665 23.0452 25.7368ZM22.8103 11.3774C24.0434 11.0243 25.3353 10.9066 26.5684 11.3774C27.5079 11.7305 28.2125 12.3779 28.5061 13.3783C26.7445 12.4367 24.8068 11.8482 22.8103 11.3774Z" fill="#7E8295"/>
<path fill-rule="evenodd" clip-rule="evenodd" d="M34.1433 22.2645C33.6736 22.2645 33.2625 21.8526 33.2625 21.3818C33.2625 20.911 33.6148 20.499 34.0846 20.499C34.5544 20.499 34.9654 20.8521 35.0241 21.3229C34.9654 21.8526 34.6131 22.2645 34.1433 22.2645Z" fill="#FCFDFB"/>
<path fill-rule="evenodd" clip-rule="evenodd" d="M37.5491 23.7359C37.5491 23.7947 37.4904 23.8536 37.4316 23.8536C37.4316 23.7359 37.4904 23.677 37.5491 23.7359ZM37.7252 23.6182L37.5491 23.7359L37.4904 23.677C37.6078 23.6182 37.6665 23.6182 37.7252 23.6182Z" fill="#A9ACBF"/>
<path fill-rule="evenodd" clip-rule="evenodd" d="M42.0118 23.9123C41.8356 23.0884 41.6594 22.3233 41.542 21.4994C41.0722 19.0866 40.2502 16.7914 39.3106 14.614C38.606 12.9662 37.6665 11.4361 36.6095 9.96485C35.1415 7.84625 33.2038 6.4927 30.7962 5.5511C28.33 4.6095 25.9225 3.72675 23.3388 3.3148C23.2214 3.3148 23.1039 3.3148 23.1039 3.1971C23.1039 3.0794 23.2214 3.0794 23.3388 3.0794C25.0417 2.78515 26.7446 2.9617 28.4475 3.4325C30.2091 3.9033 31.7358 4.8449 33.145 5.96305C34.7305 7.25775 36.3159 8.4936 37.7252 9.96485C40.0153 12.3777 41.4833 15.2025 42.1292 18.4392C42.3054 19.4397 42.4228 20.4401 42.4228 21.4406C42.4228 22.2645 42.4228 23.1472 42.1879 24.03L42.0118 23.9123Z" fill="#FFFEFC"/>
<path fill-rule="evenodd" clip-rule="evenodd" d="M22.5755 17.4388C22.5755 18.9689 21.3424 20.2636 19.8156 20.2636H19.7569C18.2302 20.2636 16.9384 19.0278 16.9384 17.4388V17.38C16.9384 15.791 18.2302 14.5552 19.7569 14.5552C21.2836 14.5552 22.5755 15.8499 22.5755 17.4388Z" fill="#7E8295"/>
<path fill-rule="evenodd" clip-rule="evenodd" d="M111.654 28.7967C111.595 28.8555 111.536 28.8555 111.477 28.9144C109.657 30.9741 107.367 31.3272 104.901 30.6799C101.847 29.9148 100.203 27.7374 99.5573 24.736C99.1462 22.794 99.2637 20.8519 100.027 19.0276C101.378 15.7909 104.431 14.0254 107.895 14.4962C109.481 14.7316 110.949 15.2612 112.065 16.4382C112.887 17.321 113.356 18.3803 113.533 19.5573C113.591 19.7926 113.474 19.8515 113.298 19.8515C112.593 19.8515 111.83 19.8515 111.125 19.8515C110.949 19.8515 110.89 19.7926 110.831 19.6161C110.479 18.0272 109.422 17.1444 107.895 16.8501C106.134 16.4971 104.607 16.8502 103.433 18.2625C102.376 19.5572 102.082 21.1462 102.082 22.794C102.082 24.0298 102.317 25.2068 102.846 26.2661C104.079 28.6201 107.132 29.444 109.422 28.0905C110.714 27.3254 111.125 26.0896 111.243 24.6772C111.243 24.3829 111.066 24.4418 110.89 24.4418C109.716 24.4418 108.6 24.4418 107.426 24.4418C107.073 24.4418 107.015 24.3241 107.015 24.0298C107.015 23.559 107.015 23.1471 107.015 22.6763C107.015 22.382 107.132 22.3232 107.367 22.3232C109.363 22.3232 111.419 22.3232 113.415 22.3232C113.65 22.3232 113.767 22.382 113.767 22.6174C113.767 25.2068 113.767 27.7374 113.767 30.3268C113.767 30.5622 113.709 30.621 113.474 30.621C113.004 30.621 112.417 30.7387 112.065 30.5622C111.712 30.3268 111.83 29.7383 111.712 29.2675C111.712 29.0909 111.654 28.9144 111.654 28.7967ZM65.1474 19.8515C64.7951 19.8515 64.4427 19.8515 64.0317 19.8515C63.7968 19.8515 63.7381 19.7926 63.6794 19.5573C63.2096 17.9095 62.1527 16.909 60.4498 16.7325C58.5708 16.5559 56.9853 17.1444 56.0458 18.851C54.6365 21.4404 54.6952 24.0887 56.1045 26.6192C57.044 28.3259 59.0992 29.0909 60.9783 28.5613C62.6224 28.0905 63.3858 26.8546 63.7381 25.2657C63.8556 24.6183 63.8556 24.6183 64.5015 24.6183C65.0887 24.6183 65.6759 24.6183 66.2631 24.6183C66.4979 24.6183 66.5567 24.6772 66.4979 24.9126C66.2043 28.0316 64.2079 30.4445 61.1544 30.9153C56.7504 31.6215 53.1098 28.9144 52.4052 24.5006C52.1116 22.5586 52.2877 20.6754 53.0511 18.851C54.4016 15.7909 57.3964 14.1431 60.7434 14.555C62.3288 14.7904 63.7968 15.3201 64.9712 16.4971C65.7933 17.3798 66.2631 18.4391 66.4392 19.6161C66.4979 19.8515 66.4392 19.9103 66.2043 19.9103C65.9107 19.7926 65.4997 19.8515 65.1474 19.8515ZM151.583 30.5622C150.585 30.5622 149.704 30.5622 148.765 30.5622C148.53 30.5622 148.412 30.4445 148.353 30.2679C147.355 28.6201 146.298 27.0312 145.3 25.3834C145.124 25.0891 145.065 25.0891 144.772 25.3245C143.773 26.0307 143.362 26.9723 143.538 28.2082C143.656 28.8555 143.538 29.5617 143.538 30.2679C143.538 30.5622 143.421 30.621 143.186 30.621C142.599 30.621 142.012 30.621 141.425 30.621C141.131 30.621 141.072 30.5033 141.072 30.2091C141.072 27.7962 141.072 25.3834 141.072 22.9117C141.072 20.3811 141.072 17.8506 141.072 15.2612C141.072 14.8493 141.19 14.7316 141.601 14.7904C142.129 14.8493 142.658 14.8493 143.186 14.7904C143.538 14.7904 143.597 14.9081 143.597 15.2024C143.597 17.8506 143.597 20.4988 143.597 23.1471V23.6179L143.715 23.6767C143.891 23.4413 144.126 23.2059 144.302 22.9705C145.476 21.7347 146.651 20.5577 147.884 19.3218C148.001 19.2041 148.119 19.0864 148.295 19.0864C149.234 19.0864 150.174 19.0864 151.113 19.0864C151.113 19.263 150.937 19.3218 150.878 19.4395C149.645 20.6165 148.471 21.7935 147.179 22.9705C146.885 23.2059 146.886 23.3825 147.12 23.7356C148.53 25.8542 149.939 27.9728 151.348 30.0914C151.348 30.2679 151.466 30.3856 151.583 30.5622ZM122.575 25.5011C121.284 25.5011 120.051 25.5011 118.759 25.5011C118.465 25.5011 118.406 25.5599 118.406 25.8542C118.524 28.1493 120.638 29.5617 122.752 28.679C123.339 28.4436 123.809 27.9728 124.043 27.3254C124.161 27.0312 124.337 26.9723 124.572 26.9723C125.1 26.9723 125.688 26.9723 126.216 26.9723C126.51 26.9723 126.568 27.0312 126.451 27.3254C125.805 29.3852 124.396 30.5033 122.282 30.7976C120.403 31.0918 118.641 30.6799 117.291 29.2675C116.351 28.267 115.94 26.9723 115.823 25.6188C115.705 23.971 115.94 22.382 116.997 20.9696C118.348 19.2041 120.168 18.5568 122.282 18.9099C124.513 19.3218 125.864 20.7342 126.51 22.8528C126.745 23.6179 126.803 24.3829 126.745 25.2068C126.745 25.5011 126.627 25.5599 126.392 25.5599C125.159 25.5011 123.867 25.5011 122.575 25.5011ZM121.342 23.8533C122.223 23.8533 123.104 23.8533 123.926 23.8533C124.22 23.8533 124.278 23.7944 124.22 23.5002C123.985 21.9701 122.869 20.8519 121.401 20.7931C119.874 20.7342 118.641 21.7935 118.406 23.3825C118.348 23.6767 118.406 23.7944 118.759 23.7944C119.639 23.8533 120.462 23.8533 121.342 23.8533ZM68.2008 24.8537C68.2008 24.1475 68.3183 23.3825 68.4944 22.6763C69.2578 20.2046 71.4304 18.6745 74.1315 18.851C76.1867 18.9687 77.8896 19.6749 78.8878 21.4993C80.0622 23.7356 80.0622 26.0896 78.8291 28.267C77.7134 30.3268 75.7757 30.9741 73.5443 30.8564C70.1973 30.6799 68.2008 28.3847 68.2008 24.8537ZM70.7258 24.8537C70.7258 25.8542 70.9019 26.7369 71.4891 27.5608C72.4287 28.9144 74.249 29.3263 75.5995 28.3847C75.8931 28.1493 76.1867 27.9139 76.4216 27.6197C77.4199 26.1484 77.4786 23.6767 76.4216 22.1466C75.1885 20.3811 72.6048 20.3811 71.4304 22.2055C70.9019 22.9705 70.7258 23.9121 70.7258 24.8537ZM152.229 24.9126C152.229 23.2648 152.581 21.7935 153.697 20.5577C154.813 19.263 156.339 18.7922 157.984 18.7922C159.628 18.7922 161.154 19.263 162.329 20.5577C163.562 21.9701 163.856 23.6767 163.738 25.5011C163.679 26.1484 163.562 26.7958 163.327 27.3843C162.446 29.6794 160.332 30.9741 157.631 30.7976C154.46 30.621 152.464 28.5613 152.288 25.3834C152.288 25.2657 152.229 25.0303 152.229 24.9126ZM161.213 25.0303C161.213 23.8533 160.92 22.8528 160.509 22.1466C159.628 20.7342 157.749 20.3811 156.398 21.2639C156.046 21.4993 155.752 21.7935 155.517 22.1466C154.519 23.6179 154.578 26.0896 155.517 27.502C156.457 28.8555 158.277 29.2675 159.628 28.3259C159.98 28.0905 160.215 27.8551 160.45 27.502C161.037 26.7369 161.213 25.7953 161.213 25.0303ZM89.4574 20.7342C90.1621 19.8515 90.9842 19.2041 92.0998 18.9099C93.0981 18.6745 94.0963 18.7333 95.0358 19.1453C96.4451 19.7338 97.0323 20.9696 97.091 22.4409C97.1497 25.0303 97.091 27.6197 97.091 30.2091C97.091 30.5033 97.0323 30.5622 96.7387 30.5622C96.1515 30.5622 95.5643 30.5622 94.9771 30.5622C94.6835 30.5622 94.5661 30.5033 94.5661 30.1502C94.5661 27.9728 94.5661 25.7365 94.5661 23.559C94.5661 23.0882 94.5073 22.6174 94.3899 22.2055C94.0376 21.0285 92.9219 20.5577 91.5714 20.9108C90.397 21.2639 89.6336 22.3232 89.6336 23.6767C89.6336 25.7953 89.6336 27.9728 89.6336 30.0914C89.6336 30.4445 89.5749 30.621 89.1638 30.5622C88.6354 30.5033 88.0482 30.5033 87.5197 30.5622C87.2261 30.5622 87.1086 30.5033 87.1086 30.1502C87.1086 28.5024 87.1086 26.9135 87.1086 25.2657C87.1086 23.3825 87.1086 21.4993 87.1086 19.6161C87.1086 19.2041 87.2261 19.0864 87.6371 19.1453C88.1656 19.2041 88.6354 19.1453 89.1638 19.1453C89.4574 19.1453 89.5749 19.2041 89.5162 19.4984C89.4574 19.9103 89.4574 20.3223 89.4574 20.7342ZM137.608 22.9705C137.549 22.9705 137.49 22.9705 137.432 22.9705C136.786 23.0294 136.375 22.9705 136.081 22.2055C135.376 20.44 132.558 20.3811 131.383 22.0289C130.972 22.5586 130.796 23.2059 130.679 23.9121C130.561 25.0303 130.561 26.1484 131.031 27.2077C131.618 28.5024 132.675 29.0909 134.026 28.9144C135.142 28.7378 135.905 28.0316 136.198 26.7958C136.257 26.4427 136.433 26.325 136.786 26.3838C137.373 26.3838 137.901 26.3838 138.489 26.3838C138.782 26.3838 138.841 26.5015 138.782 26.7369C138.195 29.5617 136.198 31.1507 133.262 30.9741C130.326 30.7976 128.389 28.8555 128.154 25.8542C128.036 24.5595 128.154 23.2648 128.682 22.0289C129.563 19.9692 131.56 18.7922 133.908 18.9099C135.318 18.9687 136.61 19.3218 137.666 20.3223C138.312 20.9696 138.665 21.7935 138.841 22.6763C138.9 22.9705 138.782 23.0882 138.489 23.0294C138.254 22.9705 137.96 22.9705 137.608 22.9705ZM84.3488 24.9126C84.3488 26.6192 84.3488 28.3259 84.3488 30.0325C84.3488 30.5033 84.2314 30.621 83.8203 30.5622C83.2918 30.5033 82.8221 30.5033 82.2936 30.5622C81.9413 30.5622 81.8238 30.5033 81.8238 30.0914C81.8238 27.0312 81.8238 23.971 81.8238 20.9108C81.8238 20.44 81.8238 19.9692 81.8238 19.4984C81.8238 19.2041 81.8826 19.1453 82.1762 19.1453C82.7634 19.1453 83.3506 19.1453 83.9378 19.1453C84.2901 19.1453 84.4075 19.2041 84.4075 19.6161C84.3488 21.3816 84.3488 23.1471 84.3488 24.9126ZM83.1744 14.7904C83.5267 14.8493 84.0552 14.6139 84.2901 14.8493C84.525 15.0847 84.3488 15.6143 84.3488 16.0263C84.3488 16.3794 84.525 16.8502 84.2901 17.0856C84.0552 17.321 83.5854 17.1444 83.2331 17.1444C82.7634 17.1444 82.1762 17.321 81.8826 17.0856C81.6477 16.7913 81.8238 16.2028 81.8238 15.7909C81.8238 14.7904 81.8238 14.7904 82.8221 14.7904H83.1744Z" fill="white"/>
</svg>
