<svg width="136" height="34" viewBox="0 0 136 34" fill="none" xmlns="http://www.w3.org/2000/svg">
<g clip-path="url(#clip0_244_202)">
<path d="M82.6781 10.2776C80.5152 10.2776 78.8162 10.7365 77.1163 11.6525C77.1163 6.76267 77.1163 2.33176 77.2716 0.804199L66.9181 2.6371V3.55399L67.9995 3.70666C69.3889 4.012 69.8547 4.77534 70.1607 6.61C70.4721 10.2776 70.316 29.8376 70.1607 33.0472C72.9421 33.6587 75.8787 34.1176 78.8153 34.1176C87.005 34.1176 91.9493 29.0743 91.9493 21.1276C91.9493 14.8629 87.9321 10.2776 82.6781 10.2776ZM79.124 32.4356C78.5057 32.4356 77.732 32.4356 77.2698 32.2838C77.1145 30.1447 76.9611 21.1276 77.1145 13.1818C78.0417 12.8756 78.6591 12.7229 79.4328 12.7229C82.8343 12.7229 84.6885 16.6958 84.6885 21.5847C84.6876 27.6994 82.3694 32.4356 79.124 32.4356ZM27.9774 1.41487H0.781433V2.78977L2.32692 2.94244C4.33463 3.24777 5.10827 4.47 5.41612 7.37334C5.88101 12.8747 5.72575 22.8087 5.41612 27.5441C5.10738 30.4483 4.33553 31.8241 2.32692 31.975L0.781433 32.2821V33.5043H18.2423V32.2821L16.388 31.975C14.3794 31.8232 13.6067 30.4483 13.2979 27.5441C13.1427 25.5567 12.9883 22.3472 12.9883 18.3752L16.6968 18.5278C19.015 18.5278 20.0956 20.3616 20.5596 22.9587H21.9507V12.1122H20.5596C20.0947 14.7102 19.015 16.5431 16.6968 16.5431L12.9892 16.6967C12.9892 11.5007 13.1436 6.61088 13.2988 3.70754H18.7063C22.8796 3.70754 25.0426 6.30467 26.5872 10.89L28.1327 10.4311L27.9774 1.41487Z" fill="url(#paint0_linear_244_202)"/>
<path d="M36.7855 9.97242C44.512 9.97242 48.3748 15.1684 48.3748 22.0447C48.3748 28.6156 44.048 34.1187 36.3215 34.1187C28.5958 34.1187 24.733 28.9218 24.733 22.0447C24.733 15.4738 29.0589 9.97242 36.7855 9.97242ZM36.3215 11.5009C32.9217 11.5009 31.9946 16.0853 31.9946 22.0447C31.9946 27.8514 33.5401 32.5885 36.6311 32.5885C40.1825 32.5885 41.1114 28.004 41.1114 22.0447C41.1114 16.238 39.5677 11.5009 36.3215 11.5009ZM93.957 22.1982C93.957 15.9327 97.9742 9.97242 105.855 9.97242C112.343 9.97242 115.435 14.7104 115.435 20.9751H101.064C100.909 26.6291 103.69 30.7556 109.254 30.7556C111.727 30.7556 112.962 30.1458 114.509 29.0753L115.125 29.8387C113.58 31.9778 110.181 34.1187 105.855 34.1187C98.9013 34.1178 93.957 29.228 93.957 22.1982ZM101.064 19.2949L108.327 19.1413C108.327 16.0853 107.863 11.5009 105.237 11.5009C102.611 11.5009 101.218 15.7791 101.064 19.2949ZM133.826 11.1955C131.971 10.4304 129.5 9.97242 126.718 9.97242C121.002 9.97242 117.446 13.3338 117.446 17.3075C117.446 21.2813 120.071 22.9616 123.783 24.1847C127.645 25.5587 128.728 26.6291 128.728 28.4629C128.728 30.2967 127.337 31.9769 124.864 31.9769C121.929 31.9769 119.764 30.2967 118.066 25.7114L116.983 26.0185L117.138 32.742C118.993 33.5054 122.391 34.1178 125.328 34.1178C131.355 34.1178 135.218 31.06 135.218 26.3238C135.218 23.1142 133.518 21.2813 129.501 19.752C125.173 18.0718 123.629 17.0022 123.629 15.0149C123.629 13.0284 125.022 11.6526 126.876 11.6526C129.656 11.6526 131.51 13.3338 132.903 17.4602L133.984 17.1549L133.826 11.1955ZM68.4617 10.584C65.8357 9.05729 61.1992 9.81975 58.7275 15.322L58.881 9.9733L48.5292 11.9598V12.8766L49.6107 13.0293C51.0027 13.1829 51.6193 13.9462 51.7746 15.9335C52.0833 19.6011 51.9289 26.0202 51.7746 29.2289C51.6193 31.0609 51.0027 31.9778 49.6107 32.1314L48.5292 32.2849V33.5071H62.8991V32.2849L61.0448 32.1314C59.5002 31.9778 59.0362 31.0609 58.881 29.2289C58.5722 26.3247 58.5722 20.518 58.7275 16.8504C59.4993 15.78 62.8991 14.864 65.9891 16.8504L68.4617 10.584Z" fill="url(#paint1_linear_244_202)"/>
</g>
<defs>
<linearGradient id="paint0_linear_244_202" x1="135.218" y1="-12.9307" x2="10.8233" y2="66.2581" gradientUnits="userSpaceOnUse">
<stop stop-color="#5AACF8"/>
<stop offset="1" stop-color="#395FE4"/>
</linearGradient>
<linearGradient id="paint1_linear_244_202" x1="135.218" y1="-12.9307" x2="10.8233" y2="66.2581" gradientUnits="userSpaceOnUse">
<stop stop-color="#5AACF8"/>
<stop offset="1" stop-color="#395FE4"/>
</linearGradient>
<clipPath id="clip0_244_202">
<rect width="136" height="34" fill="white"/>
</clipPath>
</defs>
</svg>
