<svg width="220" height="19" viewBox="0 0 220 19" fill="none" xmlns="http://www.w3.org/2000/svg">
<g clip-path="url(#clip0_193_12212)">
<path d="M4.68848 0.855957H1.15405V19.072H4.83274V12.016H15.9409V19.072H19.4754V0.855957H15.8688V8.19996H4.68848V0.855957Z" fill="white"/>
<path fill-rule="evenodd" clip-rule="evenodd" d="M41.5475 0.855957H23.3704L23.2983 19.144H26.977V12.016H38.013V19.144H41.5475V0.855957ZM27.0491 4.67196H37.8688V8.27196H27.0491V4.67196Z" fill="white"/>
<path fill-rule="evenodd" clip-rule="evenodd" d="M178.452 19.144H196.774V0.855957H178.452V19.144ZM193.023 4.67196V15.472H182.131V4.67196H193.023Z" fill="white"/>
<path fill-rule="evenodd" clip-rule="evenodd" d="M156.308 0.855957H174.485V19.144H156.308V0.855957ZM159.915 15.4H170.879V4.59996H159.915V15.4Z" fill="white"/>
<path d="M89.731 0.855957V19.144H108.052V15.616H93.4097V11.728H100.623V8.27196H93.4818V4.31196H108.124V0.855957H89.731Z" fill="white"/>
<path fill-rule="evenodd" clip-rule="evenodd" d="M126.374 15.688L122.984 15.544V11.944H115.554V19.144H112.02V0.855957H130.197V11.728L126.662 11.944L126.374 15.688ZM115.554 8.19996H126.662C126.626 7.59224 126.591 7.00228 126.555 6.41244L126.554 6.39995C126.518 5.80595 126.482 5.21196 126.446 4.59996H115.554V8.19996Z" fill="white"/>
<path d="M126.374 15.688L130.269 15.472V19.072H126.662C126.527 17.9916 126.455 16.9112 126.387 15.8903L126.374 15.688Z" fill="white"/>
<path d="M45.4425 0.855957H63.6196V4.38396H49.1212V15.688H63.6196V19.216H45.4425V0.855957Z" fill="white"/>
<path d="M215.311 19.144H218.918V0.855957H200.597V19.144H204.275V4.67196H215.311V19.144Z" fill="white"/>
<path d="M137.698 4.52796V19.144H134.164V0.855957H152.413V19.072H148.951V4.52796H137.698Z" fill="white"/>
<path d="M71.3376 11.872H78.5507L78.6229 8.34396L82.4458 8.05596L82.2294 4.67196H78.8393L78.5507 8.05596H71.1934V0.855957H67.6589V19.144H71.3376V11.872Z" fill="white"/>
<path d="M82.3736 0.855957H85.9802V4.38396H82.3736V0.855957Z" fill="white"/>
<path d="M82.0563 15.7576L82.013 15.76C82.0884 16.3245 82.1441 16.9087 82.2007 17.5023C82.2523 18.0443 82.3048 18.5941 82.3736 19.144H85.9802V15.544L82.0854 15.756C82.1575 14.5333 82.2295 13.3105 82.3016 11.944H78.4786C78.4786 13.096 78.4786 14.2479 78.5507 15.4719L82.0563 15.7576Z" fill="white"/>
</g>
<defs>
<clipPath id="clip0_193_12212">
<rect width="220" height="19" fill="white"/>
</clipPath>
</defs>
</svg>
